%TF.GenerationSoftware,KiCad,Pcbnew,7.0.2*%
%TF.CreationDate,2023-04-28T15:55:32+02:00*%
%TF.ProjectId,picow_adapter,7069636f-775f-4616-9461-707465722e6b,rev?*%
%TF.SameCoordinates,Original*%
%TF.FileFunction,Legend,Top*%
%TF.FilePolarity,Positive*%
%FSLAX46Y46*%
G04 Gerber Fmt 4.6, Leading zero omitted, Abs format (unit mm)*
G04 Created by KiCad (PCBNEW 7.0.2) date 2023-04-28 15:55:32*
%MOMM*%
%LPD*%
G01*
G04 APERTURE LIST*
%ADD10C,0.150000*%
%ADD11C,0.120000*%
G04 APERTURE END LIST*
D10*
X50677619Y-55070476D02*
X50201428Y-55403809D01*
X50677619Y-55641904D02*
X49677619Y-55641904D01*
X49677619Y-55641904D02*
X49677619Y-55260952D01*
X49677619Y-55260952D02*
X49725238Y-55165714D01*
X49725238Y-55165714D02*
X49772857Y-55118095D01*
X49772857Y-55118095D02*
X49868095Y-55070476D01*
X49868095Y-55070476D02*
X50010952Y-55070476D01*
X50010952Y-55070476D02*
X50106190Y-55118095D01*
X50106190Y-55118095D02*
X50153809Y-55165714D01*
X50153809Y-55165714D02*
X50201428Y-55260952D01*
X50201428Y-55260952D02*
X50201428Y-55641904D01*
X50153809Y-54641904D02*
X50153809Y-54308571D01*
X50677619Y-54165714D02*
X50677619Y-54641904D01*
X50677619Y-54641904D02*
X49677619Y-54641904D01*
X49677619Y-54641904D02*
X49677619Y-54165714D01*
X50630000Y-53784761D02*
X50677619Y-53641904D01*
X50677619Y-53641904D02*
X50677619Y-53403809D01*
X50677619Y-53403809D02*
X50630000Y-53308571D01*
X50630000Y-53308571D02*
X50582380Y-53260952D01*
X50582380Y-53260952D02*
X50487142Y-53213333D01*
X50487142Y-53213333D02*
X50391904Y-53213333D01*
X50391904Y-53213333D02*
X50296666Y-53260952D01*
X50296666Y-53260952D02*
X50249047Y-53308571D01*
X50249047Y-53308571D02*
X50201428Y-53403809D01*
X50201428Y-53403809D02*
X50153809Y-53594285D01*
X50153809Y-53594285D02*
X50106190Y-53689523D01*
X50106190Y-53689523D02*
X50058571Y-53737142D01*
X50058571Y-53737142D02*
X49963333Y-53784761D01*
X49963333Y-53784761D02*
X49868095Y-53784761D01*
X49868095Y-53784761D02*
X49772857Y-53737142D01*
X49772857Y-53737142D02*
X49725238Y-53689523D01*
X49725238Y-53689523D02*
X49677619Y-53594285D01*
X49677619Y-53594285D02*
X49677619Y-53356190D01*
X49677619Y-53356190D02*
X49725238Y-53213333D01*
X50153809Y-52784761D02*
X50153809Y-52451428D01*
X50677619Y-52308571D02*
X50677619Y-52784761D01*
X50677619Y-52784761D02*
X49677619Y-52784761D01*
X49677619Y-52784761D02*
X49677619Y-52308571D01*
X49677619Y-52022856D02*
X49677619Y-51451428D01*
X50677619Y-51737142D02*
X49677619Y-51737142D01*
X68232619Y-68770000D02*
X67756428Y-69103333D01*
X68232619Y-69341428D02*
X67232619Y-69341428D01*
X67232619Y-69341428D02*
X67232619Y-68960476D01*
X67232619Y-68960476D02*
X67280238Y-68865238D01*
X67280238Y-68865238D02*
X67327857Y-68817619D01*
X67327857Y-68817619D02*
X67423095Y-68770000D01*
X67423095Y-68770000D02*
X67565952Y-68770000D01*
X67565952Y-68770000D02*
X67661190Y-68817619D01*
X67661190Y-68817619D02*
X67708809Y-68865238D01*
X67708809Y-68865238D02*
X67756428Y-68960476D01*
X67756428Y-68960476D02*
X67756428Y-69341428D01*
X68232619Y-67912857D02*
X67708809Y-67912857D01*
X67708809Y-67912857D02*
X67613571Y-67960476D01*
X67613571Y-67960476D02*
X67565952Y-68055714D01*
X67565952Y-68055714D02*
X67565952Y-68246190D01*
X67565952Y-68246190D02*
X67613571Y-68341428D01*
X68185000Y-67912857D02*
X68232619Y-68008095D01*
X68232619Y-68008095D02*
X68232619Y-68246190D01*
X68232619Y-68246190D02*
X68185000Y-68341428D01*
X68185000Y-68341428D02*
X68089761Y-68389047D01*
X68089761Y-68389047D02*
X67994523Y-68389047D01*
X67994523Y-68389047D02*
X67899285Y-68341428D01*
X67899285Y-68341428D02*
X67851666Y-68246190D01*
X67851666Y-68246190D02*
X67851666Y-68008095D01*
X67851666Y-68008095D02*
X67804047Y-67912857D01*
X68185000Y-67484285D02*
X68232619Y-67389047D01*
X68232619Y-67389047D02*
X68232619Y-67198571D01*
X68232619Y-67198571D02*
X68185000Y-67103333D01*
X68185000Y-67103333D02*
X68089761Y-67055714D01*
X68089761Y-67055714D02*
X68042142Y-67055714D01*
X68042142Y-67055714D02*
X67946904Y-67103333D01*
X67946904Y-67103333D02*
X67899285Y-67198571D01*
X67899285Y-67198571D02*
X67899285Y-67341428D01*
X67899285Y-67341428D02*
X67851666Y-67436666D01*
X67851666Y-67436666D02*
X67756428Y-67484285D01*
X67756428Y-67484285D02*
X67708809Y-67484285D01*
X67708809Y-67484285D02*
X67613571Y-67436666D01*
X67613571Y-67436666D02*
X67565952Y-67341428D01*
X67565952Y-67341428D02*
X67565952Y-67198571D01*
X67565952Y-67198571D02*
X67613571Y-67103333D01*
X67565952Y-66627142D02*
X68565952Y-66627142D01*
X67613571Y-66627142D02*
X67565952Y-66531904D01*
X67565952Y-66531904D02*
X67565952Y-66341428D01*
X67565952Y-66341428D02*
X67613571Y-66246190D01*
X67613571Y-66246190D02*
X67661190Y-66198571D01*
X67661190Y-66198571D02*
X67756428Y-66150952D01*
X67756428Y-66150952D02*
X68042142Y-66150952D01*
X68042142Y-66150952D02*
X68137380Y-66198571D01*
X68137380Y-66198571D02*
X68185000Y-66246190D01*
X68185000Y-66246190D02*
X68232619Y-66341428D01*
X68232619Y-66341428D02*
X68232619Y-66531904D01*
X68232619Y-66531904D02*
X68185000Y-66627142D01*
X68232619Y-65722380D02*
X67232619Y-65722380D01*
X67613571Y-65722380D02*
X67565952Y-65627142D01*
X67565952Y-65627142D02*
X67565952Y-65436666D01*
X67565952Y-65436666D02*
X67613571Y-65341428D01*
X67613571Y-65341428D02*
X67661190Y-65293809D01*
X67661190Y-65293809D02*
X67756428Y-65246190D01*
X67756428Y-65246190D02*
X68042142Y-65246190D01*
X68042142Y-65246190D02*
X68137380Y-65293809D01*
X68137380Y-65293809D02*
X68185000Y-65341428D01*
X68185000Y-65341428D02*
X68232619Y-65436666D01*
X68232619Y-65436666D02*
X68232619Y-65627142D01*
X68232619Y-65627142D02*
X68185000Y-65722380D01*
X68185000Y-64436666D02*
X68232619Y-64531904D01*
X68232619Y-64531904D02*
X68232619Y-64722380D01*
X68232619Y-64722380D02*
X68185000Y-64817618D01*
X68185000Y-64817618D02*
X68089761Y-64865237D01*
X68089761Y-64865237D02*
X67708809Y-64865237D01*
X67708809Y-64865237D02*
X67613571Y-64817618D01*
X67613571Y-64817618D02*
X67565952Y-64722380D01*
X67565952Y-64722380D02*
X67565952Y-64531904D01*
X67565952Y-64531904D02*
X67613571Y-64436666D01*
X67613571Y-64436666D02*
X67708809Y-64389047D01*
X67708809Y-64389047D02*
X67804047Y-64389047D01*
X67804047Y-64389047D02*
X67899285Y-64865237D01*
X68232619Y-63960475D02*
X67565952Y-63960475D01*
X67756428Y-63960475D02*
X67661190Y-63912856D01*
X67661190Y-63912856D02*
X67613571Y-63865237D01*
X67613571Y-63865237D02*
X67565952Y-63769999D01*
X67565952Y-63769999D02*
X67565952Y-63674761D01*
X68232619Y-63341427D02*
X67565952Y-63341427D01*
X67756428Y-63341427D02*
X67661190Y-63293808D01*
X67661190Y-63293808D02*
X67613571Y-63246189D01*
X67613571Y-63246189D02*
X67565952Y-63150951D01*
X67565952Y-63150951D02*
X67565952Y-63055713D01*
X67565952Y-62817617D02*
X68232619Y-62579522D01*
X67565952Y-62341427D02*
X68232619Y-62579522D01*
X68232619Y-62579522D02*
X68470714Y-62674760D01*
X68470714Y-62674760D02*
X68518333Y-62722379D01*
X68518333Y-62722379D02*
X68565952Y-62817617D01*
X68232619Y-61198569D02*
X67232619Y-61198569D01*
X67232619Y-61198569D02*
X67232619Y-60817617D01*
X67232619Y-60817617D02*
X67280238Y-60722379D01*
X67280238Y-60722379D02*
X67327857Y-60674760D01*
X67327857Y-60674760D02*
X67423095Y-60627141D01*
X67423095Y-60627141D02*
X67565952Y-60627141D01*
X67565952Y-60627141D02*
X67661190Y-60674760D01*
X67661190Y-60674760D02*
X67708809Y-60722379D01*
X67708809Y-60722379D02*
X67756428Y-60817617D01*
X67756428Y-60817617D02*
X67756428Y-61198569D01*
X68232619Y-60198569D02*
X67565952Y-60198569D01*
X67232619Y-60198569D02*
X67280238Y-60246188D01*
X67280238Y-60246188D02*
X67327857Y-60198569D01*
X67327857Y-60198569D02*
X67280238Y-60150950D01*
X67280238Y-60150950D02*
X67232619Y-60198569D01*
X67232619Y-60198569D02*
X67327857Y-60198569D01*
X69852619Y-67103332D02*
X68852619Y-67103332D01*
X68852619Y-67103332D02*
X68852619Y-66722380D01*
X68852619Y-66722380D02*
X68900238Y-66627142D01*
X68900238Y-66627142D02*
X68947857Y-66579523D01*
X68947857Y-66579523D02*
X69043095Y-66531904D01*
X69043095Y-66531904D02*
X69185952Y-66531904D01*
X69185952Y-66531904D02*
X69281190Y-66579523D01*
X69281190Y-66579523D02*
X69328809Y-66627142D01*
X69328809Y-66627142D02*
X69376428Y-66722380D01*
X69376428Y-66722380D02*
X69376428Y-67103332D01*
X69852619Y-66103332D02*
X69185952Y-66103332D01*
X68852619Y-66103332D02*
X68900238Y-66150951D01*
X68900238Y-66150951D02*
X68947857Y-66103332D01*
X68947857Y-66103332D02*
X68900238Y-66055713D01*
X68900238Y-66055713D02*
X68852619Y-66103332D01*
X68852619Y-66103332D02*
X68947857Y-66103332D01*
X69805000Y-65198571D02*
X69852619Y-65293809D01*
X69852619Y-65293809D02*
X69852619Y-65484285D01*
X69852619Y-65484285D02*
X69805000Y-65579523D01*
X69805000Y-65579523D02*
X69757380Y-65627142D01*
X69757380Y-65627142D02*
X69662142Y-65674761D01*
X69662142Y-65674761D02*
X69376428Y-65674761D01*
X69376428Y-65674761D02*
X69281190Y-65627142D01*
X69281190Y-65627142D02*
X69233571Y-65579523D01*
X69233571Y-65579523D02*
X69185952Y-65484285D01*
X69185952Y-65484285D02*
X69185952Y-65293809D01*
X69185952Y-65293809D02*
X69233571Y-65198571D01*
X69852619Y-64627142D02*
X69805000Y-64722380D01*
X69805000Y-64722380D02*
X69757380Y-64769999D01*
X69757380Y-64769999D02*
X69662142Y-64817618D01*
X69662142Y-64817618D02*
X69376428Y-64817618D01*
X69376428Y-64817618D02*
X69281190Y-64769999D01*
X69281190Y-64769999D02*
X69233571Y-64722380D01*
X69233571Y-64722380D02*
X69185952Y-64627142D01*
X69185952Y-64627142D02*
X69185952Y-64484285D01*
X69185952Y-64484285D02*
X69233571Y-64389047D01*
X69233571Y-64389047D02*
X69281190Y-64341428D01*
X69281190Y-64341428D02*
X69376428Y-64293809D01*
X69376428Y-64293809D02*
X69662142Y-64293809D01*
X69662142Y-64293809D02*
X69757380Y-64341428D01*
X69757380Y-64341428D02*
X69805000Y-64389047D01*
X69805000Y-64389047D02*
X69852619Y-64484285D01*
X69852619Y-64484285D02*
X69852619Y-64627142D01*
X68852619Y-63198570D02*
X69852619Y-62960475D01*
X69852619Y-62960475D02*
X69138333Y-62769999D01*
X69138333Y-62769999D02*
X69852619Y-62579523D01*
X69852619Y-62579523D02*
X68852619Y-62341428D01*
X55710000Y-91757523D02*
X55757619Y-91614666D01*
X55757619Y-91614666D02*
X55757619Y-91376571D01*
X55757619Y-91376571D02*
X55710000Y-91281333D01*
X55710000Y-91281333D02*
X55662380Y-91233714D01*
X55662380Y-91233714D02*
X55567142Y-91186095D01*
X55567142Y-91186095D02*
X55471904Y-91186095D01*
X55471904Y-91186095D02*
X55376666Y-91233714D01*
X55376666Y-91233714D02*
X55329047Y-91281333D01*
X55329047Y-91281333D02*
X55281428Y-91376571D01*
X55281428Y-91376571D02*
X55233809Y-91567047D01*
X55233809Y-91567047D02*
X55186190Y-91662285D01*
X55186190Y-91662285D02*
X55138571Y-91709904D01*
X55138571Y-91709904D02*
X55043333Y-91757523D01*
X55043333Y-91757523D02*
X54948095Y-91757523D01*
X54948095Y-91757523D02*
X54852857Y-91709904D01*
X54852857Y-91709904D02*
X54805238Y-91662285D01*
X54805238Y-91662285D02*
X54757619Y-91567047D01*
X54757619Y-91567047D02*
X54757619Y-91328952D01*
X54757619Y-91328952D02*
X54805238Y-91186095D01*
X55710000Y-90376571D02*
X55757619Y-90471809D01*
X55757619Y-90471809D02*
X55757619Y-90662285D01*
X55757619Y-90662285D02*
X55710000Y-90757523D01*
X55710000Y-90757523D02*
X55614761Y-90805142D01*
X55614761Y-90805142D02*
X55233809Y-90805142D01*
X55233809Y-90805142D02*
X55138571Y-90757523D01*
X55138571Y-90757523D02*
X55090952Y-90662285D01*
X55090952Y-90662285D02*
X55090952Y-90471809D01*
X55090952Y-90471809D02*
X55138571Y-90376571D01*
X55138571Y-90376571D02*
X55233809Y-90328952D01*
X55233809Y-90328952D02*
X55329047Y-90328952D01*
X55329047Y-90328952D02*
X55424285Y-90805142D01*
X55090952Y-89900380D02*
X55757619Y-89900380D01*
X55186190Y-89900380D02*
X55138571Y-89852761D01*
X55138571Y-89852761D02*
X55090952Y-89757523D01*
X55090952Y-89757523D02*
X55090952Y-89614666D01*
X55090952Y-89614666D02*
X55138571Y-89519428D01*
X55138571Y-89519428D02*
X55233809Y-89471809D01*
X55233809Y-89471809D02*
X55757619Y-89471809D01*
X55710000Y-89043237D02*
X55757619Y-88947999D01*
X55757619Y-88947999D02*
X55757619Y-88757523D01*
X55757619Y-88757523D02*
X55710000Y-88662285D01*
X55710000Y-88662285D02*
X55614761Y-88614666D01*
X55614761Y-88614666D02*
X55567142Y-88614666D01*
X55567142Y-88614666D02*
X55471904Y-88662285D01*
X55471904Y-88662285D02*
X55424285Y-88757523D01*
X55424285Y-88757523D02*
X55424285Y-88900380D01*
X55424285Y-88900380D02*
X55376666Y-88995618D01*
X55376666Y-88995618D02*
X55281428Y-89043237D01*
X55281428Y-89043237D02*
X55233809Y-89043237D01*
X55233809Y-89043237D02*
X55138571Y-88995618D01*
X55138571Y-88995618D02*
X55090952Y-88900380D01*
X55090952Y-88900380D02*
X55090952Y-88757523D01*
X55090952Y-88757523D02*
X55138571Y-88662285D01*
X55757619Y-88043237D02*
X55710000Y-88138475D01*
X55710000Y-88138475D02*
X55662380Y-88186094D01*
X55662380Y-88186094D02*
X55567142Y-88233713D01*
X55567142Y-88233713D02*
X55281428Y-88233713D01*
X55281428Y-88233713D02*
X55186190Y-88186094D01*
X55186190Y-88186094D02*
X55138571Y-88138475D01*
X55138571Y-88138475D02*
X55090952Y-88043237D01*
X55090952Y-88043237D02*
X55090952Y-87900380D01*
X55090952Y-87900380D02*
X55138571Y-87805142D01*
X55138571Y-87805142D02*
X55186190Y-87757523D01*
X55186190Y-87757523D02*
X55281428Y-87709904D01*
X55281428Y-87709904D02*
X55567142Y-87709904D01*
X55567142Y-87709904D02*
X55662380Y-87757523D01*
X55662380Y-87757523D02*
X55710000Y-87805142D01*
X55710000Y-87805142D02*
X55757619Y-87900380D01*
X55757619Y-87900380D02*
X55757619Y-88043237D01*
X55757619Y-87281332D02*
X55090952Y-87281332D01*
X55281428Y-87281332D02*
X55186190Y-87233713D01*
X55186190Y-87233713D02*
X55138571Y-87186094D01*
X55138571Y-87186094D02*
X55090952Y-87090856D01*
X55090952Y-87090856D02*
X55090952Y-86995618D01*
X55710000Y-86233713D02*
X55757619Y-86328951D01*
X55757619Y-86328951D02*
X55757619Y-86519427D01*
X55757619Y-86519427D02*
X55710000Y-86614665D01*
X55710000Y-86614665D02*
X55662380Y-86662284D01*
X55662380Y-86662284D02*
X55567142Y-86709903D01*
X55567142Y-86709903D02*
X55281428Y-86709903D01*
X55281428Y-86709903D02*
X55186190Y-86662284D01*
X55186190Y-86662284D02*
X55138571Y-86614665D01*
X55138571Y-86614665D02*
X55090952Y-86519427D01*
X55090952Y-86519427D02*
X55090952Y-86328951D01*
X55090952Y-86328951D02*
X55138571Y-86233713D01*
X55757619Y-85662284D02*
X55710000Y-85757522D01*
X55710000Y-85757522D02*
X55614761Y-85805141D01*
X55614761Y-85805141D02*
X54757619Y-85805141D01*
X55757619Y-85138474D02*
X55710000Y-85233712D01*
X55710000Y-85233712D02*
X55662380Y-85281331D01*
X55662380Y-85281331D02*
X55567142Y-85328950D01*
X55567142Y-85328950D02*
X55281428Y-85328950D01*
X55281428Y-85328950D02*
X55186190Y-85281331D01*
X55186190Y-85281331D02*
X55138571Y-85233712D01*
X55138571Y-85233712D02*
X55090952Y-85138474D01*
X55090952Y-85138474D02*
X55090952Y-84995617D01*
X55090952Y-84995617D02*
X55138571Y-84900379D01*
X55138571Y-84900379D02*
X55186190Y-84852760D01*
X55186190Y-84852760D02*
X55281428Y-84805141D01*
X55281428Y-84805141D02*
X55567142Y-84805141D01*
X55567142Y-84805141D02*
X55662380Y-84852760D01*
X55662380Y-84852760D02*
X55710000Y-84900379D01*
X55710000Y-84900379D02*
X55757619Y-84995617D01*
X55757619Y-84995617D02*
X55757619Y-85138474D01*
X55710000Y-83947998D02*
X55757619Y-84043236D01*
X55757619Y-84043236D02*
X55757619Y-84233712D01*
X55757619Y-84233712D02*
X55710000Y-84328950D01*
X55710000Y-84328950D02*
X55662380Y-84376569D01*
X55662380Y-84376569D02*
X55567142Y-84424188D01*
X55567142Y-84424188D02*
X55281428Y-84424188D01*
X55281428Y-84424188D02*
X55186190Y-84376569D01*
X55186190Y-84376569D02*
X55138571Y-84328950D01*
X55138571Y-84328950D02*
X55090952Y-84233712D01*
X55090952Y-84233712D02*
X55090952Y-84043236D01*
X55090952Y-84043236D02*
X55138571Y-83947998D01*
X55757619Y-83519426D02*
X54757619Y-83519426D01*
X55376666Y-83424188D02*
X55757619Y-83138474D01*
X55090952Y-83138474D02*
X55471904Y-83519426D01*
X55757619Y-81376569D02*
X55281428Y-81709902D01*
X55757619Y-81947997D02*
X54757619Y-81947997D01*
X54757619Y-81947997D02*
X54757619Y-81567045D01*
X54757619Y-81567045D02*
X54805238Y-81471807D01*
X54805238Y-81471807D02*
X54852857Y-81424188D01*
X54852857Y-81424188D02*
X54948095Y-81376569D01*
X54948095Y-81376569D02*
X55090952Y-81376569D01*
X55090952Y-81376569D02*
X55186190Y-81424188D01*
X55186190Y-81424188D02*
X55233809Y-81471807D01*
X55233809Y-81471807D02*
X55281428Y-81567045D01*
X55281428Y-81567045D02*
X55281428Y-81947997D01*
X55757619Y-80519426D02*
X55233809Y-80519426D01*
X55233809Y-80519426D02*
X55138571Y-80567045D01*
X55138571Y-80567045D02*
X55090952Y-80662283D01*
X55090952Y-80662283D02*
X55090952Y-80852759D01*
X55090952Y-80852759D02*
X55138571Y-80947997D01*
X55710000Y-80519426D02*
X55757619Y-80614664D01*
X55757619Y-80614664D02*
X55757619Y-80852759D01*
X55757619Y-80852759D02*
X55710000Y-80947997D01*
X55710000Y-80947997D02*
X55614761Y-80995616D01*
X55614761Y-80995616D02*
X55519523Y-80995616D01*
X55519523Y-80995616D02*
X55424285Y-80947997D01*
X55424285Y-80947997D02*
X55376666Y-80852759D01*
X55376666Y-80852759D02*
X55376666Y-80614664D01*
X55376666Y-80614664D02*
X55329047Y-80519426D01*
X55710000Y-80090854D02*
X55757619Y-79995616D01*
X55757619Y-79995616D02*
X55757619Y-79805140D01*
X55757619Y-79805140D02*
X55710000Y-79709902D01*
X55710000Y-79709902D02*
X55614761Y-79662283D01*
X55614761Y-79662283D02*
X55567142Y-79662283D01*
X55567142Y-79662283D02*
X55471904Y-79709902D01*
X55471904Y-79709902D02*
X55424285Y-79805140D01*
X55424285Y-79805140D02*
X55424285Y-79947997D01*
X55424285Y-79947997D02*
X55376666Y-80043235D01*
X55376666Y-80043235D02*
X55281428Y-80090854D01*
X55281428Y-80090854D02*
X55233809Y-80090854D01*
X55233809Y-80090854D02*
X55138571Y-80043235D01*
X55138571Y-80043235D02*
X55090952Y-79947997D01*
X55090952Y-79947997D02*
X55090952Y-79805140D01*
X55090952Y-79805140D02*
X55138571Y-79709902D01*
X55090952Y-79233711D02*
X56090952Y-79233711D01*
X55138571Y-79233711D02*
X55090952Y-79138473D01*
X55090952Y-79138473D02*
X55090952Y-78947997D01*
X55090952Y-78947997D02*
X55138571Y-78852759D01*
X55138571Y-78852759D02*
X55186190Y-78805140D01*
X55186190Y-78805140D02*
X55281428Y-78757521D01*
X55281428Y-78757521D02*
X55567142Y-78757521D01*
X55567142Y-78757521D02*
X55662380Y-78805140D01*
X55662380Y-78805140D02*
X55710000Y-78852759D01*
X55710000Y-78852759D02*
X55757619Y-78947997D01*
X55757619Y-78947997D02*
X55757619Y-79138473D01*
X55757619Y-79138473D02*
X55710000Y-79233711D01*
X55757619Y-78328949D02*
X54757619Y-78328949D01*
X55138571Y-78328949D02*
X55090952Y-78233711D01*
X55090952Y-78233711D02*
X55090952Y-78043235D01*
X55090952Y-78043235D02*
X55138571Y-77947997D01*
X55138571Y-77947997D02*
X55186190Y-77900378D01*
X55186190Y-77900378D02*
X55281428Y-77852759D01*
X55281428Y-77852759D02*
X55567142Y-77852759D01*
X55567142Y-77852759D02*
X55662380Y-77900378D01*
X55662380Y-77900378D02*
X55710000Y-77947997D01*
X55710000Y-77947997D02*
X55757619Y-78043235D01*
X55757619Y-78043235D02*
X55757619Y-78233711D01*
X55757619Y-78233711D02*
X55710000Y-78328949D01*
X55710000Y-77043235D02*
X55757619Y-77138473D01*
X55757619Y-77138473D02*
X55757619Y-77328949D01*
X55757619Y-77328949D02*
X55710000Y-77424187D01*
X55710000Y-77424187D02*
X55614761Y-77471806D01*
X55614761Y-77471806D02*
X55233809Y-77471806D01*
X55233809Y-77471806D02*
X55138571Y-77424187D01*
X55138571Y-77424187D02*
X55090952Y-77328949D01*
X55090952Y-77328949D02*
X55090952Y-77138473D01*
X55090952Y-77138473D02*
X55138571Y-77043235D01*
X55138571Y-77043235D02*
X55233809Y-76995616D01*
X55233809Y-76995616D02*
X55329047Y-76995616D01*
X55329047Y-76995616D02*
X55424285Y-77471806D01*
X55757619Y-76567044D02*
X55090952Y-76567044D01*
X55281428Y-76567044D02*
X55186190Y-76519425D01*
X55186190Y-76519425D02*
X55138571Y-76471806D01*
X55138571Y-76471806D02*
X55090952Y-76376568D01*
X55090952Y-76376568D02*
X55090952Y-76281330D01*
X55757619Y-75947996D02*
X55090952Y-75947996D01*
X55281428Y-75947996D02*
X55186190Y-75900377D01*
X55186190Y-75900377D02*
X55138571Y-75852758D01*
X55138571Y-75852758D02*
X55090952Y-75757520D01*
X55090952Y-75757520D02*
X55090952Y-75662282D01*
X55090952Y-75424186D02*
X55757619Y-75186091D01*
X55090952Y-74947996D02*
X55757619Y-75186091D01*
X55757619Y-75186091D02*
X55995714Y-75281329D01*
X55995714Y-75281329D02*
X56043333Y-75328948D01*
X56043333Y-75328948D02*
X56090952Y-75424186D01*
X55757619Y-73805138D02*
X54757619Y-73805138D01*
X54757619Y-73805138D02*
X54757619Y-73424186D01*
X54757619Y-73424186D02*
X54805238Y-73328948D01*
X54805238Y-73328948D02*
X54852857Y-73281329D01*
X54852857Y-73281329D02*
X54948095Y-73233710D01*
X54948095Y-73233710D02*
X55090952Y-73233710D01*
X55090952Y-73233710D02*
X55186190Y-73281329D01*
X55186190Y-73281329D02*
X55233809Y-73328948D01*
X55233809Y-73328948D02*
X55281428Y-73424186D01*
X55281428Y-73424186D02*
X55281428Y-73805138D01*
X55757619Y-72805138D02*
X55090952Y-72805138D01*
X54757619Y-72805138D02*
X54805238Y-72852757D01*
X54805238Y-72852757D02*
X54852857Y-72805138D01*
X54852857Y-72805138D02*
X54805238Y-72757519D01*
X54805238Y-72757519D02*
X54757619Y-72805138D01*
X54757619Y-72805138D02*
X54852857Y-72805138D01*
X55757619Y-71567043D02*
X54757619Y-71567043D01*
X54757619Y-71567043D02*
X54757619Y-71186091D01*
X54757619Y-71186091D02*
X54805238Y-71090853D01*
X54805238Y-71090853D02*
X54852857Y-71043234D01*
X54852857Y-71043234D02*
X54948095Y-70995615D01*
X54948095Y-70995615D02*
X55090952Y-70995615D01*
X55090952Y-70995615D02*
X55186190Y-71043234D01*
X55186190Y-71043234D02*
X55233809Y-71090853D01*
X55233809Y-71090853D02*
X55281428Y-71186091D01*
X55281428Y-71186091D02*
X55281428Y-71567043D01*
X55757619Y-70567043D02*
X55090952Y-70567043D01*
X54757619Y-70567043D02*
X54805238Y-70614662D01*
X54805238Y-70614662D02*
X54852857Y-70567043D01*
X54852857Y-70567043D02*
X54805238Y-70519424D01*
X54805238Y-70519424D02*
X54757619Y-70567043D01*
X54757619Y-70567043D02*
X54852857Y-70567043D01*
X55710000Y-69662282D02*
X55757619Y-69757520D01*
X55757619Y-69757520D02*
X55757619Y-69947996D01*
X55757619Y-69947996D02*
X55710000Y-70043234D01*
X55710000Y-70043234D02*
X55662380Y-70090853D01*
X55662380Y-70090853D02*
X55567142Y-70138472D01*
X55567142Y-70138472D02*
X55281428Y-70138472D01*
X55281428Y-70138472D02*
X55186190Y-70090853D01*
X55186190Y-70090853D02*
X55138571Y-70043234D01*
X55138571Y-70043234D02*
X55090952Y-69947996D01*
X55090952Y-69947996D02*
X55090952Y-69757520D01*
X55090952Y-69757520D02*
X55138571Y-69662282D01*
X55757619Y-69090853D02*
X55710000Y-69186091D01*
X55710000Y-69186091D02*
X55662380Y-69233710D01*
X55662380Y-69233710D02*
X55567142Y-69281329D01*
X55567142Y-69281329D02*
X55281428Y-69281329D01*
X55281428Y-69281329D02*
X55186190Y-69233710D01*
X55186190Y-69233710D02*
X55138571Y-69186091D01*
X55138571Y-69186091D02*
X55090952Y-69090853D01*
X55090952Y-69090853D02*
X55090952Y-68947996D01*
X55090952Y-68947996D02*
X55138571Y-68852758D01*
X55138571Y-68852758D02*
X55186190Y-68805139D01*
X55186190Y-68805139D02*
X55281428Y-68757520D01*
X55281428Y-68757520D02*
X55567142Y-68757520D01*
X55567142Y-68757520D02*
X55662380Y-68805139D01*
X55662380Y-68805139D02*
X55710000Y-68852758D01*
X55710000Y-68852758D02*
X55757619Y-68947996D01*
X55757619Y-68947996D02*
X55757619Y-69090853D01*
X54757619Y-67662281D02*
X55757619Y-67424186D01*
X55757619Y-67424186D02*
X55043333Y-67233710D01*
X55043333Y-67233710D02*
X55757619Y-67043234D01*
X55757619Y-67043234D02*
X54757619Y-66805139D01*
X55471904Y-65709900D02*
X55471904Y-65233710D01*
X55757619Y-65805138D02*
X54757619Y-65471805D01*
X54757619Y-65471805D02*
X55757619Y-65138472D01*
X55757619Y-64376567D02*
X54757619Y-64376567D01*
X55710000Y-64376567D02*
X55757619Y-64471805D01*
X55757619Y-64471805D02*
X55757619Y-64662281D01*
X55757619Y-64662281D02*
X55710000Y-64757519D01*
X55710000Y-64757519D02*
X55662380Y-64805138D01*
X55662380Y-64805138D02*
X55567142Y-64852757D01*
X55567142Y-64852757D02*
X55281428Y-64852757D01*
X55281428Y-64852757D02*
X55186190Y-64805138D01*
X55186190Y-64805138D02*
X55138571Y-64757519D01*
X55138571Y-64757519D02*
X55090952Y-64662281D01*
X55090952Y-64662281D02*
X55090952Y-64471805D01*
X55090952Y-64471805D02*
X55138571Y-64376567D01*
X55757619Y-63471805D02*
X55233809Y-63471805D01*
X55233809Y-63471805D02*
X55138571Y-63519424D01*
X55138571Y-63519424D02*
X55090952Y-63614662D01*
X55090952Y-63614662D02*
X55090952Y-63805138D01*
X55090952Y-63805138D02*
X55138571Y-63900376D01*
X55710000Y-63471805D02*
X55757619Y-63567043D01*
X55757619Y-63567043D02*
X55757619Y-63805138D01*
X55757619Y-63805138D02*
X55710000Y-63900376D01*
X55710000Y-63900376D02*
X55614761Y-63947995D01*
X55614761Y-63947995D02*
X55519523Y-63947995D01*
X55519523Y-63947995D02*
X55424285Y-63900376D01*
X55424285Y-63900376D02*
X55376666Y-63805138D01*
X55376666Y-63805138D02*
X55376666Y-63567043D01*
X55376666Y-63567043D02*
X55329047Y-63471805D01*
X55090952Y-62995614D02*
X56090952Y-62995614D01*
X55138571Y-62995614D02*
X55090952Y-62900376D01*
X55090952Y-62900376D02*
X55090952Y-62709900D01*
X55090952Y-62709900D02*
X55138571Y-62614662D01*
X55138571Y-62614662D02*
X55186190Y-62567043D01*
X55186190Y-62567043D02*
X55281428Y-62519424D01*
X55281428Y-62519424D02*
X55567142Y-62519424D01*
X55567142Y-62519424D02*
X55662380Y-62567043D01*
X55662380Y-62567043D02*
X55710000Y-62614662D01*
X55710000Y-62614662D02*
X55757619Y-62709900D01*
X55757619Y-62709900D02*
X55757619Y-62900376D01*
X55757619Y-62900376D02*
X55710000Y-62995614D01*
X55090952Y-62233709D02*
X55090952Y-61852757D01*
X54757619Y-62090852D02*
X55614761Y-62090852D01*
X55614761Y-62090852D02*
X55710000Y-62043233D01*
X55710000Y-62043233D02*
X55757619Y-61947995D01*
X55757619Y-61947995D02*
X55757619Y-61852757D01*
X55710000Y-61138471D02*
X55757619Y-61233709D01*
X55757619Y-61233709D02*
X55757619Y-61424185D01*
X55757619Y-61424185D02*
X55710000Y-61519423D01*
X55710000Y-61519423D02*
X55614761Y-61567042D01*
X55614761Y-61567042D02*
X55233809Y-61567042D01*
X55233809Y-61567042D02*
X55138571Y-61519423D01*
X55138571Y-61519423D02*
X55090952Y-61424185D01*
X55090952Y-61424185D02*
X55090952Y-61233709D01*
X55090952Y-61233709D02*
X55138571Y-61138471D01*
X55138571Y-61138471D02*
X55233809Y-61090852D01*
X55233809Y-61090852D02*
X55329047Y-61090852D01*
X55329047Y-61090852D02*
X55424285Y-61567042D01*
X55757619Y-60662280D02*
X55090952Y-60662280D01*
X55281428Y-60662280D02*
X55186190Y-60614661D01*
X55186190Y-60614661D02*
X55138571Y-60567042D01*
X55138571Y-60567042D02*
X55090952Y-60471804D01*
X55090952Y-60471804D02*
X55090952Y-60376566D01*
D11*
%TO.C,A1*%
X58020000Y-43355000D02*
X58020000Y-43775000D01*
X58020000Y-45895000D02*
X58020000Y-46315000D01*
X58020000Y-48435000D02*
X58020000Y-48855000D01*
X58020000Y-50975000D02*
X58020000Y-51395000D01*
X58020000Y-53515000D02*
X58020000Y-53935000D01*
X58020000Y-56055000D02*
X58020000Y-56475000D01*
X58020000Y-58595000D02*
X58020000Y-59015000D01*
X58020000Y-61135000D02*
X58020000Y-61555000D01*
X58020000Y-63675000D02*
X58020000Y-64095000D01*
X58020000Y-66215000D02*
X58020000Y-66635000D01*
X58020000Y-68755000D02*
X58020000Y-69175000D01*
X58020000Y-71295000D02*
X58020000Y-71715000D01*
X58020000Y-73835000D02*
X58020000Y-74255000D01*
X58020000Y-76375000D02*
X58020000Y-76795000D01*
X58020000Y-78915000D02*
X58020000Y-79335000D01*
X58020000Y-81455000D02*
X58020000Y-81875000D01*
X58020000Y-83995000D02*
X58020000Y-84415000D01*
X58020000Y-86535000D02*
X58020000Y-86955000D01*
X58020000Y-89075000D02*
X58020000Y-89495000D01*
X58580000Y-40865000D02*
X64770000Y-40865000D01*
X58580000Y-91985000D02*
X64980000Y-91985000D01*
X64480000Y-39735000D02*
X64810000Y-39545000D01*
X64770000Y-40235000D02*
X64480000Y-39735000D01*
X64770000Y-40865000D02*
X58580000Y-40865000D01*
X64770000Y-40865000D02*
X64770000Y-40235000D01*
X64810000Y-39545000D02*
X72350000Y-39545000D01*
X72180000Y-91985000D02*
X78580000Y-91985000D01*
X72350000Y-39545000D02*
X72680000Y-39735000D01*
X72390000Y-40235000D02*
X72390000Y-40865000D01*
X72680000Y-39735000D02*
X72390000Y-40235000D01*
X78580000Y-40865000D02*
X72390000Y-40865000D01*
X79140000Y-43355000D02*
X79140000Y-43775000D01*
X79140000Y-45895000D02*
X79140000Y-46315000D01*
X79140000Y-48435000D02*
X79140000Y-48855000D01*
X79140000Y-50975000D02*
X79140000Y-51395000D01*
X79140000Y-53515000D02*
X79140000Y-53935000D01*
X79140000Y-56055000D02*
X79140000Y-56475000D01*
X79140000Y-58595000D02*
X79140000Y-59015000D01*
X79140000Y-61135000D02*
X79140000Y-61555000D01*
X79140000Y-63675000D02*
X79140000Y-64095000D01*
X79140000Y-66215000D02*
X79140000Y-66635000D01*
X79140000Y-68755000D02*
X79140000Y-69175000D01*
X79140000Y-71295000D02*
X79140000Y-71715000D01*
X79140000Y-73835000D02*
X79140000Y-74255000D01*
X79140000Y-76375000D02*
X79140000Y-76795000D01*
X79140000Y-78915000D02*
X79140000Y-79335000D01*
X79140000Y-81455000D02*
X79140000Y-81875000D01*
X79140000Y-83995000D02*
X79140000Y-84415000D01*
X79140000Y-86535000D02*
X79140000Y-86955000D01*
X79140000Y-89075000D02*
X79140000Y-89495000D01*
X58580000Y-40865001D02*
G75*
G03*
X58050001Y-41235000I-1771J-562057D01*
G01*
X58050001Y-91615000D02*
G75*
G03*
X58580000Y-91984999I528226J192055D01*
G01*
X79109963Y-41235014D02*
G75*
G03*
X78580000Y-40865001I-528263J-192086D01*
G01*
X78580000Y-91985067D02*
G75*
G03*
X79109999Y-91615000I1600J562267D01*
G01*
%TO.C,SW1*%
X51940000Y-54990000D02*
X51940000Y-51690000D01*
X52240000Y-54990000D02*
X51940000Y-54990000D01*
X54440000Y-54990000D02*
X54740000Y-54990000D01*
X54740000Y-54990000D02*
X54740000Y-51690000D01*
X51940000Y-51690000D02*
X52240000Y-51690000D01*
X54740000Y-51690000D02*
X54440000Y-51690000D01*
%TD*%
M02*
