M48
; DRILL file {KiCad 7.0.2} date Fri Apr 28 15:55:37 2023
; FORMAT={-:-/ absolute / inch / decimal}
; #@! TF.CreationDate,2023-04-28T15:55:37+02:00
; #@! TF.GenerationSoftware,Kicad,Pcbnew,7.0.2
; #@! TF.FileFunction,Plated,1,2,PTH
FMAT,2
INCH
; #@! TA.AperFunction,Plated,PTH,ViaDrill
T1C0.0157
; #@! TA.AperFunction,Plated,PTH,ComponentDrill
T2C0.0394
%
G90
G05
T1
X2.1Y-2.08
X2.1215Y-2.55
X2.1785Y-2.3416
X2.425Y-2.275
X2.425Y-3.1209
X2.475Y-3.1494
T2
X1.9492Y-2.4488
X1.9492Y-2.5488
X1.9492Y-2.6488
X1.9492Y-2.7488
X1.9492Y-2.8488
X1.9492Y-2.9488
X1.9492Y-3.0488
X1.9492Y-3.1488
X1.9492Y-3.2488
X1.9492Y-3.3488
X2.0492Y-2.4488
X2.0492Y-2.5488
X2.0492Y-2.6488
X2.0492Y-2.7488
X2.0492Y-2.8488
X2.0492Y-2.9488
X2.0492Y-3.0488
X2.0492Y-3.1488
X2.0492Y-3.2488
X2.0492Y-3.3488
X2.35Y-1.6652
X2.35Y-1.7652
X2.35Y-1.8652
X2.35Y-1.9652
X2.35Y-2.0652
X2.35Y-2.1652
X2.35Y-2.2652
X2.35Y-2.3652
X2.35Y-2.4652
X2.35Y-2.5652
X2.35Y-2.6652
X2.35Y-2.7652
X2.35Y-2.8652
X2.35Y-2.9652
X2.35Y-3.0652
X2.35Y-3.1652
X2.35Y-3.2652
X2.35Y-3.3652
X2.35Y-3.4652
X2.35Y-3.5652
X2.723Y-2.8396
X2.823Y-2.8396
X2.923Y-2.8396
X3.05Y-1.6652
X3.05Y-1.7652
X3.05Y-1.8652
X3.05Y-1.9652
X3.05Y-2.0652
X3.05Y-2.1652
X3.05Y-2.2652
X3.05Y-2.3652
X3.05Y-2.4652
X3.05Y-2.5652
X3.05Y-2.6652
X3.05Y-2.7652
X3.05Y-2.8652
X3.05Y-2.9652
X3.05Y-3.0652
X3.05Y-3.1652
X3.05Y-3.2652
X3.05Y-3.3652
X3.05Y-3.4652
X3.05Y-3.5652
T0
M30
