%TF.GenerationSoftware,KiCad,Pcbnew,7.0.2*%
%TF.CreationDate,2023-04-28T15:55:32+02:00*%
%TF.ProjectId,picow_adapter,7069636f-775f-4616-9461-707465722e6b,rev?*%
%TF.SameCoordinates,Original*%
%TF.FileFunction,Profile,NP*%
%FSLAX46Y46*%
G04 Gerber Fmt 4.6, Leading zero omitted, Abs format (unit mm)*
G04 Created by KiCad (PCBNEW 7.0.2) date 2023-04-28 15:55:32*
%MOMM*%
%LPD*%
G01*
G04 APERTURE LIST*
%TA.AperFunction,Profile*%
%ADD10C,0.100000*%
%TD*%
G04 APERTURE END LIST*
D10*
X57150000Y-40640000D02*
G75*
G03*
X55880000Y-41910000I0J-1270000D01*
G01*
X46990000Y-91440000D02*
X46990000Y-87630000D01*
X55880000Y-92710000D02*
X61080000Y-92710000D01*
X76080000Y-91925000D02*
X76080000Y-92710000D01*
X55880000Y-41910000D02*
X55880000Y-46990000D01*
X46990000Y-91440000D02*
G75*
G03*
X48260000Y-92710000I1270000J0D01*
G01*
X54610000Y-48260000D02*
X48260000Y-48260000D01*
X46990000Y-59690000D02*
X46990000Y-87630000D01*
X81280000Y-41910000D02*
G75*
G03*
X80010000Y-40640000I-1270000J0D01*
G01*
X81280000Y-91440000D02*
X81280000Y-41910000D01*
X46990000Y-49530000D02*
X46990000Y-59690000D01*
X76080000Y-92710000D02*
X80010000Y-92710000D01*
X80010000Y-40640000D02*
X57150000Y-40640000D01*
X61080000Y-91925000D02*
X61080000Y-92710000D01*
X54610000Y-48260000D02*
G75*
G03*
X55880000Y-46990000I0J1270000D01*
G01*
X80010000Y-92710000D02*
G75*
G03*
X81280000Y-91440000I0J1270000D01*
G01*
X48260000Y-92710000D02*
X55880000Y-92710000D01*
X48260000Y-48260000D02*
G75*
G03*
X46990000Y-49530000I0J-1270000D01*
G01*
%TO.C,A1*%
X61580000Y-91425000D02*
X61580000Y-84025000D01*
X62080000Y-83525000D02*
X75080000Y-83525000D01*
X75580000Y-84025000D02*
X75580000Y-91425000D01*
X62080000Y-83525000D02*
G75*
G03*
X61580000Y-84025000I0J-500000D01*
G01*
X61080000Y-91925000D02*
G75*
G03*
X61580000Y-91425000I0J500000D01*
G01*
X75580000Y-84025000D02*
G75*
G03*
X75080000Y-83525000I-500000J0D01*
G01*
X75580000Y-91425000D02*
G75*
G03*
X76080000Y-91925000I500000J0D01*
G01*
%TD*%
M02*
