G04 DipTrace 2.4.0.2*
%INsensorclock.GBL*%
%MOMM*%
%ADD13C,0.2*%
%ADD14C,0.3*%
%ADD15C,0.5*%
%ADD16C,1.0*%
%ADD18C,0.35*%
%ADD19C,0.4*%
%ADD20R,1.5X1.5*%
%ADD21C,1.5*%
%ADD31C,1.6*%
%ADD36C,1.8*%
%ADD37O,2.6X3.0*%
%ADD45C,2.0*%
%FSLAX53Y53*%
G04*
G71*
G90*
G75*
G01*
%LNBottom*%
%LPD*%
X352050Y77749D2*
D16*
X250079D1*
X239919D1*
X117522D1*
X25650D1*
X236695Y41750D2*
D13*
X236718Y41727D1*
X204287D1*
X201770Y39210D1*
X200500D1*
X236695Y36670D2*
X231615D1*
X228440Y39845D1*
X204945D1*
X201770Y36670D1*
X200500D1*
X120490Y54450D2*
X201770D1*
X203040Y53180D1*
Y45560D1*
X201770Y44290D1*
X200500D1*
X226535Y25875D2*
X77310D1*
X226535Y43655D2*
X203675D1*
X201770Y41750D1*
X200500D1*
X297100Y12540D2*
X354900D1*
X355750Y13390D1*
Y16790D1*
X356600Y17640D1*
X359150D1*
X360000Y18490D1*
Y34640D1*
X298800Y13390D2*
X354050D1*
X354900Y14240D1*
Y17640D1*
X355750Y18490D1*
X358300D1*
X359150Y19340D1*
Y33790D1*
X358300Y34640D1*
X200500Y46830D2*
X199230Y45560D1*
X95090D1*
X197960Y46830D2*
X196690Y48100D1*
X112235D1*
X197960Y44290D2*
X196690Y43020D1*
X104495D1*
X56990Y65880D2*
X129320D1*
X178822D1*
X300830D1*
X56990D2*
X25240D1*
X21430Y62070D1*
X20160D1*
X18890D1*
X16350Y59530D1*
Y44290D1*
X18890Y41750D1*
X20160D1*
X56990Y63975D2*
X129410D1*
X178867D1*
X300830D1*
X56990D2*
X25875D1*
X21430Y59530D1*
X20160D1*
X18890D1*
X17620Y58260D1*
Y45560D1*
X18890Y44290D1*
X20160D1*
X129410Y63975D2*
D3*
X197960Y41750D2*
X196690Y40480D1*
X23335D1*
X22700Y39845D1*
X18255D1*
X15080Y43020D1*
Y65880D1*
X18890Y69690D1*
X20160D1*
X230980Y39845D2*
X252570D1*
X215105Y45560D2*
X206215D1*
D16*
X25650Y77749D3*
X352050D3*
X117522D3*
X239919D3*
X250079D3*
X236695Y41750D3*
Y36670D3*
X120490Y54450D3*
X226535Y25875D3*
X77310D3*
X226535Y43655D3*
X297100Y12540D3*
X360000Y34640D3*
X298800Y13390D3*
X358300Y34640D3*
X95090Y45560D3*
X112235Y48100D3*
X104495Y43020D3*
X56990Y65880D3*
X178822D3*
D3*
X300830D3*
D3*
X56990D3*
X129320D3*
D3*
X56990Y63975D3*
X178867D3*
D3*
X300830D3*
D3*
X56990D3*
X129410D3*
D3*
X230980Y39845D3*
X252570D3*
X215105Y45560D3*
X206215D3*
X23250Y89690D3*
X115050D3*
X237450D3*
X349650D3*
X23250Y88090D3*
X115050D3*
X237450D3*
X349650D3*
X23250Y86490D3*
X115050D3*
X237450D3*
X349650D3*
X40480Y86200D3*
X88740D3*
X164940D3*
X210660D3*
X284320D3*
X332580D3*
X13810Y77310D3*
X356075Y75405D3*
X63340Y72230D3*
X64610D3*
X65880D3*
X185260D3*
X186530D3*
X187800D3*
X307180D3*
X308450D3*
X309720D3*
X63340Y70960D3*
X64610D3*
X65880D3*
X185260D3*
X186530D3*
X187800D3*
X307180D3*
X308450D3*
X309720D3*
X63340Y69690D3*
X64610D3*
X65880D3*
X185260D3*
X186530D3*
X187800D3*
X307180D3*
X308450D3*
X309720D3*
X93185Y64927D3*
X157955D3*
X215105D3*
X279875D3*
X68420Y62070D3*
X186530D3*
X190340D3*
X312260D3*
X25875Y59530D3*
X52545D3*
X73500D3*
X97630D3*
X113505D3*
X174465D3*
X195540D3*
X253840Y60165D3*
X255110D3*
X256380D3*
X257650D3*
X258920D3*
X296385Y59530D3*
X58260Y55720D3*
X180815Y56990D3*
X253840D3*
X262730Y55720D3*
X302735Y56990D3*
X253840Y55720D3*
X262730Y54450D3*
X244950Y55085D3*
X251459Y51275D3*
X253840D3*
X255110D3*
X186530Y50640D3*
X251459Y50005D3*
X55720Y47465D3*
X60800D3*
X58895Y44290D3*
X356800Y39040D3*
X358400D3*
X360000D3*
X293845Y37940D3*
X295115D3*
X297655D3*
X298925D3*
X186530Y37305D3*
X258920D3*
X260190D3*
X262730D3*
X264000D3*
X266540D3*
X267810D3*
X270350D3*
X271620D3*
X243680Y36670D3*
X140810Y34765D3*
X142080D3*
X143350D3*
X144620D3*
X138905Y32860D3*
X146525D3*
X346550D3*
X347820D3*
X350360D3*
X352900D3*
X138905Y31590D3*
X146525D3*
X257015Y30320D3*
X265905D3*
X267175D3*
X345280Y31590D3*
X350360Y30320D3*
X351630Y32860D3*
X354170D3*
X138905Y30320D3*
X146525D3*
X260825D3*
X263365D3*
X264635D3*
X345280D3*
X350360Y29050D3*
X351630Y31590D3*
X355440Y32860D3*
X259555Y30320D3*
X262095D3*
X257015Y28415D3*
X345280Y29050D3*
X350360Y27780D3*
X351630Y30320D3*
X354170Y27780D3*
X140810Y28415D3*
X142080D3*
X143350D3*
X144620D3*
X346550Y27780D3*
X347820D3*
X351630D3*
X352900D3*
X307815Y25240D3*
X311625D3*
X316705D3*
X320515D3*
X13810Y26510D3*
X243680Y25875D3*
X309085Y25240D3*
X310355D3*
X317975D3*
X319245D3*
X302417Y22700D3*
X303688D3*
X304957D3*
X302417Y21430D3*
X303688D3*
X304957D3*
X302417Y20160D3*
X303688D3*
X304957D3*
X40480Y16350D3*
X88740D3*
X162400D3*
X210660D3*
X284320D3*
X23550Y15740D3*
X135750D3*
X257300D3*
X23550Y14140D3*
X135750D3*
X257300D3*
X23550Y12540D3*
X135750D3*
X257300D3*
X244950Y53815D3*
X63340Y25240D3*
X75405Y27145D3*
X54450Y56990D3*
X55720D3*
X58895D3*
X60800Y62070D3*
X55720Y50005D3*
Y48735D3*
X68420Y25875D3*
X95090Y27780D3*
X122395Y62070D3*
X68420Y30320D3*
X123665Y62070D3*
X122395Y56990D3*
X123665D3*
X119220D3*
X111600Y62070D3*
X114140Y56990D3*
X229075Y34130D3*
X109060Y27780D3*
X21430Y22065D3*
X183355Y46830D3*
X63657Y62070D3*
Y56990D3*
X183355Y62070D3*
Y50640D3*
X190340D3*
X183355Y37305D3*
X190657D3*
Y34130D3*
Y30637D3*
X186530Y46830D3*
X190340D3*
Y44290D3*
Y41750D3*
X186530D3*
Y44290D3*
X183355D3*
Y41750D3*
X277970Y32225D3*
X279240D3*
X280510D3*
X279875Y28415D3*
Y27145D3*
Y25875D3*
X288765Y32225D3*
Y30955D3*
Y29685D3*
Y28415D3*
X259555D3*
X258285D3*
X268445Y30320D3*
X269715D3*
X265905Y28415D3*
X267175D3*
X270985Y30320D3*
X272255D3*
X260825Y28415D3*
X262095D3*
X263365D3*
X264635D3*
X268445D3*
X269715D3*
X270985D3*
X272255D3*
X297020Y30320D3*
X298290D3*
Y28415D3*
X291940D3*
X294480D3*
X295750D3*
X299560Y30320D3*
X297020Y28415D3*
X291940Y32225D3*
X299560Y28415D3*
X290670Y32225D3*
Y28415D3*
X293210D3*
X262730Y56990D3*
X273525Y32225D3*
X274795D3*
X273525Y28415D3*
X274795D3*
X258285Y30320D3*
X253840Y58895D3*
X255110D3*
X256380D3*
X257650D3*
X258920D3*
X301147Y22700D3*
Y21430D3*
Y20160D3*
X296385Y37940D3*
X300195D3*
X292575D3*
X261460Y37305D3*
X265270D3*
X269080D3*
X272890D3*
X257650D3*
X345280Y32860D3*
Y27780D3*
X350360Y31590D3*
X349090Y27780D3*
X351630Y29050D3*
X349090Y32860D3*
X356710D3*
Y31590D3*
Y30320D3*
Y29050D3*
Y27780D3*
X355440D3*
X262730Y53180D3*
X244950Y52545D3*
Y56355D3*
X32980Y23673D2*
D13*
X340079D1*
X32980Y23477D2*
X340079D1*
X32980Y23280D2*
X340079D1*
X32980Y23083D2*
X340079D1*
X32980Y22887D2*
X340079D1*
X32980Y22690D2*
X340079D1*
X32980Y22493D2*
X34807D1*
X35994D2*
X37348D1*
X38532D2*
X39888D1*
X41072D2*
X42426D1*
X43613D2*
X44382D1*
X46738D2*
X83067D1*
X84253D2*
X85607D1*
X86794D2*
X88148D1*
X89332D2*
X90688D1*
X91872D2*
X92642D1*
X94997D2*
X156726D1*
X157913D2*
X159267D1*
X160453D2*
X161807D1*
X162994D2*
X164348D1*
X165532D2*
X166301D1*
X168657D2*
X204988D1*
X206172D2*
X207526D1*
X208713D2*
X210067D1*
X211253D2*
X212607D1*
X213794D2*
X214563D1*
X216919D2*
X278648D1*
X279832D2*
X281188D1*
X282372D2*
X283726D1*
X284913D2*
X286267D1*
X287453D2*
X288223D1*
X290578D2*
X326907D1*
X328094D2*
X329448D1*
X330632D2*
X331988D1*
X333172D2*
X334526D1*
X335713D2*
X336482D1*
X338838D2*
X340079D1*
X32980Y22297D2*
X34538D1*
X36260D2*
X37079D1*
X38800D2*
X39620D1*
X41341D2*
X42160D1*
X43882D2*
X44382D1*
X46738D2*
X82798D1*
X84522D2*
X85338D1*
X87060D2*
X87879D1*
X89600D2*
X90420D1*
X92141D2*
X92642D1*
X94997D2*
X156460D1*
X158182D2*
X158998D1*
X160722D2*
X161538D1*
X163260D2*
X164079D1*
X165800D2*
X166301D1*
X168657D2*
X204720D1*
X206441D2*
X207260D1*
X208982D2*
X209798D1*
X211522D2*
X212338D1*
X214060D2*
X214563D1*
X216919D2*
X278379D1*
X280100D2*
X280920D1*
X282641D2*
X283460D1*
X285182D2*
X285998D1*
X287722D2*
X288223D1*
X290578D2*
X326638D1*
X328360D2*
X329179D1*
X330900D2*
X331720D1*
X333441D2*
X334260D1*
X335982D2*
X336482D1*
X338838D2*
X340079D1*
X32980Y22100D2*
X34376D1*
X36425D2*
X36917D1*
X38966D2*
X39454D1*
X41503D2*
X41995D1*
X44044D2*
X44382D1*
X46738D2*
X82635D1*
X84685D2*
X85176D1*
X87225D2*
X87717D1*
X89766D2*
X90254D1*
X92303D2*
X92642D1*
X94997D2*
X156295D1*
X158344D2*
X158835D1*
X160885D2*
X161376D1*
X163425D2*
X163917D1*
X165966D2*
X166301D1*
X168657D2*
X204554D1*
X206603D2*
X207095D1*
X209144D2*
X209635D1*
X211685D2*
X212176D1*
X214225D2*
X214563D1*
X216919D2*
X278217D1*
X280266D2*
X280754D1*
X282803D2*
X283295D1*
X285344D2*
X285835D1*
X287885D2*
X288223D1*
X290578D2*
X326476D1*
X328525D2*
X329017D1*
X331066D2*
X331554D1*
X333603D2*
X334095D1*
X336144D2*
X336482D1*
X338838D2*
X340079D1*
X32980Y21903D2*
X34270D1*
X36532D2*
X36810D1*
X39072D2*
X39348D1*
X41610D2*
X41888D1*
X44150D2*
X44382D1*
X46738D2*
X82529D1*
X84791D2*
X85070D1*
X87332D2*
X87610D1*
X89872D2*
X90148D1*
X92410D2*
X92642D1*
X94997D2*
X156188D1*
X158450D2*
X158729D1*
X160991D2*
X161270D1*
X163532D2*
X163810D1*
X166072D2*
X166301D1*
X168657D2*
X204448D1*
X206710D2*
X206988D1*
X209250D2*
X209529D1*
X211791D2*
X212070D1*
X214332D2*
X214563D1*
X216919D2*
X278110D1*
X280372D2*
X280648D1*
X282910D2*
X283188D1*
X285450D2*
X285729D1*
X287991D2*
X288223D1*
X290578D2*
X326370D1*
X328632D2*
X328910D1*
X331172D2*
X331448D1*
X333710D2*
X333988D1*
X336250D2*
X336482D1*
X338838D2*
X340079D1*
X32980Y21707D2*
X34204D1*
X36594D2*
X36745D1*
X39135D2*
X39285D1*
X41675D2*
X41826D1*
X44216D2*
X44382D1*
X46738D2*
X82463D1*
X84857D2*
X85004D1*
X87394D2*
X87545D1*
X89935D2*
X90085D1*
X92475D2*
X92642D1*
X94997D2*
X156126D1*
X158516D2*
X158663D1*
X161057D2*
X161204D1*
X163594D2*
X163745D1*
X166135D2*
X166301D1*
X168657D2*
X204385D1*
X206775D2*
X206926D1*
X209316D2*
X209463D1*
X211857D2*
X212004D1*
X214394D2*
X214563D1*
X216919D2*
X278045D1*
X280435D2*
X280585D1*
X282975D2*
X283126D1*
X285516D2*
X285663D1*
X288057D2*
X288223D1*
X290578D2*
X326304D1*
X328694D2*
X328845D1*
X331235D2*
X331385D1*
X333775D2*
X333926D1*
X336316D2*
X336482D1*
X338838D2*
X340079D1*
X32980Y21510D2*
X34176D1*
X36625D2*
X36713D1*
X39166D2*
X39254D1*
X41707D2*
X41794D1*
X44244D2*
X44382D1*
X46738D2*
X82435D1*
X84885D2*
X84976D1*
X87425D2*
X87513D1*
X89966D2*
X90054D1*
X92507D2*
X92642D1*
X94997D2*
X156095D1*
X158544D2*
X158634D1*
X161085D2*
X161176D1*
X163625D2*
X163713D1*
X166166D2*
X166301D1*
X168657D2*
X204354D1*
X206807D2*
X206894D1*
X209344D2*
X209434D1*
X211885D2*
X211976D1*
X214425D2*
X214563D1*
X216919D2*
X278013D1*
X280466D2*
X280554D1*
X283007D2*
X283094D1*
X285544D2*
X285634D1*
X288085D2*
X288225D1*
X290578D2*
X326276D1*
X328725D2*
X328813D1*
X331266D2*
X331354D1*
X333807D2*
X333894D1*
X336344D2*
X336482D1*
X338838D2*
X340079D1*
X32980Y21313D2*
X34179D1*
X36622D2*
X36718D1*
X39163D2*
X39257D1*
X41703D2*
X41799D1*
X44241D2*
X44382D1*
X46738D2*
X82438D1*
X84882D2*
X84975D1*
X87422D2*
X87518D1*
X89963D2*
X90057D1*
X92503D2*
X92642D1*
X94997D2*
X156098D1*
X158541D2*
X158638D1*
X161082D2*
X161175D1*
X163622D2*
X163718D1*
X166163D2*
X166301D1*
X168657D2*
X204357D1*
X206803D2*
X206899D1*
X209341D2*
X209438D1*
X211882D2*
X211975D1*
X214422D2*
X214563D1*
X216919D2*
X278017D1*
X280463D2*
X280557D1*
X283003D2*
X283099D1*
X285541D2*
X285638D1*
X288082D2*
X288224D1*
X290578D2*
X326279D1*
X328722D2*
X328818D1*
X331263D2*
X331357D1*
X333803D2*
X333899D1*
X336341D2*
X336482D1*
X338838D2*
X340079D1*
X32980Y21117D2*
X34213D1*
X36588D2*
X36754D1*
X39125D2*
X39295D1*
X41666D2*
X41832D1*
X44207D2*
X44382D1*
X46738D2*
X82473D1*
X84847D2*
X85013D1*
X87388D2*
X87554D1*
X89925D2*
X90095D1*
X92466D2*
X92642D1*
X94997D2*
X156132D1*
X158507D2*
X158673D1*
X161047D2*
X161213D1*
X163588D2*
X163754D1*
X166125D2*
X166301D1*
X168657D2*
X204395D1*
X206766D2*
X206932D1*
X209307D2*
X209473D1*
X211847D2*
X212013D1*
X214388D2*
X214563D1*
X216919D2*
X278054D1*
X280425D2*
X280595D1*
X282966D2*
X283132D1*
X285507D2*
X285673D1*
X288047D2*
X288223D1*
X290578D2*
X326313D1*
X328688D2*
X328854D1*
X331225D2*
X331395D1*
X333766D2*
X333932D1*
X336307D2*
X336482D1*
X338838D2*
X340079D1*
X32980Y20920D2*
X34285D1*
X36516D2*
X36826D1*
X39053D2*
X39367D1*
X41594D2*
X41904D1*
X44135D2*
X44382D1*
X46738D2*
X82545D1*
X84775D2*
X85085D1*
X87316D2*
X87626D1*
X89853D2*
X90167D1*
X92394D2*
X92642D1*
X94997D2*
X156204D1*
X158435D2*
X158745D1*
X160975D2*
X161285D1*
X163516D2*
X163826D1*
X166053D2*
X166301D1*
X168657D2*
X204467D1*
X206694D2*
X207004D1*
X209235D2*
X209545D1*
X211775D2*
X212085D1*
X214316D2*
X214563D1*
X216919D2*
X278126D1*
X280353D2*
X280667D1*
X282894D2*
X283204D1*
X285435D2*
X285745D1*
X287975D2*
X288223D1*
X290578D2*
X326385D1*
X328616D2*
X328926D1*
X331153D2*
X331467D1*
X333694D2*
X334004D1*
X336235D2*
X336482D1*
X338838D2*
X340079D1*
X32980Y20723D2*
X34401D1*
X36400D2*
X36942D1*
X38938D2*
X39482D1*
X41478D2*
X42020D1*
X44019D2*
X44382D1*
X46738D2*
X82660D1*
X84660D2*
X85201D1*
X87200D2*
X87742D1*
X89738D2*
X90282D1*
X92278D2*
X92642D1*
X94997D2*
X156320D1*
X158319D2*
X158860D1*
X160860D2*
X161401D1*
X163400D2*
X163942D1*
X165938D2*
X166301D1*
X168657D2*
X204582D1*
X206578D2*
X207120D1*
X209119D2*
X209660D1*
X211660D2*
X212201D1*
X214200D2*
X214563D1*
X216919D2*
X278242D1*
X280238D2*
X280782D1*
X282778D2*
X283320D1*
X285319D2*
X285860D1*
X287860D2*
X288223D1*
X290578D2*
X326501D1*
X328500D2*
X329042D1*
X331038D2*
X331582D1*
X333578D2*
X334120D1*
X336119D2*
X336482D1*
X338838D2*
X340079D1*
X32980Y20527D2*
X34579D1*
X36222D2*
X37120D1*
X38763D2*
X39657D1*
X41300D2*
X42198D1*
X43841D2*
X44382D1*
X46738D2*
X82838D1*
X84482D2*
X85379D1*
X87022D2*
X87920D1*
X89563D2*
X90457D1*
X92100D2*
X92642D1*
X94997D2*
X156498D1*
X158141D2*
X159038D1*
X160682D2*
X161579D1*
X163222D2*
X164120D1*
X165763D2*
X166301D1*
X168657D2*
X204757D1*
X206400D2*
X207298D1*
X208941D2*
X209838D1*
X211482D2*
X212379D1*
X214022D2*
X214563D1*
X216919D2*
X278420D1*
X280063D2*
X280957D1*
X282600D2*
X283498D1*
X285141D2*
X286038D1*
X287682D2*
X288223D1*
X290578D2*
X326679D1*
X328322D2*
X329220D1*
X330863D2*
X331757D1*
X333400D2*
X334298D1*
X335941D2*
X336482D1*
X338838D2*
X340079D1*
X32980Y20330D2*
X34882D1*
X35919D2*
X37423D1*
X38460D2*
X39960D1*
X40997D2*
X42501D1*
X43538D2*
X44382D1*
X46738D2*
X83142D1*
X84178D2*
X85682D1*
X86719D2*
X88223D1*
X89260D2*
X90760D1*
X91797D2*
X92642D1*
X94997D2*
X156801D1*
X157838D2*
X159342D1*
X160378D2*
X161882D1*
X162919D2*
X164423D1*
X165460D2*
X166301D1*
X168657D2*
X205060D1*
X206097D2*
X207601D1*
X208638D2*
X210142D1*
X211178D2*
X212682D1*
X213719D2*
X214563D1*
X216919D2*
X278723D1*
X279760D2*
X281260D1*
X282297D2*
X283801D1*
X284838D2*
X286342D1*
X287378D2*
X288223D1*
X290578D2*
X326982D1*
X328019D2*
X329523D1*
X330560D2*
X332060D1*
X333097D2*
X334601D1*
X335638D2*
X336482D1*
X338838D2*
X340079D1*
X32980Y20133D2*
X340079D1*
X32980Y19937D2*
X340079D1*
X32980Y19740D2*
X340079D1*
X32980Y19543D2*
X340079D1*
X32980Y19347D2*
X340079D1*
X32980Y19150D2*
X340079D1*
X336522Y22588D2*
X338818D1*
Y20272D1*
X336502D1*
Y22588D1*
X336522D1*
X336324Y21330D2*
X336291Y21133D1*
X336226Y20944D1*
X336131Y20769D1*
X336008Y20611D1*
X335861Y20476D1*
X335693Y20367D1*
X335510Y20287D1*
X335317Y20238D1*
X335118Y20222D1*
X334918Y20239D1*
X334725Y20288D1*
X334542Y20369D1*
X334375Y20479D1*
X334229Y20615D1*
X334106Y20773D1*
X334012Y20949D1*
X333948Y21138D1*
X333916Y21335D1*
X333917Y21535D1*
X333950Y21732D1*
X334016Y21920D1*
X334112Y22096D1*
X334235Y22253D1*
X334383Y22387D1*
X334551Y22496D1*
X334734Y22575D1*
X334928Y22623D1*
X335127Y22638D1*
X335326Y22620D1*
X335520Y22570D1*
X335702Y22488D1*
X335869Y22378D1*
X336015Y22242D1*
X336136Y22083D1*
X336230Y21907D1*
X336293Y21717D1*
X336325Y21520D1*
X336324Y21330D1*
X333784D2*
X333751Y21133D1*
X333686Y20944D1*
X333591Y20769D1*
X333468Y20611D1*
X333321Y20476D1*
X333153Y20367D1*
X332970Y20287D1*
X332777Y20238D1*
X332578Y20222D1*
X332378Y20239D1*
X332185Y20288D1*
X332002Y20369D1*
X331835Y20479D1*
X331689Y20615D1*
X331566Y20773D1*
X331472Y20949D1*
X331408Y21138D1*
X331376Y21335D1*
X331377Y21535D1*
X331410Y21732D1*
X331476Y21920D1*
X331572Y22096D1*
X331695Y22253D1*
X331843Y22387D1*
X332011Y22496D1*
X332194Y22575D1*
X332388Y22623D1*
X332587Y22638D1*
X332786Y22620D1*
X332980Y22570D1*
X333162Y22488D1*
X333329Y22378D1*
X333475Y22242D1*
X333596Y22083D1*
X333690Y21907D1*
X333753Y21717D1*
X333785Y21520D1*
X333784Y21330D1*
X331244D2*
X331211Y21133D1*
X331146Y20944D1*
X331051Y20769D1*
X330928Y20611D1*
X330781Y20476D1*
X330613Y20367D1*
X330430Y20287D1*
X330237Y20238D1*
X330038Y20222D1*
X329838Y20239D1*
X329645Y20288D1*
X329462Y20369D1*
X329295Y20479D1*
X329149Y20615D1*
X329026Y20773D1*
X328932Y20949D1*
X328868Y21138D1*
X328836Y21335D1*
X328837Y21535D1*
X328870Y21732D1*
X328936Y21920D1*
X329032Y22096D1*
X329155Y22253D1*
X329303Y22387D1*
X329471Y22496D1*
X329654Y22575D1*
X329848Y22623D1*
X330047Y22638D1*
X330246Y22620D1*
X330440Y22570D1*
X330622Y22488D1*
X330789Y22378D1*
X330935Y22242D1*
X331056Y22083D1*
X331150Y21907D1*
X331213Y21717D1*
X331245Y21520D1*
X331244Y21330D1*
X328708Y21410D2*
X328695Y21251D1*
X328660Y21094D1*
X328606Y20944D1*
X328532Y20802D1*
X328440Y20672D1*
X328332Y20554D1*
X328209Y20452D1*
X328073Y20367D1*
X327928Y20300D1*
X327775Y20254D1*
X327617Y20228D1*
X327458Y20223D1*
X327298Y20239D1*
X327143Y20276D1*
X326994Y20333D1*
X326853Y20410D1*
X326724Y20504D1*
X326609Y20615D1*
X326509Y20739D1*
X326426Y20876D1*
X326363Y21023D1*
X326319Y21177D1*
X326296Y21335D1*
X326294Y21495D1*
X326313Y21654D1*
X326353Y21808D1*
X326413Y21957D1*
X326492Y22096D1*
X326589Y22223D1*
X326701Y22336D1*
X326828Y22434D1*
X326967Y22514D1*
X327114Y22575D1*
X327269Y22616D1*
X327427Y22636D1*
X327587Y22635D1*
X327746Y22613D1*
X327900Y22570D1*
X328047Y22507D1*
X328184Y22426D1*
X328310Y22326D1*
X328421Y22212D1*
X328516Y22083D1*
X328594Y21943D1*
X328652Y21794D1*
X328690Y21639D1*
X328707Y21480D1*
X328708Y21410D1*
X288262Y22588D2*
X290558D1*
Y20272D1*
X288242D1*
Y22588D1*
X288262D1*
X288064Y21330D2*
X288031Y21133D1*
X287966Y20944D1*
X287871Y20769D1*
X287748Y20611D1*
X287601Y20476D1*
X287433Y20367D1*
X287250Y20287D1*
X287057Y20238D1*
X286858Y20222D1*
X286658Y20239D1*
X286465Y20288D1*
X286282Y20369D1*
X286115Y20479D1*
X285969Y20615D1*
X285846Y20773D1*
X285752Y20949D1*
X285688Y21138D1*
X285656Y21335D1*
X285657Y21535D1*
X285690Y21732D1*
X285756Y21920D1*
X285852Y22096D1*
X285975Y22253D1*
X286123Y22387D1*
X286291Y22496D1*
X286474Y22575D1*
X286668Y22623D1*
X286867Y22638D1*
X287066Y22620D1*
X287260Y22570D1*
X287442Y22488D1*
X287609Y22378D1*
X287755Y22242D1*
X287876Y22083D1*
X287970Y21907D1*
X288033Y21717D1*
X288065Y21520D1*
X288064Y21330D1*
X285524D2*
X285491Y21133D1*
X285426Y20944D1*
X285331Y20769D1*
X285208Y20611D1*
X285061Y20476D1*
X284893Y20367D1*
X284710Y20287D1*
X284517Y20238D1*
X284318Y20222D1*
X284118Y20239D1*
X283925Y20288D1*
X283742Y20369D1*
X283575Y20479D1*
X283429Y20615D1*
X283306Y20773D1*
X283212Y20949D1*
X283148Y21138D1*
X283116Y21335D1*
X283117Y21535D1*
X283150Y21732D1*
X283216Y21920D1*
X283312Y22096D1*
X283435Y22253D1*
X283583Y22387D1*
X283751Y22496D1*
X283934Y22575D1*
X284128Y22623D1*
X284327Y22638D1*
X284526Y22620D1*
X284720Y22570D1*
X284902Y22488D1*
X285069Y22378D1*
X285215Y22242D1*
X285336Y22083D1*
X285430Y21907D1*
X285493Y21717D1*
X285525Y21520D1*
X285524Y21330D1*
X282984D2*
X282951Y21133D1*
X282886Y20944D1*
X282791Y20769D1*
X282668Y20611D1*
X282521Y20476D1*
X282353Y20367D1*
X282170Y20287D1*
X281977Y20238D1*
X281778Y20222D1*
X281578Y20239D1*
X281385Y20288D1*
X281202Y20369D1*
X281035Y20479D1*
X280889Y20615D1*
X280766Y20773D1*
X280672Y20949D1*
X280608Y21138D1*
X280576Y21335D1*
X280577Y21535D1*
X280610Y21732D1*
X280676Y21920D1*
X280772Y22096D1*
X280895Y22253D1*
X281043Y22387D1*
X281211Y22496D1*
X281394Y22575D1*
X281588Y22623D1*
X281787Y22638D1*
X281986Y22620D1*
X282180Y22570D1*
X282362Y22488D1*
X282529Y22378D1*
X282675Y22242D1*
X282796Y22083D1*
X282890Y21907D1*
X282953Y21717D1*
X282985Y21520D1*
X282984Y21330D1*
X280448Y21410D2*
X280435Y21251D1*
X280400Y21094D1*
X280346Y20944D1*
X280272Y20802D1*
X280180Y20672D1*
X280072Y20554D1*
X279949Y20452D1*
X279813Y20367D1*
X279668Y20300D1*
X279515Y20254D1*
X279357Y20228D1*
X279198Y20223D1*
X279038Y20239D1*
X278883Y20276D1*
X278734Y20333D1*
X278593Y20410D1*
X278464Y20504D1*
X278349Y20615D1*
X278249Y20739D1*
X278166Y20876D1*
X278103Y21023D1*
X278059Y21177D1*
X278036Y21335D1*
X278034Y21495D1*
X278053Y21654D1*
X278093Y21808D1*
X278153Y21957D1*
X278232Y22096D1*
X278329Y22223D1*
X278441Y22336D1*
X278568Y22434D1*
X278707Y22514D1*
X278854Y22575D1*
X279009Y22616D1*
X279167Y22636D1*
X279327Y22635D1*
X279486Y22613D1*
X279640Y22570D1*
X279787Y22507D1*
X279924Y22426D1*
X280050Y22326D1*
X280161Y22212D1*
X280256Y22083D1*
X280334Y21943D1*
X280392Y21794D1*
X280430Y21639D1*
X280447Y21480D1*
X280448Y21410D1*
X214602Y22588D2*
X216898D1*
Y20272D1*
X214582D1*
Y22588D1*
X214602D1*
X214404Y21330D2*
X214371Y21133D1*
X214306Y20944D1*
X214211Y20769D1*
X214088Y20611D1*
X213941Y20476D1*
X213773Y20367D1*
X213590Y20287D1*
X213397Y20238D1*
X213198Y20222D1*
X212998Y20239D1*
X212805Y20288D1*
X212622Y20369D1*
X212455Y20479D1*
X212309Y20615D1*
X212186Y20773D1*
X212092Y20949D1*
X212028Y21138D1*
X211996Y21335D1*
X211997Y21535D1*
X212030Y21732D1*
X212096Y21920D1*
X212192Y22096D1*
X212315Y22253D1*
X212463Y22387D1*
X212631Y22496D1*
X212814Y22575D1*
X213008Y22623D1*
X213207Y22638D1*
X213406Y22620D1*
X213600Y22570D1*
X213782Y22488D1*
X213949Y22378D1*
X214095Y22242D1*
X214216Y22083D1*
X214310Y21907D1*
X214373Y21717D1*
X214405Y21520D1*
X214404Y21330D1*
X211864D2*
X211831Y21133D1*
X211766Y20944D1*
X211671Y20769D1*
X211548Y20611D1*
X211401Y20476D1*
X211233Y20367D1*
X211050Y20287D1*
X210857Y20238D1*
X210658Y20222D1*
X210458Y20239D1*
X210265Y20288D1*
X210082Y20369D1*
X209915Y20479D1*
X209769Y20615D1*
X209646Y20773D1*
X209552Y20949D1*
X209488Y21138D1*
X209456Y21335D1*
X209457Y21535D1*
X209490Y21732D1*
X209556Y21920D1*
X209652Y22096D1*
X209775Y22253D1*
X209923Y22387D1*
X210091Y22496D1*
X210274Y22575D1*
X210468Y22623D1*
X210667Y22638D1*
X210866Y22620D1*
X211060Y22570D1*
X211242Y22488D1*
X211409Y22378D1*
X211555Y22242D1*
X211676Y22083D1*
X211770Y21907D1*
X211833Y21717D1*
X211865Y21520D1*
X211864Y21330D1*
X209324D2*
X209291Y21133D1*
X209226Y20944D1*
X209131Y20769D1*
X209008Y20611D1*
X208861Y20476D1*
X208693Y20367D1*
X208510Y20287D1*
X208317Y20238D1*
X208118Y20222D1*
X207918Y20239D1*
X207725Y20288D1*
X207542Y20369D1*
X207375Y20479D1*
X207229Y20615D1*
X207106Y20773D1*
X207012Y20949D1*
X206948Y21138D1*
X206916Y21335D1*
X206917Y21535D1*
X206950Y21732D1*
X207016Y21920D1*
X207112Y22096D1*
X207235Y22253D1*
X207383Y22387D1*
X207551Y22496D1*
X207734Y22575D1*
X207928Y22623D1*
X208127Y22638D1*
X208326Y22620D1*
X208520Y22570D1*
X208702Y22488D1*
X208869Y22378D1*
X209015Y22242D1*
X209136Y22083D1*
X209230Y21907D1*
X209293Y21717D1*
X209325Y21520D1*
X209324Y21330D1*
X206788Y21410D2*
X206775Y21251D1*
X206740Y21094D1*
X206686Y20944D1*
X206612Y20802D1*
X206520Y20672D1*
X206412Y20554D1*
X206289Y20452D1*
X206153Y20367D1*
X206008Y20300D1*
X205855Y20254D1*
X205697Y20228D1*
X205538Y20223D1*
X205378Y20239D1*
X205223Y20276D1*
X205074Y20333D1*
X204933Y20410D1*
X204804Y20504D1*
X204689Y20615D1*
X204589Y20739D1*
X204506Y20876D1*
X204443Y21023D1*
X204399Y21177D1*
X204376Y21335D1*
X204374Y21495D1*
X204393Y21654D1*
X204433Y21808D1*
X204493Y21957D1*
X204572Y22096D1*
X204669Y22223D1*
X204781Y22336D1*
X204908Y22434D1*
X205047Y22514D1*
X205194Y22575D1*
X205349Y22616D1*
X205507Y22636D1*
X205667Y22635D1*
X205826Y22613D1*
X205980Y22570D1*
X206127Y22507D1*
X206264Y22426D1*
X206390Y22326D1*
X206501Y22212D1*
X206596Y22083D1*
X206674Y21943D1*
X206732Y21794D1*
X206770Y21639D1*
X206787Y21480D1*
X206788Y21410D1*
X166342Y22588D2*
X168638D1*
Y20272D1*
X166322D1*
Y22588D1*
X166342D1*
X166144Y21330D2*
X166111Y21133D1*
X166046Y20944D1*
X165951Y20769D1*
X165828Y20611D1*
X165681Y20476D1*
X165513Y20367D1*
X165330Y20287D1*
X165137Y20238D1*
X164938Y20222D1*
X164738Y20239D1*
X164545Y20288D1*
X164362Y20369D1*
X164195Y20479D1*
X164049Y20615D1*
X163926Y20773D1*
X163832Y20949D1*
X163768Y21138D1*
X163736Y21335D1*
X163737Y21535D1*
X163770Y21732D1*
X163836Y21920D1*
X163932Y22096D1*
X164055Y22253D1*
X164203Y22387D1*
X164371Y22496D1*
X164554Y22575D1*
X164748Y22623D1*
X164947Y22638D1*
X165146Y22620D1*
X165340Y22570D1*
X165522Y22488D1*
X165689Y22378D1*
X165835Y22242D1*
X165956Y22083D1*
X166050Y21907D1*
X166113Y21717D1*
X166145Y21520D1*
X166144Y21330D1*
X163604D2*
X163571Y21133D1*
X163506Y20944D1*
X163411Y20769D1*
X163288Y20611D1*
X163141Y20476D1*
X162973Y20367D1*
X162790Y20287D1*
X162597Y20238D1*
X162398Y20222D1*
X162198Y20239D1*
X162005Y20288D1*
X161822Y20369D1*
X161655Y20479D1*
X161509Y20615D1*
X161386Y20773D1*
X161292Y20949D1*
X161228Y21138D1*
X161196Y21335D1*
X161197Y21535D1*
X161230Y21732D1*
X161296Y21920D1*
X161392Y22096D1*
X161515Y22253D1*
X161663Y22387D1*
X161831Y22496D1*
X162014Y22575D1*
X162208Y22623D1*
X162407Y22638D1*
X162606Y22620D1*
X162800Y22570D1*
X162982Y22488D1*
X163149Y22378D1*
X163295Y22242D1*
X163416Y22083D1*
X163510Y21907D1*
X163573Y21717D1*
X163605Y21520D1*
X163604Y21330D1*
X161064D2*
X161031Y21133D1*
X160966Y20944D1*
X160871Y20769D1*
X160748Y20611D1*
X160601Y20476D1*
X160433Y20367D1*
X160250Y20287D1*
X160057Y20238D1*
X159858Y20222D1*
X159658Y20239D1*
X159465Y20288D1*
X159282Y20369D1*
X159115Y20479D1*
X158969Y20615D1*
X158846Y20773D1*
X158752Y20949D1*
X158688Y21138D1*
X158656Y21335D1*
X158657Y21535D1*
X158690Y21732D1*
X158756Y21920D1*
X158852Y22096D1*
X158975Y22253D1*
X159123Y22387D1*
X159291Y22496D1*
X159474Y22575D1*
X159668Y22623D1*
X159867Y22638D1*
X160066Y22620D1*
X160260Y22570D1*
X160442Y22488D1*
X160609Y22378D1*
X160755Y22242D1*
X160876Y22083D1*
X160970Y21907D1*
X161033Y21717D1*
X161065Y21520D1*
X161064Y21330D1*
X158528Y21410D2*
X158515Y21251D1*
X158480Y21094D1*
X158426Y20944D1*
X158352Y20802D1*
X158260Y20672D1*
X158152Y20554D1*
X158029Y20452D1*
X157893Y20367D1*
X157748Y20300D1*
X157595Y20254D1*
X157437Y20228D1*
X157278Y20223D1*
X157118Y20239D1*
X156963Y20276D1*
X156814Y20333D1*
X156673Y20410D1*
X156544Y20504D1*
X156429Y20615D1*
X156329Y20739D1*
X156246Y20876D1*
X156183Y21023D1*
X156139Y21177D1*
X156116Y21335D1*
X156114Y21495D1*
X156133Y21654D1*
X156173Y21808D1*
X156233Y21957D1*
X156312Y22096D1*
X156409Y22223D1*
X156521Y22336D1*
X156648Y22434D1*
X156787Y22514D1*
X156934Y22575D1*
X157089Y22616D1*
X157247Y22636D1*
X157407Y22635D1*
X157566Y22613D1*
X157720Y22570D1*
X157867Y22507D1*
X158004Y22426D1*
X158130Y22326D1*
X158241Y22212D1*
X158336Y22083D1*
X158414Y21943D1*
X158472Y21794D1*
X158510Y21639D1*
X158527Y21480D1*
X158528Y21410D1*
X92682Y22588D2*
X94978D1*
Y20272D1*
X92662D1*
Y22588D1*
X92682D1*
X92484Y21330D2*
X92451Y21133D1*
X92386Y20944D1*
X92291Y20769D1*
X92168Y20611D1*
X92021Y20476D1*
X91853Y20367D1*
X91670Y20287D1*
X91477Y20238D1*
X91278Y20222D1*
X91078Y20239D1*
X90885Y20288D1*
X90702Y20369D1*
X90535Y20479D1*
X90389Y20615D1*
X90266Y20773D1*
X90172Y20949D1*
X90108Y21138D1*
X90076Y21335D1*
X90077Y21535D1*
X90110Y21732D1*
X90176Y21920D1*
X90272Y22096D1*
X90395Y22253D1*
X90543Y22387D1*
X90711Y22496D1*
X90894Y22575D1*
X91088Y22623D1*
X91287Y22638D1*
X91486Y22620D1*
X91680Y22570D1*
X91862Y22488D1*
X92029Y22378D1*
X92175Y22242D1*
X92296Y22083D1*
X92390Y21907D1*
X92453Y21717D1*
X92485Y21520D1*
X92484Y21330D1*
X89944D2*
X89911Y21133D1*
X89846Y20944D1*
X89751Y20769D1*
X89628Y20611D1*
X89481Y20476D1*
X89313Y20367D1*
X89130Y20287D1*
X88937Y20238D1*
X88738Y20222D1*
X88538Y20239D1*
X88345Y20288D1*
X88162Y20369D1*
X87995Y20479D1*
X87849Y20615D1*
X87726Y20773D1*
X87632Y20949D1*
X87568Y21138D1*
X87536Y21335D1*
X87537Y21535D1*
X87570Y21732D1*
X87636Y21920D1*
X87732Y22096D1*
X87855Y22253D1*
X88003Y22387D1*
X88171Y22496D1*
X88354Y22575D1*
X88548Y22623D1*
X88747Y22638D1*
X88946Y22620D1*
X89140Y22570D1*
X89322Y22488D1*
X89489Y22378D1*
X89635Y22242D1*
X89756Y22083D1*
X89850Y21907D1*
X89913Y21717D1*
X89945Y21520D1*
X89944Y21330D1*
X87404D2*
X87371Y21133D1*
X87306Y20944D1*
X87211Y20769D1*
X87088Y20611D1*
X86941Y20476D1*
X86773Y20367D1*
X86590Y20287D1*
X86397Y20238D1*
X86198Y20222D1*
X85998Y20239D1*
X85805Y20288D1*
X85622Y20369D1*
X85455Y20479D1*
X85309Y20615D1*
X85186Y20773D1*
X85092Y20949D1*
X85028Y21138D1*
X84996Y21335D1*
X84997Y21535D1*
X85030Y21732D1*
X85096Y21920D1*
X85192Y22096D1*
X85315Y22253D1*
X85463Y22387D1*
X85631Y22496D1*
X85814Y22575D1*
X86008Y22623D1*
X86207Y22638D1*
X86406Y22620D1*
X86600Y22570D1*
X86782Y22488D1*
X86949Y22378D1*
X87095Y22242D1*
X87216Y22083D1*
X87310Y21907D1*
X87373Y21717D1*
X87405Y21520D1*
X87404Y21330D1*
X84868Y21410D2*
X84855Y21251D1*
X84820Y21094D1*
X84766Y20944D1*
X84692Y20802D1*
X84600Y20672D1*
X84492Y20554D1*
X84369Y20452D1*
X84233Y20367D1*
X84088Y20300D1*
X83935Y20254D1*
X83777Y20228D1*
X83618Y20223D1*
X83458Y20239D1*
X83303Y20276D1*
X83154Y20333D1*
X83013Y20410D1*
X82884Y20504D1*
X82769Y20615D1*
X82669Y20739D1*
X82586Y20876D1*
X82523Y21023D1*
X82479Y21177D1*
X82456Y21335D1*
X82454Y21495D1*
X82473Y21654D1*
X82513Y21808D1*
X82573Y21957D1*
X82652Y22096D1*
X82749Y22223D1*
X82861Y22336D1*
X82988Y22434D1*
X83127Y22514D1*
X83274Y22575D1*
X83429Y22616D1*
X83587Y22636D1*
X83747Y22635D1*
X83906Y22613D1*
X84060Y22570D1*
X84207Y22507D1*
X84344Y22426D1*
X84470Y22326D1*
X84581Y22212D1*
X84676Y22083D1*
X84754Y21943D1*
X84812Y21794D1*
X84850Y21639D1*
X84867Y21480D1*
X84868Y21410D1*
X44422Y22588D2*
X46718D1*
Y20272D1*
X44402D1*
Y22588D1*
X44422D1*
X44224Y21330D2*
X44191Y21133D1*
X44126Y20944D1*
X44031Y20769D1*
X43908Y20611D1*
X43761Y20476D1*
X43593Y20367D1*
X43410Y20287D1*
X43217Y20238D1*
X43018Y20222D1*
X42818Y20239D1*
X42625Y20288D1*
X42442Y20369D1*
X42275Y20479D1*
X42129Y20615D1*
X42006Y20773D1*
X41912Y20949D1*
X41848Y21138D1*
X41816Y21335D1*
X41817Y21535D1*
X41850Y21732D1*
X41916Y21920D1*
X42012Y22096D1*
X42135Y22253D1*
X42283Y22387D1*
X42451Y22496D1*
X42634Y22575D1*
X42828Y22623D1*
X43027Y22638D1*
X43226Y22620D1*
X43420Y22570D1*
X43602Y22488D1*
X43769Y22378D1*
X43915Y22242D1*
X44036Y22083D1*
X44130Y21907D1*
X44193Y21717D1*
X44225Y21520D1*
X44224Y21330D1*
X41684D2*
X41651Y21133D1*
X41586Y20944D1*
X41491Y20769D1*
X41368Y20611D1*
X41221Y20476D1*
X41053Y20367D1*
X40870Y20287D1*
X40677Y20238D1*
X40478Y20222D1*
X40278Y20239D1*
X40085Y20288D1*
X39902Y20369D1*
X39735Y20479D1*
X39589Y20615D1*
X39466Y20773D1*
X39372Y20949D1*
X39308Y21138D1*
X39276Y21335D1*
X39277Y21535D1*
X39310Y21732D1*
X39376Y21920D1*
X39472Y22096D1*
X39595Y22253D1*
X39743Y22387D1*
X39911Y22496D1*
X40094Y22575D1*
X40288Y22623D1*
X40487Y22638D1*
X40686Y22620D1*
X40880Y22570D1*
X41062Y22488D1*
X41229Y22378D1*
X41375Y22242D1*
X41496Y22083D1*
X41590Y21907D1*
X41653Y21717D1*
X41685Y21520D1*
X41684Y21330D1*
X39144D2*
X39111Y21133D1*
X39046Y20944D1*
X38951Y20769D1*
X38828Y20611D1*
X38681Y20476D1*
X38513Y20367D1*
X38330Y20287D1*
X38137Y20238D1*
X37938Y20222D1*
X37738Y20239D1*
X37545Y20288D1*
X37362Y20369D1*
X37195Y20479D1*
X37049Y20615D1*
X36926Y20773D1*
X36832Y20949D1*
X36768Y21138D1*
X36736Y21335D1*
X36737Y21535D1*
X36770Y21732D1*
X36836Y21920D1*
X36932Y22096D1*
X37055Y22253D1*
X37203Y22387D1*
X37371Y22496D1*
X37554Y22575D1*
X37748Y22623D1*
X37947Y22638D1*
X38146Y22620D1*
X38340Y22570D1*
X38522Y22488D1*
X38689Y22378D1*
X38835Y22242D1*
X38956Y22083D1*
X39050Y21907D1*
X39113Y21717D1*
X39145Y21520D1*
X39144Y21330D1*
X36608Y21410D2*
X36595Y21251D1*
X36560Y21094D1*
X36506Y20944D1*
X36432Y20802D1*
X36340Y20672D1*
X36232Y20554D1*
X36109Y20452D1*
X35973Y20367D1*
X35828Y20300D1*
X35675Y20254D1*
X35517Y20228D1*
X35358Y20223D1*
X35198Y20239D1*
X35043Y20276D1*
X34894Y20333D1*
X34753Y20410D1*
X34624Y20504D1*
X34509Y20615D1*
X34409Y20739D1*
X34326Y20876D1*
X34263Y21023D1*
X34219Y21177D1*
X34196Y21335D1*
X34194Y21495D1*
X34213Y21654D1*
X34253Y21808D1*
X34313Y21957D1*
X34392Y22096D1*
X34489Y22223D1*
X34601Y22336D1*
X34728Y22434D1*
X34867Y22514D1*
X35014Y22575D1*
X35169Y22616D1*
X35327Y22636D1*
X35487Y22635D1*
X35646Y22613D1*
X35800Y22570D1*
X35947Y22507D1*
X36084Y22426D1*
X36210Y22326D1*
X36321Y22212D1*
X36416Y22083D1*
X36494Y21943D1*
X36552Y21794D1*
X36590Y21639D1*
X36607Y21480D1*
X36608Y21410D1*
X33060Y18990D2*
X340100D1*
Y23870D1*
X32960D1*
Y18990D1*
X33060D1*
X336502Y22588D2*
D18*
X338818Y20272D1*
Y22588D2*
X336502Y20272D1*
X326646Y22284D2*
X328354Y20576D1*
Y22284D2*
X326646Y20576D1*
X288242Y22588D2*
X290558Y20272D1*
Y22588D2*
X288242Y20272D1*
X278386Y22284D2*
X280094Y20576D1*
Y22284D2*
X278386Y20576D1*
X214582Y22588D2*
X216898Y20272D1*
Y22588D2*
X214582Y20272D1*
X204726Y22284D2*
X206434Y20576D1*
Y22284D2*
X204726Y20576D1*
X166322Y22588D2*
X168638Y20272D1*
Y22588D2*
X166322Y20272D1*
X156466Y22284D2*
X158174Y20576D1*
Y22284D2*
X156466Y20576D1*
X92662Y22588D2*
X94978Y20272D1*
Y22588D2*
X92662Y20272D1*
X82806Y22284D2*
X84514Y20576D1*
Y22284D2*
X82806Y20576D1*
X44402Y22588D2*
X46718Y20272D1*
Y22588D2*
X44402Y20272D1*
X34546Y22284D2*
X36254Y20576D1*
Y22284D2*
X34546Y20576D1*
X16117Y90983D2*
D13*
X123264D1*
X127876D2*
X245183D1*
X249795D2*
X356945D1*
X16295Y90787D2*
X123086D1*
X128054D2*
X245005D1*
X249973D2*
X356767D1*
X16445Y90590D2*
X122936D1*
X128204D2*
X244855D1*
X250126D2*
X356614D1*
X16573Y90393D2*
X122808D1*
X128332D2*
X244727D1*
X250254D2*
X356486D1*
X16682Y90197D2*
X122698D1*
X128442D2*
X244617D1*
X250363D2*
X356377D1*
X16776Y90000D2*
X122605D1*
X128535D2*
X244527D1*
X250454D2*
X356286D1*
X16851Y89803D2*
X122530D1*
X128610D2*
X244448D1*
X250532D2*
X356208D1*
X16913Y89607D2*
X122467D1*
X128673D2*
X244386D1*
X250595D2*
X356145D1*
X16963Y89410D2*
X122417D1*
X128723D2*
X244339D1*
X250642D2*
X356098D1*
X16998Y89213D2*
X122383D1*
X128757D2*
X244302D1*
X250679D2*
X356061D1*
X17020Y89017D2*
X122358D1*
X128782D2*
X244280D1*
X250701D2*
X356039D1*
X17032Y88820D2*
X122348D1*
X128792D2*
X244267D1*
X250713D2*
X356027D1*
X17032Y88623D2*
X122348D1*
X128792D2*
X244270D1*
X250710D2*
X356030D1*
X17017Y88427D2*
X122361D1*
X128779D2*
X244283D1*
X250698D2*
X356042D1*
X16992Y88230D2*
X122389D1*
X128751D2*
X244308D1*
X250673D2*
X356067D1*
X16954Y88033D2*
X122427D1*
X128713D2*
X244345D1*
X250635D2*
X356105D1*
X16904Y87837D2*
X122477D1*
X128663D2*
X218023D1*
X218957D2*
X244398D1*
X250582D2*
X276023D1*
X276957D2*
X356158D1*
X16838Y87640D2*
X122542D1*
X128598D2*
X217283D1*
X219698D2*
X244461D1*
X250520D2*
X275283D1*
X277698D2*
X356220D1*
X16760Y87443D2*
X122620D1*
X128520D2*
X216877D1*
X220104D2*
X244542D1*
X250438D2*
X274877D1*
X278104D2*
X356302D1*
X16663Y87247D2*
X122717D1*
X128423D2*
X216573D1*
X220407D2*
X244636D1*
X250345D2*
X274573D1*
X278407D2*
X356395D1*
X16551Y87050D2*
X122830D1*
X128310D2*
X216333D1*
X220648D2*
X244748D1*
X250232D2*
X274333D1*
X278648D2*
X356508D1*
X16420Y86853D2*
X122961D1*
X128179D2*
X216130D1*
X220848D2*
X244883D1*
X250098D2*
X274130D1*
X278848D2*
X356642D1*
X16263Y86657D2*
X123117D1*
X128023D2*
X215961D1*
X221020D2*
X245036D1*
X249942D2*
X273961D1*
X279020D2*
X356798D1*
X11390Y86460D2*
X11539D1*
X16079D2*
X123302D1*
X127838D2*
X215817D1*
X221163D2*
X245220D1*
X249760D2*
X273817D1*
X279163D2*
X356980D1*
X361520D2*
X361670D1*
X11390Y86263D2*
X11758D1*
X15860D2*
X123520D1*
X127620D2*
X215695D1*
X221285D2*
X245439D1*
X249542D2*
X273695D1*
X279285D2*
X357198D1*
X361301D2*
X361670D1*
X11390Y86067D2*
X12027D1*
X15595D2*
X123786D1*
X127354D2*
X215589D1*
X221392D2*
X245705D1*
X249273D2*
X273589D1*
X279392D2*
X357467D1*
X361035D2*
X361670D1*
X11390Y85870D2*
X12367D1*
X15251D2*
X124127D1*
X127013D2*
X215502D1*
X221479D2*
X246048D1*
X248932D2*
X273502D1*
X279479D2*
X357808D1*
X360692D2*
X361670D1*
X11390Y85673D2*
X12864D1*
X14754D2*
X124627D1*
X126513D2*
X215430D1*
X221551D2*
X246545D1*
X248435D2*
X273430D1*
X279551D2*
X358305D1*
X360195D2*
X361670D1*
X11390Y85477D2*
X215370D1*
X221607D2*
X273370D1*
X279607D2*
X361670D1*
X11390Y85280D2*
X215327D1*
X221654D2*
X273327D1*
X279654D2*
X361670D1*
X11390Y85083D2*
X215295D1*
X221685D2*
X273295D1*
X279685D2*
X361670D1*
X11390Y84887D2*
X215273D1*
X221704D2*
X273273D1*
X279704D2*
X361670D1*
X11390Y84690D2*
X215267D1*
X221713D2*
X273267D1*
X279713D2*
X361670D1*
X11390Y84493D2*
X215270D1*
X221707D2*
X273270D1*
X279707D2*
X361670D1*
X11390Y84297D2*
X215289D1*
X221692D2*
X273289D1*
X279692D2*
X361670D1*
X11390Y84100D2*
X215317D1*
X221663D2*
X273317D1*
X279663D2*
X361670D1*
X11390Y83903D2*
X215358D1*
X221620D2*
X273358D1*
X279620D2*
X361670D1*
X11390Y83707D2*
X215414D1*
X221567D2*
X273414D1*
X279567D2*
X361670D1*
X11390Y83510D2*
X215483D1*
X221498D2*
X273483D1*
X279498D2*
X361670D1*
X11390Y83313D2*
X215567D1*
X221413D2*
X273567D1*
X279413D2*
X361670D1*
X11390Y83117D2*
X215667D1*
X221313D2*
X273667D1*
X279313D2*
X361670D1*
X11390Y82920D2*
X215783D1*
X221195D2*
X273783D1*
X279195D2*
X361670D1*
X11390Y82723D2*
X34983D1*
X35817D2*
X37523D1*
X38357D2*
X40064D1*
X40898D2*
X42602D1*
X43438D2*
X45142D1*
X45976D2*
X83242D1*
X84076D2*
X85783D1*
X86617D2*
X88323D1*
X89157D2*
X90864D1*
X91698D2*
X93402D1*
X94238D2*
X156902D1*
X157738D2*
X159442D1*
X160276D2*
X161983D1*
X162817D2*
X164523D1*
X165357D2*
X167064D1*
X167898D2*
X205164D1*
X205998D2*
X207702D1*
X208538D2*
X210242D1*
X211076D2*
X212783D1*
X213617D2*
X215323D1*
X221057D2*
X273923D1*
X279657D2*
X281364D1*
X282198D2*
X283902D1*
X284738D2*
X286442D1*
X287276D2*
X288983D1*
X289817D2*
X327083D1*
X327917D2*
X329623D1*
X330457D2*
X332164D1*
X332998D2*
X334702D1*
X335538D2*
X337242D1*
X338076D2*
X361670D1*
X11390Y82527D2*
X34614D1*
X36188D2*
X37152D1*
X38726D2*
X39692D1*
X41267D2*
X42233D1*
X43807D2*
X44773D1*
X46348D2*
X82873D1*
X84448D2*
X85414D1*
X86988D2*
X87952D1*
X89526D2*
X90492D1*
X92067D2*
X93033D1*
X94607D2*
X156533D1*
X158107D2*
X159073D1*
X160648D2*
X161614D1*
X163188D2*
X164152D1*
X165726D2*
X166692D1*
X168267D2*
X204792D1*
X206367D2*
X207333D1*
X208907D2*
X209873D1*
X211448D2*
X212414D1*
X213988D2*
X214952D1*
X220895D2*
X274086D1*
X280026D2*
X280992D1*
X282567D2*
X283533D1*
X285107D2*
X286073D1*
X287648D2*
X288614D1*
X290188D2*
X326714D1*
X328288D2*
X329252D1*
X330826D2*
X331792D1*
X333367D2*
X334333D1*
X335907D2*
X336873D1*
X338448D2*
X361670D1*
X11390Y82330D2*
X34411D1*
X36392D2*
X36948D1*
X38929D2*
X39489D1*
X41470D2*
X42030D1*
X44010D2*
X44570D1*
X46551D2*
X82670D1*
X84651D2*
X85211D1*
X87192D2*
X87748D1*
X89729D2*
X90289D1*
X92270D2*
X92830D1*
X94810D2*
X156330D1*
X158310D2*
X158870D1*
X160851D2*
X161411D1*
X163392D2*
X163948D1*
X165929D2*
X166489D1*
X168470D2*
X204589D1*
X206570D2*
X207130D1*
X209110D2*
X209670D1*
X211651D2*
X212211D1*
X214192D2*
X214748D1*
X220701D2*
X274277D1*
X280229D2*
X280789D1*
X282770D2*
X283330D1*
X285310D2*
X285870D1*
X287851D2*
X288411D1*
X290392D2*
X326511D1*
X328492D2*
X329048D1*
X331029D2*
X331589D1*
X333570D2*
X334130D1*
X336110D2*
X336670D1*
X338651D2*
X361670D1*
X11390Y82133D2*
X34277D1*
X36523D2*
X36817D1*
X39063D2*
X39358D1*
X41604D2*
X41895D1*
X44145D2*
X44436D1*
X46682D2*
X82536D1*
X84782D2*
X85077D1*
X87323D2*
X87617D1*
X89863D2*
X90158D1*
X92404D2*
X92695D1*
X94945D2*
X156195D1*
X158445D2*
X158736D1*
X160982D2*
X161277D1*
X163523D2*
X163817D1*
X166063D2*
X166358D1*
X168604D2*
X204458D1*
X206704D2*
X206995D1*
X209245D2*
X209536D1*
X211782D2*
X212077D1*
X214323D2*
X214617D1*
X220473D2*
X274508D1*
X280363D2*
X280658D1*
X282904D2*
X283195D1*
X285445D2*
X285736D1*
X287982D2*
X288277D1*
X290523D2*
X326377D1*
X328623D2*
X328917D1*
X331163D2*
X331458D1*
X333704D2*
X333995D1*
X336245D2*
X336536D1*
X338782D2*
X361670D1*
X11390Y81937D2*
X34189D1*
X36610D2*
X36730D1*
X39151D2*
X39270D1*
X41692D2*
X41810D1*
X44229D2*
X44347D1*
X46770D2*
X82448D1*
X84870D2*
X84989D1*
X87410D2*
X87530D1*
X89951D2*
X90070D1*
X92492D2*
X92610D1*
X95029D2*
X156111D1*
X158529D2*
X158647D1*
X161070D2*
X161189D1*
X163610D2*
X163730D1*
X166151D2*
X166270D1*
X168692D2*
X204370D1*
X206792D2*
X206910D1*
X209329D2*
X209447D1*
X211870D2*
X211989D1*
X214410D2*
X214530D1*
X220188D2*
X274792D1*
X280451D2*
X280570D1*
X282992D2*
X283110D1*
X285529D2*
X285647D1*
X288070D2*
X288189D1*
X290610D2*
X326289D1*
X328710D2*
X328830D1*
X331251D2*
X331370D1*
X333792D2*
X333910D1*
X336329D2*
X336447D1*
X338870D2*
X361670D1*
X11390Y81740D2*
X34139D1*
X46820D2*
X82398D1*
X95079D2*
X156061D1*
X168742D2*
X204320D1*
X217001D2*
X217164D1*
X219817D2*
X275164D1*
X277817D2*
X277980D1*
X290660D2*
X326239D1*
X338920D2*
X361670D1*
X11390Y81543D2*
X34123D1*
X46838D2*
X82383D1*
X95098D2*
X156042D1*
X168757D2*
X204302D1*
X217017D2*
X217752D1*
X219226D2*
X275752D1*
X277226D2*
X277961D1*
X290679D2*
X326223D1*
X338938D2*
X361670D1*
X11390Y81347D2*
X34136D1*
X46823D2*
X82395D1*
X95085D2*
X156055D1*
X168745D2*
X204317D1*
X217004D2*
X277977D1*
X290663D2*
X326236D1*
X338923D2*
X361670D1*
X11390Y81150D2*
X34180D1*
X36620D2*
X36721D1*
X39160D2*
X39261D1*
X41698D2*
X41799D1*
X44238D2*
X44343D1*
X46779D2*
X82442D1*
X84879D2*
X84980D1*
X87420D2*
X87521D1*
X89960D2*
X90061D1*
X92498D2*
X92599D1*
X95038D2*
X156102D1*
X158538D2*
X158643D1*
X161079D2*
X161180D1*
X163620D2*
X163721D1*
X166160D2*
X166261D1*
X168698D2*
X204361D1*
X206798D2*
X206899D1*
X209338D2*
X209443D1*
X211879D2*
X211980D1*
X214420D2*
X214521D1*
X216960D2*
X278020D1*
X280460D2*
X280561D1*
X282998D2*
X283099D1*
X285538D2*
X285643D1*
X288079D2*
X288180D1*
X290620D2*
X326280D1*
X328720D2*
X328821D1*
X331260D2*
X331361D1*
X333798D2*
X333899D1*
X336338D2*
X336443D1*
X338879D2*
X361670D1*
X11390Y80953D2*
X34261D1*
X36538D2*
X36802D1*
X39079D2*
X39342D1*
X41617D2*
X41883D1*
X44157D2*
X44423D1*
X46698D2*
X82523D1*
X84798D2*
X85061D1*
X87338D2*
X87602D1*
X89879D2*
X90142D1*
X92417D2*
X92683D1*
X94957D2*
X156183D1*
X158457D2*
X158723D1*
X160998D2*
X161261D1*
X163538D2*
X163802D1*
X166079D2*
X166342D1*
X168617D2*
X204442D1*
X206717D2*
X206983D1*
X209257D2*
X209523D1*
X211798D2*
X212061D1*
X214338D2*
X214602D1*
X216879D2*
X278102D1*
X280379D2*
X280642D1*
X282917D2*
X283183D1*
X285457D2*
X285723D1*
X287998D2*
X288261D1*
X290538D2*
X326361D1*
X328638D2*
X328902D1*
X331179D2*
X331442D1*
X333717D2*
X333983D1*
X336257D2*
X336523D1*
X338798D2*
X361670D1*
X11390Y80757D2*
X34389D1*
X36410D2*
X36930D1*
X38951D2*
X39467D1*
X41492D2*
X42008D1*
X44032D2*
X44548D1*
X46573D2*
X82648D1*
X84673D2*
X85189D1*
X87210D2*
X87730D1*
X89751D2*
X90267D1*
X92292D2*
X92808D1*
X94832D2*
X156308D1*
X158332D2*
X158848D1*
X160873D2*
X161389D1*
X163410D2*
X163930D1*
X165951D2*
X166467D1*
X168492D2*
X204567D1*
X206592D2*
X207108D1*
X209132D2*
X209648D1*
X211673D2*
X212189D1*
X214210D2*
X214730D1*
X216751D2*
X278230D1*
X280251D2*
X280767D1*
X282792D2*
X283308D1*
X285332D2*
X285848D1*
X287873D2*
X288389D1*
X290410D2*
X326489D1*
X328510D2*
X329030D1*
X331051D2*
X331567D1*
X333592D2*
X334108D1*
X336132D2*
X336648D1*
X338673D2*
X361670D1*
X11390Y80560D2*
X34580D1*
X36220D2*
X37120D1*
X38760D2*
X39661D1*
X41301D2*
X42198D1*
X43842D2*
X44739D1*
X46379D2*
X82839D1*
X84479D2*
X85380D1*
X87020D2*
X87920D1*
X89560D2*
X90461D1*
X92101D2*
X92998D1*
X94642D2*
X156498D1*
X158142D2*
X159039D1*
X160679D2*
X161580D1*
X163220D2*
X164120D1*
X165760D2*
X166661D1*
X168301D2*
X204761D1*
X206401D2*
X207298D1*
X208942D2*
X209839D1*
X211479D2*
X212380D1*
X214020D2*
X214920D1*
X216560D2*
X278420D1*
X280060D2*
X280961D1*
X282601D2*
X283498D1*
X285142D2*
X286039D1*
X287679D2*
X288580D1*
X290220D2*
X326680D1*
X328320D2*
X329220D1*
X330860D2*
X331761D1*
X333401D2*
X334298D1*
X335942D2*
X336839D1*
X338479D2*
X361670D1*
X11390Y80363D2*
X34911D1*
X35888D2*
X37452D1*
X38429D2*
X39989D1*
X40970D2*
X42530D1*
X43510D2*
X45070D1*
X46051D2*
X83170D1*
X84151D2*
X85711D1*
X86688D2*
X88252D1*
X89229D2*
X90789D1*
X91770D2*
X93330D1*
X94310D2*
X156830D1*
X157810D2*
X159370D1*
X160351D2*
X161911D1*
X162888D2*
X164452D1*
X165429D2*
X166989D1*
X167970D2*
X205089D1*
X206070D2*
X207630D1*
X208610D2*
X210170D1*
X211151D2*
X212711D1*
X213688D2*
X215252D1*
X216229D2*
X278752D1*
X279729D2*
X281289D1*
X282270D2*
X283830D1*
X284810D2*
X286370D1*
X287351D2*
X288911D1*
X289888D2*
X327011D1*
X327988D2*
X329552D1*
X330529D2*
X332089D1*
X333070D2*
X334630D1*
X335610D2*
X337170D1*
X338151D2*
X361670D1*
X11390Y80167D2*
X361670D1*
X11390Y79970D2*
X361670D1*
X11390Y79773D2*
X361670D1*
X11390Y79577D2*
X361670D1*
X11390Y79380D2*
X361670D1*
X11390Y79183D2*
X361670D1*
X11390Y78987D2*
X361670D1*
X11390Y78790D2*
X361670D1*
X11390Y78593D2*
X25177D1*
X352523D2*
X361670D1*
X11390Y78397D2*
X24923D1*
X352776D2*
X361670D1*
X11390Y78200D2*
X24786D1*
X352917D2*
X361670D1*
X11390Y78003D2*
X24708D1*
X352995D2*
X361670D1*
X11390Y77807D2*
X24673D1*
X353026D2*
X361670D1*
X11390Y77610D2*
X24683D1*
X353017D2*
X361670D1*
X11390Y77413D2*
X24733D1*
X352967D2*
X361670D1*
X11390Y77217D2*
X24833D1*
X352867D2*
X361670D1*
X11390Y77020D2*
X25011D1*
X352692D2*
X361670D1*
X11390Y76823D2*
X25386D1*
X352313D2*
X361670D1*
X11390Y76627D2*
X361670D1*
X11390Y76430D2*
X361670D1*
X11390Y76233D2*
X361670D1*
X11390Y76037D2*
X361670D1*
X11390Y75840D2*
X361670D1*
X11390Y75643D2*
X361670D1*
X11390Y75447D2*
X361670D1*
X11390Y75250D2*
X361670D1*
X11390Y75053D2*
X361670D1*
X11390Y74857D2*
X361670D1*
X11390Y74660D2*
X361670D1*
X11390Y74463D2*
X361670D1*
X11390Y74267D2*
X361670D1*
X11390Y74070D2*
X361670D1*
X11390Y73873D2*
X361670D1*
X11390Y73677D2*
X361670D1*
X11390Y73480D2*
X361670D1*
X11390Y73283D2*
X361670D1*
X11390Y73087D2*
X361670D1*
X11390Y72890D2*
X361670D1*
X11390Y72693D2*
X361670D1*
X11390Y72497D2*
X361670D1*
X11390Y72300D2*
X361670D1*
X11390Y72103D2*
X361670D1*
X11390Y71907D2*
X361670D1*
X11390Y71710D2*
X361670D1*
X11390Y71513D2*
X361670D1*
X11390Y71317D2*
X361670D1*
X11390Y71120D2*
X361670D1*
X11390Y70923D2*
X361670D1*
X11390Y70727D2*
X18933D1*
X21388D2*
X361670D1*
X11390Y70530D2*
X18933D1*
X21388D2*
X361670D1*
X11390Y70333D2*
X18933D1*
X21388D2*
X361670D1*
X11390Y70137D2*
X18536D1*
X21388D2*
X361670D1*
X11390Y69940D2*
X18333D1*
X21388D2*
X361670D1*
X11390Y69743D2*
X18136D1*
X21388D2*
X361670D1*
X11390Y69547D2*
X17939D1*
X21388D2*
X361670D1*
X11390Y69350D2*
X17742D1*
X21388D2*
X361670D1*
X11390Y69153D2*
X17545D1*
X21388D2*
X361670D1*
X11390Y68957D2*
X17348D1*
X21388D2*
X361670D1*
X11390Y68760D2*
X17152D1*
X18770D2*
X18933D1*
X21388D2*
X361670D1*
X11390Y68563D2*
X16955D1*
X18573D2*
X18933D1*
X21388D2*
X361670D1*
X11390Y68367D2*
X16758D1*
X18376D2*
X361670D1*
X11390Y68170D2*
X16561D1*
X18179D2*
X19492D1*
X20826D2*
X361670D1*
X11390Y67973D2*
X16364D1*
X17982D2*
X19258D1*
X21063D2*
X361670D1*
X11390Y67777D2*
X16167D1*
X17785D2*
X19108D1*
X21213D2*
X361670D1*
X11390Y67580D2*
X15970D1*
X17588D2*
X19011D1*
X21307D2*
X361670D1*
X11390Y67383D2*
X15773D1*
X17392D2*
X18955D1*
X21363D2*
X361670D1*
X11390Y67187D2*
X15577D1*
X17195D2*
X18933D1*
X21388D2*
X361670D1*
X11390Y66990D2*
X15383D1*
X16998D2*
X18942D1*
X21376D2*
X361670D1*
X11390Y66793D2*
X15186D1*
X16801D2*
X18986D1*
X21335D2*
X56683D1*
X57298D2*
X129011D1*
X129629D2*
X178514D1*
X179129D2*
X300523D1*
X301138D2*
X361670D1*
X11390Y66597D2*
X14989D1*
X16604D2*
X19067D1*
X21254D2*
X56336D1*
X57645D2*
X128664D1*
X129976D2*
X178167D1*
X179476D2*
X300173D1*
X301485D2*
X361670D1*
X11390Y66400D2*
X14792D1*
X16407D2*
X19192D1*
X21126D2*
X25017D1*
X301654D2*
X361670D1*
X11390Y66203D2*
X14605D1*
X16213D2*
X19389D1*
X20929D2*
X24755D1*
X301751D2*
X361670D1*
X11390Y66007D2*
X14517D1*
X16017D2*
X19752D1*
X20570D2*
X24558D1*
X301798D2*
X361670D1*
X11390Y65810D2*
X14502D1*
X15820D2*
X20005D1*
X20317D2*
X24361D1*
X301804D2*
X361670D1*
X11390Y65613D2*
X14502D1*
X15657D2*
X19467D1*
X20851D2*
X24164D1*
X301770D2*
X361670D1*
X11390Y65417D2*
X14502D1*
X15657D2*
X19242D1*
X21079D2*
X23967D1*
X301688D2*
X361670D1*
X11390Y65220D2*
X14502D1*
X15657D2*
X19098D1*
X21223D2*
X23770D1*
X25388D2*
X56277D1*
X57704D2*
X128605D1*
X130032D2*
X178108D1*
X179535D2*
X300117D1*
X301545D2*
X361670D1*
X11390Y65023D2*
X14502D1*
X15657D2*
X19005D1*
X21313D2*
X23573D1*
X25192D2*
X56542D1*
X57438D2*
X128870D1*
X129767D2*
X178373D1*
X179270D2*
X300383D1*
X301279D2*
X361670D1*
X11390Y64827D2*
X14502D1*
X15657D2*
X18952D1*
X21367D2*
X23377D1*
X24995D2*
X56533D1*
X57448D2*
X128952D1*
X129867D2*
X178408D1*
X179326D2*
X300373D1*
X301288D2*
X361670D1*
X11390Y64630D2*
X14502D1*
X15657D2*
X18933D1*
X21388D2*
X23183D1*
X24798D2*
X56270D1*
X57707D2*
X128692D1*
X130129D2*
X178148D1*
X179585D2*
X300111D1*
X301548D2*
X361670D1*
X11390Y64433D2*
X14502D1*
X15657D2*
X18945D1*
X21376D2*
X22986D1*
X24601D2*
X25536D1*
X301692D2*
X361670D1*
X11390Y64237D2*
X14502D1*
X15657D2*
X18992D1*
X21329D2*
X22789D1*
X24404D2*
X25327D1*
X301770D2*
X361670D1*
X11390Y64040D2*
X14502D1*
X15657D2*
X19077D1*
X21245D2*
X22592D1*
X24207D2*
X25133D1*
X301804D2*
X361670D1*
X11390Y63843D2*
X14502D1*
X15657D2*
X19208D1*
X21113D2*
X22395D1*
X24013D2*
X24936D1*
X301798D2*
X361670D1*
X11390Y63647D2*
X14502D1*
X15657D2*
X19411D1*
X20907D2*
X22198D1*
X23817D2*
X24739D1*
X301751D2*
X361670D1*
X11390Y63450D2*
X14502D1*
X15657D2*
X19805D1*
X20517D2*
X22002D1*
X23620D2*
X24542D1*
X301651D2*
X361670D1*
X11390Y63253D2*
X14502D1*
X15657D2*
X19898D1*
X20420D2*
X21805D1*
X23423D2*
X24345D1*
X25963D2*
X56339D1*
X57638D2*
X128761D1*
X130060D2*
X178217D1*
X179517D2*
X300180D1*
X301479D2*
X361670D1*
X11390Y63057D2*
X14502D1*
X15657D2*
X19442D1*
X20876D2*
X21608D1*
X23226D2*
X24148D1*
X25767D2*
X56698D1*
X57282D2*
X129117D1*
X129701D2*
X178577D1*
X179157D2*
X300539D1*
X301123D2*
X361670D1*
X11390Y62860D2*
X14502D1*
X15657D2*
X19227D1*
X21095D2*
X21411D1*
X23029D2*
X23952D1*
X25570D2*
X361670D1*
X11390Y62663D2*
X14502D1*
X15657D2*
X19089D1*
X22832D2*
X23755D1*
X25373D2*
X361670D1*
X11390Y62467D2*
X14502D1*
X15657D2*
X18477D1*
X22635D2*
X23558D1*
X25176D2*
X361670D1*
X11390Y62270D2*
X14502D1*
X15657D2*
X18283D1*
X22438D2*
X23361D1*
X24979D2*
X361670D1*
X11390Y62073D2*
X14502D1*
X15657D2*
X18086D1*
X22242D2*
X23164D1*
X24782D2*
X361670D1*
X11390Y61877D2*
X14502D1*
X15657D2*
X17889D1*
X22045D2*
X22967D1*
X24585D2*
X361670D1*
X11390Y61680D2*
X14502D1*
X15657D2*
X17692D1*
X21848D2*
X22770D1*
X24388D2*
X361670D1*
X11390Y61483D2*
X14502D1*
X15657D2*
X17495D1*
X21235D2*
X22573D1*
X24192D2*
X361670D1*
X11390Y61287D2*
X14502D1*
X15657D2*
X17298D1*
X18917D2*
X19220D1*
X21098D2*
X22377D1*
X23995D2*
X361670D1*
X11390Y61090D2*
X14502D1*
X15657D2*
X17102D1*
X18720D2*
X19433D1*
X20885D2*
X22183D1*
X23798D2*
X24230D1*
X298029D2*
X361670D1*
X11390Y60893D2*
X14502D1*
X15657D2*
X16905D1*
X18523D2*
X19867D1*
X20451D2*
X21986D1*
X23601D2*
X24136D1*
X298123D2*
X361670D1*
X11390Y60697D2*
X14502D1*
X15657D2*
X16708D1*
X18326D2*
X19827D1*
X20492D2*
X21789D1*
X23404D2*
X24127D1*
X298132D2*
X361670D1*
X11390Y60500D2*
X14502D1*
X15657D2*
X16511D1*
X18129D2*
X19420D1*
X20901D2*
X21592D1*
X23207D2*
X24127D1*
X298132D2*
X361670D1*
X11390Y60303D2*
X14502D1*
X15657D2*
X16314D1*
X17932D2*
X19211D1*
X21107D2*
X21395D1*
X23013D2*
X24127D1*
X298132D2*
X361670D1*
X11390Y60107D2*
X14502D1*
X15657D2*
X16117D1*
X17735D2*
X19080D1*
X22817D2*
X24127D1*
X298132D2*
X361670D1*
X11390Y59910D2*
X14502D1*
X15657D2*
X15920D1*
X17538D2*
X18461D1*
X22620D2*
X24127D1*
X298132D2*
X361670D1*
X11390Y59713D2*
X14502D1*
X15657D2*
X15805D1*
X17342D2*
X18264D1*
X22423D2*
X24127D1*
X298132D2*
X361670D1*
X11390Y59517D2*
X14502D1*
X15657D2*
X15773D1*
X17145D2*
X18067D1*
X22226D2*
X24127D1*
X298132D2*
X361670D1*
X11390Y59320D2*
X14502D1*
X15657D2*
X15773D1*
X16948D2*
X17870D1*
X22029D2*
X24127D1*
X298132D2*
X361670D1*
X11390Y59123D2*
X14502D1*
X15657D2*
X15773D1*
X16929D2*
X17673D1*
X21832D2*
X24127D1*
X298132D2*
X361670D1*
X11390Y58927D2*
X14502D1*
X15657D2*
X15773D1*
X16929D2*
X17477D1*
X21226D2*
X24127D1*
X298132D2*
X361670D1*
X11390Y58730D2*
X14502D1*
X15657D2*
X15773D1*
X16929D2*
X17283D1*
X18898D2*
X19236D1*
X21085D2*
X24127D1*
X298132D2*
X361670D1*
X11390Y58533D2*
X14502D1*
X15657D2*
X15773D1*
X16929D2*
X17114D1*
X18701D2*
X19458D1*
X20863D2*
X24127D1*
X298132D2*
X361670D1*
X11390Y58337D2*
X14502D1*
X15657D2*
X15773D1*
X16929D2*
X17047D1*
X18504D2*
X19955D1*
X20367D2*
X24127D1*
X298132D2*
X361670D1*
X11390Y58140D2*
X14502D1*
X15657D2*
X15773D1*
X16929D2*
X17042D1*
X18307D2*
X24142D1*
X298117D2*
X361670D1*
X11390Y57943D2*
X14502D1*
X15657D2*
X15773D1*
X16929D2*
X17042D1*
X18198D2*
X24255D1*
X298004D2*
X361670D1*
X11390Y57747D2*
X14502D1*
X15657D2*
X15773D1*
X16929D2*
X17042D1*
X18198D2*
X361670D1*
X11390Y57550D2*
X14502D1*
X15657D2*
X15773D1*
X16929D2*
X17042D1*
X18198D2*
X361670D1*
X11390Y57353D2*
X14502D1*
X15657D2*
X15773D1*
X16929D2*
X17042D1*
X18198D2*
X361670D1*
X11390Y57157D2*
X14502D1*
X15657D2*
X15773D1*
X16929D2*
X17042D1*
X18198D2*
X361670D1*
X11390Y56960D2*
X14502D1*
X15657D2*
X15773D1*
X16929D2*
X17042D1*
X18198D2*
X361670D1*
X11390Y56763D2*
X14502D1*
X15657D2*
X15773D1*
X16929D2*
X17042D1*
X18198D2*
X99170D1*
X99820D2*
X104170D1*
X104820D2*
X361670D1*
X11390Y56567D2*
X14502D1*
X15657D2*
X15773D1*
X16929D2*
X17042D1*
X18198D2*
X98717D1*
X100273D2*
X103717D1*
X105273D2*
X361670D1*
X11390Y56370D2*
X14502D1*
X15657D2*
X15773D1*
X16929D2*
X17042D1*
X18198D2*
X98486D1*
X100504D2*
X103486D1*
X105504D2*
X361670D1*
X11390Y56173D2*
X14502D1*
X15657D2*
X15773D1*
X16929D2*
X17042D1*
X18198D2*
X98333D1*
X100657D2*
X103333D1*
X105657D2*
X361670D1*
X11390Y55977D2*
X14502D1*
X15657D2*
X15773D1*
X16929D2*
X17042D1*
X18198D2*
X98227D1*
X100763D2*
X103227D1*
X105763D2*
X361670D1*
X11390Y55780D2*
X14502D1*
X15657D2*
X15773D1*
X16929D2*
X17042D1*
X18198D2*
X98161D1*
X100829D2*
X103161D1*
X105829D2*
X361670D1*
X11390Y55583D2*
X14502D1*
X15657D2*
X15773D1*
X16929D2*
X17042D1*
X18198D2*
X98123D1*
X100867D2*
X103123D1*
X105867D2*
X361670D1*
X11390Y55387D2*
X14502D1*
X15657D2*
X15773D1*
X16929D2*
X17042D1*
X18198D2*
X98117D1*
X100873D2*
X103117D1*
X105873D2*
X120270D1*
X120710D2*
X361670D1*
X11390Y55190D2*
X14502D1*
X15657D2*
X15773D1*
X16929D2*
X17042D1*
X18198D2*
X98139D1*
X100851D2*
X103139D1*
X105851D2*
X119861D1*
X121117D2*
X361670D1*
X11390Y54993D2*
X14502D1*
X15657D2*
X15773D1*
X16929D2*
X17042D1*
X18198D2*
X98192D1*
X100798D2*
X103192D1*
X105798D2*
X119683D1*
X201917D2*
X361670D1*
X11390Y54797D2*
X14502D1*
X15657D2*
X15773D1*
X16929D2*
X17042D1*
X18198D2*
X98280D1*
X100710D2*
X103280D1*
X105710D2*
X119577D1*
X202232D2*
X361670D1*
X11390Y54600D2*
X14502D1*
X15657D2*
X15773D1*
X16929D2*
X17042D1*
X18198D2*
X98408D1*
X100582D2*
X103408D1*
X105582D2*
X119523D1*
X202429D2*
X361670D1*
X11390Y54403D2*
X14502D1*
X15657D2*
X15773D1*
X16929D2*
X17042D1*
X18198D2*
X98598D1*
X100392D2*
X103598D1*
X105392D2*
X119514D1*
X202626D2*
X361670D1*
X11390Y54207D2*
X14502D1*
X15657D2*
X15773D1*
X16929D2*
X17042D1*
X18198D2*
X98908D1*
X100082D2*
X103908D1*
X105082D2*
X119545D1*
X202823D2*
X361670D1*
X11390Y54010D2*
X14502D1*
X15657D2*
X15773D1*
X16929D2*
X17042D1*
X18198D2*
X119620D1*
X203020D2*
X361670D1*
X11390Y53813D2*
X14502D1*
X15657D2*
X15773D1*
X16929D2*
X17042D1*
X18198D2*
X119755D1*
X121226D2*
X201598D1*
X203217D2*
X361670D1*
X11390Y53617D2*
X14502D1*
X15657D2*
X15773D1*
X16929D2*
X17042D1*
X18198D2*
X119998D1*
X120982D2*
X201795D1*
X203413D2*
X361670D1*
X11390Y53420D2*
X14502D1*
X15657D2*
X15773D1*
X16929D2*
X17042D1*
X18198D2*
X201992D1*
X203563D2*
X361670D1*
X11390Y53223D2*
X14502D1*
X15657D2*
X15773D1*
X16929D2*
X17042D1*
X18198D2*
X202189D1*
X203617D2*
X361670D1*
X11390Y53027D2*
X14502D1*
X15657D2*
X15773D1*
X16929D2*
X17042D1*
X18198D2*
X197480D1*
X198438D2*
X200020D1*
X200979D2*
X202386D1*
X203617D2*
X361670D1*
X11390Y52830D2*
X14502D1*
X15657D2*
X15773D1*
X16929D2*
X17042D1*
X18198D2*
X197158D1*
X198763D2*
X199698D1*
X201301D2*
X202461D1*
X203617D2*
X361670D1*
X11390Y52633D2*
X14502D1*
X15657D2*
X15773D1*
X16929D2*
X17042D1*
X18198D2*
X196973D1*
X198948D2*
X199514D1*
X201488D2*
X202461D1*
X203617D2*
X361670D1*
X11390Y52437D2*
X14502D1*
X15657D2*
X15773D1*
X16929D2*
X17042D1*
X18198D2*
X196855D1*
X199067D2*
X199392D1*
X201607D2*
X202461D1*
X203617D2*
X361670D1*
X11390Y52240D2*
X14502D1*
X15657D2*
X15773D1*
X16929D2*
X17042D1*
X18198D2*
X196780D1*
X199142D2*
X199317D1*
X201682D2*
X202461D1*
X203617D2*
X361670D1*
X11390Y52043D2*
X14502D1*
X15657D2*
X15773D1*
X16929D2*
X17042D1*
X18198D2*
X196739D1*
X199179D2*
X199280D1*
X201720D2*
X202461D1*
X203617D2*
X361670D1*
X11390Y51847D2*
X14502D1*
X15657D2*
X15773D1*
X16929D2*
X17042D1*
X18198D2*
X196733D1*
X199185D2*
X199273D1*
X201726D2*
X202461D1*
X203617D2*
X361670D1*
X11390Y51650D2*
X14502D1*
X15657D2*
X15773D1*
X16929D2*
X17042D1*
X18198D2*
X196761D1*
X199160D2*
X199302D1*
X201698D2*
X202461D1*
X203617D2*
X361670D1*
X11390Y51453D2*
X14502D1*
X15657D2*
X15773D1*
X16929D2*
X17042D1*
X18198D2*
X196823D1*
X199098D2*
X199361D1*
X201638D2*
X202461D1*
X203617D2*
X361670D1*
X11390Y51257D2*
X14502D1*
X15657D2*
X15773D1*
X16929D2*
X17042D1*
X18198D2*
X196923D1*
X198995D2*
X199464D1*
X201535D2*
X202461D1*
X203617D2*
X361670D1*
X11390Y51060D2*
X14502D1*
X15657D2*
X15773D1*
X16929D2*
X17042D1*
X18198D2*
X197083D1*
X198838D2*
X199623D1*
X201379D2*
X202461D1*
X203617D2*
X361670D1*
X11390Y50863D2*
X14502D1*
X15657D2*
X15773D1*
X16929D2*
X17042D1*
X18198D2*
X197339D1*
X198582D2*
X199877D1*
X201123D2*
X202461D1*
X203617D2*
X361670D1*
X11390Y50667D2*
X14502D1*
X15657D2*
X15773D1*
X16929D2*
X17042D1*
X18198D2*
X202461D1*
X203617D2*
X361670D1*
X11390Y50470D2*
X14502D1*
X15657D2*
X15773D1*
X16929D2*
X17042D1*
X18198D2*
X18933D1*
X21388D2*
X197442D1*
X198479D2*
X199983D1*
X201020D2*
X202461D1*
X203617D2*
X361670D1*
X11390Y50273D2*
X14502D1*
X15657D2*
X15773D1*
X16929D2*
X17042D1*
X18198D2*
X18933D1*
X21388D2*
X93927D1*
X95263D2*
X108727D1*
X110063D2*
X197139D1*
X198782D2*
X199680D1*
X201323D2*
X202461D1*
X203617D2*
X361670D1*
X11390Y50077D2*
X14502D1*
X15657D2*
X15773D1*
X16929D2*
X17042D1*
X18198D2*
X18933D1*
X21388D2*
X93561D1*
X95629D2*
X108361D1*
X110429D2*
X196961D1*
X198960D2*
X199502D1*
X201498D2*
X202461D1*
X203617D2*
X361670D1*
X11390Y49880D2*
X14502D1*
X15657D2*
X15773D1*
X16929D2*
X17042D1*
X18198D2*
X18933D1*
X21388D2*
X93330D1*
X95860D2*
X108130D1*
X110660D2*
X196845D1*
X199076D2*
X199386D1*
X201613D2*
X202461D1*
X203617D2*
X361670D1*
X11390Y49683D2*
X14502D1*
X15657D2*
X15773D1*
X16929D2*
X17042D1*
X18198D2*
X18933D1*
X21388D2*
X93161D1*
X96029D2*
X107961D1*
X110829D2*
X196773D1*
X199148D2*
X199314D1*
X201685D2*
X202461D1*
X203617D2*
X361670D1*
X11390Y49487D2*
X14502D1*
X15657D2*
X15773D1*
X16929D2*
X17042D1*
X18198D2*
X18933D1*
X21388D2*
X93036D1*
X96154D2*
X107836D1*
X110954D2*
X196739D1*
X199182D2*
X199277D1*
X201723D2*
X202461D1*
X203617D2*
X361670D1*
X11390Y49290D2*
X14502D1*
X15657D2*
X15773D1*
X16929D2*
X17042D1*
X18198D2*
X18933D1*
X21388D2*
X92942D1*
X96248D2*
X107742D1*
X111048D2*
X196736D1*
X199185D2*
X199273D1*
X201726D2*
X202461D1*
X203617D2*
X361670D1*
X11390Y49093D2*
X14502D1*
X15657D2*
X15773D1*
X16929D2*
X17042D1*
X18198D2*
X18933D1*
X21388D2*
X92877D1*
X96313D2*
X107677D1*
X111113D2*
X196764D1*
X199154D2*
X199305D1*
X201695D2*
X202461D1*
X203617D2*
X361670D1*
X11390Y48897D2*
X14502D1*
X15657D2*
X15773D1*
X16929D2*
X17042D1*
X18198D2*
X18933D1*
X21388D2*
X92836D1*
X96354D2*
X107636D1*
X111154D2*
X111683D1*
X112785D2*
X196830D1*
X199092D2*
X199370D1*
X201632D2*
X202461D1*
X203617D2*
X361670D1*
X11390Y48700D2*
X14502D1*
X15657D2*
X15773D1*
X16929D2*
X17042D1*
X18198D2*
X18933D1*
X21388D2*
X92817D1*
X96373D2*
X107617D1*
X111173D2*
X111467D1*
X113001D2*
X196936D1*
X198985D2*
X199477D1*
X201526D2*
X202461D1*
X203617D2*
X361670D1*
X11390Y48503D2*
X14502D1*
X15657D2*
X15773D1*
X16929D2*
X17042D1*
X18198D2*
X18933D1*
X21388D2*
X92817D1*
X96373D2*
X107617D1*
X111173D2*
X111345D1*
X198820D2*
X199639D1*
X201360D2*
X202461D1*
X203617D2*
X361670D1*
X11390Y48307D2*
X14502D1*
X15657D2*
X15773D1*
X16929D2*
X17042D1*
X18198D2*
X18933D1*
X21388D2*
X92817D1*
X96373D2*
X107617D1*
X111173D2*
X111280D1*
X197292D2*
X197366D1*
X198554D2*
X199908D1*
X201092D2*
X202461D1*
X203617D2*
X361670D1*
X11390Y48110D2*
X14502D1*
X15657D2*
X15773D1*
X16929D2*
X17042D1*
X18198D2*
X92823D1*
X96367D2*
X107623D1*
X111167D2*
X111258D1*
X197488D2*
X202461D1*
X203617D2*
X361670D1*
X11390Y47913D2*
X14502D1*
X15657D2*
X15773D1*
X16929D2*
X17042D1*
X18198D2*
X19608D1*
X20713D2*
X92848D1*
X96342D2*
X107648D1*
X111142D2*
X111277D1*
X198513D2*
X199945D1*
X201054D2*
X202461D1*
X203617D2*
X361670D1*
X11390Y47717D2*
X14502D1*
X15657D2*
X15773D1*
X16929D2*
X17042D1*
X18198D2*
X19320D1*
X21001D2*
X92898D1*
X96292D2*
X107698D1*
X111092D2*
X111336D1*
X198801D2*
X199661D1*
X201338D2*
X202461D1*
X203617D2*
X361670D1*
X11390Y47520D2*
X14502D1*
X15657D2*
X15773D1*
X16929D2*
X17042D1*
X18198D2*
X19148D1*
X21170D2*
X92970D1*
X96220D2*
X107770D1*
X111020D2*
X111452D1*
X113017D2*
X196461D1*
X198970D2*
X199489D1*
X201510D2*
X202461D1*
X203617D2*
X361670D1*
X11390Y47323D2*
X14502D1*
X15657D2*
X15773D1*
X16929D2*
X17042D1*
X18198D2*
X19039D1*
X21282D2*
X46380D1*
X47279D2*
X48920D1*
X49820D2*
X50683D1*
X53138D2*
X93077D1*
X96113D2*
X107877D1*
X110913D2*
X111655D1*
X112817D2*
X196658D1*
X199082D2*
X199377D1*
X201623D2*
X202461D1*
X203617D2*
X361670D1*
X11390Y47127D2*
X14502D1*
X15657D2*
X15773D1*
X16929D2*
X17042D1*
X18198D2*
X18970D1*
X21351D2*
X46042D1*
X47620D2*
X48583D1*
X50157D2*
X50683D1*
X53138D2*
X93214D1*
X95976D2*
X108014D1*
X110776D2*
X196770D1*
X199151D2*
X199308D1*
X201692D2*
X202461D1*
X203617D2*
X361670D1*
X11390Y46930D2*
X14502D1*
X15657D2*
X15773D1*
X16929D2*
X17042D1*
X18198D2*
X18936D1*
X21382D2*
X45852D1*
X47807D2*
X48392D1*
X50348D2*
X50683D1*
X53138D2*
X93402D1*
X95788D2*
X108202D1*
X110588D2*
X196736D1*
X199182D2*
X199277D1*
X201723D2*
X202461D1*
X203617D2*
X361670D1*
X11390Y46733D2*
X14502D1*
X15657D2*
X15773D1*
X16929D2*
X17042D1*
X18198D2*
X18936D1*
X21385D2*
X45730D1*
X47932D2*
X48270D1*
X50470D2*
X50683D1*
X53138D2*
X93670D1*
X95520D2*
X108470D1*
X110320D2*
X196736D1*
X199185D2*
X199277D1*
X201723D2*
X202461D1*
X203617D2*
X361670D1*
X11390Y46537D2*
X14502D1*
X15657D2*
X15773D1*
X16929D2*
X17042D1*
X18198D2*
X18967D1*
X21351D2*
X45652D1*
X48007D2*
X48192D1*
X50548D2*
X50683D1*
X53138D2*
X94142D1*
X95048D2*
X108942D1*
X109848D2*
X196767D1*
X199151D2*
X199308D1*
X201692D2*
X202461D1*
X203617D2*
X361670D1*
X11390Y46340D2*
X14502D1*
X15657D2*
X15773D1*
X16929D2*
X17042D1*
X18198D2*
X19036D1*
X21285D2*
X45611D1*
X48048D2*
X48152D1*
X50588D2*
X50683D1*
X53138D2*
X94514D1*
X95667D2*
X196836D1*
X199085D2*
X199202D1*
X201623D2*
X202461D1*
X203617D2*
X205639D1*
X206792D2*
X214530D1*
X215682D2*
X361670D1*
X11390Y46143D2*
X14502D1*
X15657D2*
X15773D1*
X16929D2*
X17042D1*
X18198D2*
X19145D1*
X21173D2*
X45605D1*
X48057D2*
X48144D1*
X50598D2*
X50681D1*
X53138D2*
X94311D1*
X95870D2*
X196945D1*
X201513D2*
X202461D1*
X203617D2*
X205436D1*
X206995D2*
X214327D1*
X215885D2*
X361670D1*
X11390Y45947D2*
X14502D1*
X15657D2*
X15773D1*
X16929D2*
X17042D1*
X18198D2*
X19317D1*
X21004D2*
X45630D1*
X48032D2*
X48167D1*
X50573D2*
X50683D1*
X53138D2*
X94195D1*
X201345D2*
X202461D1*
X203617D2*
X205320D1*
X216001D2*
X361670D1*
X11390Y45750D2*
X14502D1*
X15657D2*
X15773D1*
X16929D2*
X17042D1*
X18238D2*
X19598D1*
X20720D2*
X45686D1*
X47973D2*
X48227D1*
X50513D2*
X50683D1*
X53138D2*
X94133D1*
X201060D2*
X202420D1*
X203617D2*
X205258D1*
X216063D2*
X361670D1*
X11390Y45553D2*
X14502D1*
X15657D2*
X15773D1*
X16929D2*
X17042D1*
X18435D2*
X45786D1*
X47873D2*
X48327D1*
X50413D2*
X50683D1*
X53138D2*
X94111D1*
X200032D2*
X202223D1*
X203617D2*
X205236D1*
X216082D2*
X361670D1*
X11390Y45357D2*
X14502D1*
X15657D2*
X15773D1*
X16929D2*
X17080D1*
X18632D2*
X19573D1*
X20748D2*
X45942D1*
X47720D2*
X48480D1*
X50260D2*
X50683D1*
X53138D2*
X94133D1*
X199835D2*
X199914D1*
X201085D2*
X202027D1*
X203579D2*
X205258D1*
X216060D2*
X361670D1*
X11390Y45160D2*
X14502D1*
X15657D2*
X15773D1*
X16929D2*
X17211D1*
X18829D2*
X19302D1*
X21017D2*
X46189D1*
X47473D2*
X48727D1*
X50013D2*
X50683D1*
X53138D2*
X94198D1*
X201357D2*
X201833D1*
X203448D2*
X205323D1*
X215995D2*
X361670D1*
X11390Y44963D2*
X14502D1*
X15657D2*
X15773D1*
X16929D2*
X17408D1*
X19026D2*
X19137D1*
X21182D2*
X94320D1*
X95860D2*
X196936D1*
X198982D2*
X199477D1*
X201523D2*
X201637D1*
X203251D2*
X205445D1*
X206985D2*
X214336D1*
X215873D2*
X361670D1*
X11390Y44767D2*
X14502D1*
X15657D2*
X15773D1*
X16929D2*
X17605D1*
X21288D2*
X94533D1*
X95648D2*
X196830D1*
X199088D2*
X199370D1*
X203054D2*
X205658D1*
X206773D2*
X214548D1*
X215660D2*
X361670D1*
X11390Y44570D2*
X14502D1*
X15657D2*
X15773D1*
X16929D2*
X17802D1*
X21354D2*
X196764D1*
X199154D2*
X199305D1*
X202857D2*
X226233D1*
X226838D2*
X361670D1*
X11390Y44373D2*
X14502D1*
X15657D2*
X15773D1*
X17076D2*
X17998D1*
X21385D2*
X196736D1*
X199185D2*
X199277D1*
X202663D2*
X225883D1*
X227188D2*
X361670D1*
X11390Y44177D2*
X14502D1*
X15657D2*
X15783D1*
X17273D2*
X18195D1*
X21382D2*
X196739D1*
X199182D2*
X199277D1*
X202467D2*
X203458D1*
X227357D2*
X361670D1*
X11390Y43980D2*
X14502D1*
X15657D2*
X15867D1*
X17470D2*
X18392D1*
X21348D2*
X196773D1*
X199148D2*
X199314D1*
X202270D2*
X203192D1*
X227457D2*
X361670D1*
X11390Y43783D2*
X14502D1*
X15657D2*
X16048D1*
X17667D2*
X18636D1*
X21276D2*
X103895D1*
X105095D2*
X196645D1*
X199076D2*
X199383D1*
X202023D2*
X202995D1*
X227504D2*
X361670D1*
X11390Y43587D2*
X14502D1*
X15657D2*
X16245D1*
X17863D2*
X19158D1*
X21160D2*
X103702D1*
X105288D2*
X196448D1*
X198960D2*
X199498D1*
X201501D2*
X202798D1*
X227510D2*
X361670D1*
X11390Y43390D2*
X14502D1*
X15657D2*
X16442D1*
X18057D2*
X19336D1*
X20985D2*
X103592D1*
X198785D2*
X199673D1*
X201326D2*
X202602D1*
X227476D2*
X361670D1*
X11390Y43193D2*
X14502D1*
X15717D2*
X16639D1*
X18254D2*
X19633D1*
X20685D2*
X103533D1*
X198485D2*
X199973D1*
X201026D2*
X202405D1*
X227395D2*
X361670D1*
X11390Y42997D2*
X14502D1*
X15913D2*
X16836D1*
X18451D2*
X103517D1*
X197476D2*
X202208D1*
X203826D2*
X225820D1*
X227251D2*
X361670D1*
X11390Y42800D2*
X14548D1*
X16107D2*
X17033D1*
X18648D2*
X19542D1*
X20776D2*
X103542D1*
X197279D2*
X197345D1*
X198576D2*
X199883D1*
X201117D2*
X202011D1*
X203629D2*
X226083D1*
X226985D2*
X361670D1*
X11390Y42603D2*
X14689D1*
X16304D2*
X17227D1*
X18845D2*
X19286D1*
X21035D2*
X103614D1*
X198835D2*
X199627D1*
X201376D2*
X201814D1*
X203432D2*
X236239D1*
X237151D2*
X361670D1*
X11390Y42407D2*
X14886D1*
X16501D2*
X17423D1*
X19042D2*
X19124D1*
X21195D2*
X103739D1*
X105251D2*
X196927D1*
X198995D2*
X199467D1*
X201532D2*
X201618D1*
X203235D2*
X235977D1*
X237413D2*
X361670D1*
X11390Y42210D2*
X15083D1*
X16698D2*
X17620D1*
X21298D2*
X103964D1*
X105026D2*
X196823D1*
X199098D2*
X199364D1*
X203038D2*
X203989D1*
X237554D2*
X361670D1*
X11390Y42013D2*
X15277D1*
X16895D2*
X17817D1*
X21357D2*
X196761D1*
X199157D2*
X199302D1*
X202842D2*
X203764D1*
X237635D2*
X361670D1*
X11390Y41817D2*
X15473D1*
X17092D2*
X18014D1*
X21385D2*
X196733D1*
X199185D2*
X199273D1*
X202645D2*
X203567D1*
X237670D2*
X361670D1*
X11390Y41620D2*
X15670D1*
X17288D2*
X18211D1*
X21382D2*
X196739D1*
X199182D2*
X199280D1*
X202448D2*
X203370D1*
X237663D2*
X361670D1*
X11390Y41423D2*
X15867D1*
X17485D2*
X18408D1*
X21342D2*
X196777D1*
X199142D2*
X199317D1*
X202251D2*
X203173D1*
X237617D2*
X361670D1*
X11390Y41227D2*
X16064D1*
X17682D2*
X18677D1*
X21270D2*
X196627D1*
X199070D2*
X199392D1*
X201982D2*
X202977D1*
X237517D2*
X361670D1*
X11390Y41030D2*
X16261D1*
X17879D2*
X19170D1*
X21151D2*
X23223D1*
X198951D2*
X199511D1*
X201488D2*
X202783D1*
X204398D2*
X236042D1*
X237348D2*
X361670D1*
X11390Y40833D2*
X16458D1*
X18076D2*
X19355D1*
X20967D2*
X22880D1*
X198767D2*
X199695D1*
X201307D2*
X202586D1*
X204201D2*
X236398D1*
X236992D2*
X361670D1*
X11390Y40637D2*
X16655D1*
X18273D2*
X19673D1*
X20648D2*
X22683D1*
X198448D2*
X200011D1*
X200988D2*
X202389D1*
X204004D2*
X230420D1*
X231538D2*
X252011D1*
X253129D2*
X361670D1*
X11390Y40440D2*
X16852D1*
X18470D2*
X22486D1*
X197457D2*
X202192D1*
X203807D2*
X230211D1*
X231751D2*
X251798D1*
X253342D2*
X361670D1*
X11390Y40243D2*
X17048D1*
X198604D2*
X199855D1*
X201145D2*
X201995D1*
X203613D2*
X204536D1*
X228851D2*
X230089D1*
X253460D2*
X361670D1*
X11390Y40047D2*
X17245D1*
X198851D2*
X199608D1*
X201392D2*
X201798D1*
X203417D2*
X204339D1*
X229048D2*
X230023D1*
X253526D2*
X361670D1*
X11390Y39850D2*
X17442D1*
X23513D2*
X196917D1*
X199004D2*
X199455D1*
X203220D2*
X204142D1*
X229245D2*
X230002D1*
X253548D2*
X361670D1*
X11390Y39653D2*
X17639D1*
X23317D2*
X196817D1*
X199104D2*
X199358D1*
X203023D2*
X203945D1*
X229442D2*
X230020D1*
X253529D2*
X361670D1*
X11390Y39457D2*
X17836D1*
X23120D2*
X196758D1*
X199163D2*
X199298D1*
X202826D2*
X203748D1*
X229638D2*
X230086D1*
X253467D2*
X361670D1*
X11390Y39260D2*
X96658D1*
X97332D2*
X101658D1*
X102332D2*
X106658D1*
X107332D2*
X196733D1*
X199185D2*
X199273D1*
X202629D2*
X203552D1*
X205170D2*
X228217D1*
X229832D2*
X230202D1*
X231757D2*
X251792D1*
X253348D2*
X361670D1*
X11390Y39063D2*
X96214D1*
X97776D2*
X101214D1*
X102776D2*
X106214D1*
X107776D2*
X196742D1*
X199179D2*
X199283D1*
X202432D2*
X203355D1*
X204973D2*
X228414D1*
X230029D2*
X230408D1*
X231554D2*
X251995D1*
X253145D2*
X361670D1*
X11390Y38867D2*
X95983D1*
X98007D2*
X100983D1*
X103007D2*
X105983D1*
X108007D2*
X196783D1*
X199138D2*
X199323D1*
X202235D2*
X203158D1*
X204776D2*
X218377D1*
X218601D2*
X228611D1*
X230226D2*
X276377D1*
X276601D2*
X361670D1*
X11390Y38670D2*
X95830D1*
X98160D2*
X100830D1*
X103160D2*
X105830D1*
X108160D2*
X196861D1*
X199060D2*
X199398D1*
X201929D2*
X202961D1*
X204579D2*
X217361D1*
X219620D2*
X228808D1*
X230423D2*
X275361D1*
X277620D2*
X361670D1*
X11390Y38473D2*
X95727D1*
X98263D2*
X100727D1*
X103263D2*
X105727D1*
X108263D2*
X196983D1*
X198938D2*
X199523D1*
X201476D2*
X202764D1*
X204382D2*
X216930D1*
X220051D2*
X229002D1*
X230620D2*
X274930D1*
X278051D2*
X361670D1*
X11390Y38277D2*
X95661D1*
X98329D2*
X100661D1*
X103329D2*
X105661D1*
X108329D2*
X197173D1*
X198748D2*
X199714D1*
X201285D2*
X202567D1*
X204185D2*
X216617D1*
X220363D2*
X229198D1*
X230817D2*
X274617D1*
X278363D2*
X361670D1*
X11390Y38080D2*
X50252D1*
X51029D2*
X56967D1*
X57748D2*
X95623D1*
X98367D2*
X100623D1*
X103367D2*
X105623D1*
X108367D2*
X197514D1*
X198407D2*
X200055D1*
X200945D2*
X202370D1*
X203988D2*
X216367D1*
X220613D2*
X229395D1*
X231013D2*
X274367D1*
X278613D2*
X361670D1*
X11390Y37883D2*
X49811D1*
X51467D2*
X56530D1*
X58185D2*
X95617D1*
X98373D2*
X100617D1*
X103373D2*
X105617D1*
X108373D2*
X202173D1*
X203792D2*
X216161D1*
X220820D2*
X229592D1*
X231210D2*
X274161D1*
X278820D2*
X361670D1*
X11390Y37687D2*
X49577D1*
X51704D2*
X56292D1*
X58423D2*
X95642D1*
X98348D2*
X100642D1*
X103348D2*
X105642D1*
X108348D2*
X197289D1*
X198632D2*
X199830D1*
X201173D2*
X201977D1*
X203595D2*
X215986D1*
X220995D2*
X229789D1*
X231407D2*
X273986D1*
X278995D2*
X361670D1*
X11390Y37490D2*
X49414D1*
X51867D2*
X56133D1*
X58582D2*
X95695D1*
X98295D2*
X100695D1*
X103295D2*
X105695D1*
X108295D2*
X197055D1*
X198867D2*
X199592D1*
X201407D2*
X201783D1*
X203398D2*
X215839D1*
X221142D2*
X229986D1*
X231604D2*
X236180D1*
X237210D2*
X273839D1*
X279142D2*
X361670D1*
X11390Y37293D2*
X49302D1*
X51979D2*
X56020D1*
X58695D2*
X95780D1*
X98210D2*
X100780D1*
X103210D2*
X105780D1*
X108210D2*
X196905D1*
X199013D2*
X199445D1*
X203201D2*
X215711D1*
X221270D2*
X230183D1*
X231801D2*
X235948D1*
X237442D2*
X273711D1*
X279270D2*
X361670D1*
X11390Y37097D2*
X49227D1*
X52054D2*
X55945D1*
X58773D2*
X95911D1*
X98079D2*
X100911D1*
X103079D2*
X105911D1*
X108079D2*
X196811D1*
X199110D2*
X199352D1*
X203004D2*
X215605D1*
X221376D2*
X230380D1*
X237573D2*
X273605D1*
X279376D2*
X361670D1*
X11390Y36900D2*
X49180D1*
X52101D2*
X55898D1*
X58817D2*
X96102D1*
X97888D2*
X101102D1*
X102888D2*
X106102D1*
X107888D2*
X196755D1*
X199167D2*
X199295D1*
X202807D2*
X215514D1*
X221467D2*
X230577D1*
X237645D2*
X273514D1*
X279467D2*
X361670D1*
X11390Y36703D2*
X49164D1*
X52117D2*
X55880D1*
X58835D2*
X96414D1*
X97576D2*
X101414D1*
X102576D2*
X106414D1*
X107576D2*
X196733D1*
X199188D2*
X199273D1*
X202613D2*
X215439D1*
X221542D2*
X230773D1*
X237673D2*
X273439D1*
X279542D2*
X361670D1*
X11390Y36507D2*
X49170D1*
X52107D2*
X55889D1*
X58826D2*
X196742D1*
X199176D2*
X199283D1*
X202417D2*
X215380D1*
X221601D2*
X230970D1*
X237657D2*
X273380D1*
X279601D2*
X361670D1*
X11390Y36310D2*
X49208D1*
X52073D2*
X55927D1*
X58792D2*
X196786D1*
X199132D2*
X199327D1*
X202220D2*
X215333D1*
X221648D2*
X231167D1*
X237601D2*
X273333D1*
X279648D2*
X361670D1*
X11390Y36113D2*
X49273D1*
X52007D2*
X55992D1*
X58726D2*
X196867D1*
X199051D2*
X199408D1*
X201823D2*
X215298D1*
X221682D2*
X231561D1*
X237495D2*
X273298D1*
X279682D2*
X361670D1*
X11390Y35917D2*
X49373D1*
X51907D2*
X56089D1*
X58626D2*
X196995D1*
X198923D2*
X199536D1*
X201463D2*
X215277D1*
X221704D2*
X236083D1*
X237307D2*
X273277D1*
X279704D2*
X361670D1*
X11390Y35720D2*
X49514D1*
X51767D2*
X56233D1*
X58482D2*
X197195D1*
X198726D2*
X199733D1*
X201267D2*
X215267D1*
X221713D2*
X236555D1*
X236835D2*
X273267D1*
X279713D2*
X361670D1*
X11390Y35523D2*
X49720D1*
X51560D2*
X56439D1*
X58279D2*
X197561D1*
X198360D2*
X200102D1*
X200898D2*
X215270D1*
X221710D2*
X273270D1*
X279710D2*
X357911D1*
X358688D2*
X359611D1*
X360388D2*
X361670D1*
X11390Y35327D2*
X50055D1*
X51226D2*
X56773D1*
X57945D2*
X197777D1*
X198142D2*
X200317D1*
X200682D2*
X215286D1*
X221695D2*
X273286D1*
X279695D2*
X357611D1*
X358988D2*
X359311D1*
X360688D2*
X361670D1*
X11390Y35130D2*
X197264D1*
X198657D2*
X199802D1*
X201198D2*
X215311D1*
X221667D2*
X273311D1*
X279667D2*
X357458D1*
X360842D2*
X361670D1*
X11390Y34933D2*
X197039D1*
X198882D2*
X199580D1*
X201423D2*
X215352D1*
X221629D2*
X273352D1*
X279629D2*
X357367D1*
X360932D2*
X361670D1*
X11390Y34737D2*
X48927D1*
X49573D2*
X58427D1*
X59073D2*
X196895D1*
X199023D2*
X199436D1*
X201563D2*
X215405D1*
X221576D2*
X273405D1*
X279576D2*
X357327D1*
X360973D2*
X361670D1*
X11390Y34540D2*
X48445D1*
X50054D2*
X57945D1*
X59554D2*
X196805D1*
X199117D2*
X199345D1*
X201657D2*
X215470D1*
X221510D2*
X273470D1*
X279510D2*
X357327D1*
X360973D2*
X361670D1*
X11390Y34343D2*
X48198D1*
X50298D2*
X57698D1*
X59798D2*
X196752D1*
X199170D2*
X199292D1*
X201707D2*
X215552D1*
X221429D2*
X273552D1*
X279429D2*
X357370D1*
X360929D2*
X361670D1*
X11390Y34147D2*
X48036D1*
X50463D2*
X57536D1*
X59963D2*
X196733D1*
X199188D2*
X199273D1*
X201729D2*
X215648D1*
X221329D2*
X273648D1*
X279329D2*
X357458D1*
X360842D2*
X361670D1*
X11390Y33950D2*
X47920D1*
X50579D2*
X57420D1*
X60079D2*
X196745D1*
X199173D2*
X199286D1*
X201713D2*
X215764D1*
X221217D2*
X273764D1*
X279217D2*
X357617D1*
X360685D2*
X361670D1*
X11390Y33753D2*
X47839D1*
X50657D2*
X57339D1*
X60157D2*
X196792D1*
X199126D2*
X199333D1*
X201667D2*
X215902D1*
X221079D2*
X273902D1*
X279079D2*
X357917D1*
X360579D2*
X361670D1*
X11390Y33557D2*
X47792D1*
X50707D2*
X57292D1*
X60207D2*
X196877D1*
X199042D2*
X199417D1*
X201582D2*
X216058D1*
X220923D2*
X274058D1*
X278923D2*
X358573D1*
X360579D2*
X361670D1*
X11390Y33360D2*
X47773D1*
X50726D2*
X57273D1*
X60226D2*
X197011D1*
X198910D2*
X199548D1*
X201451D2*
X216245D1*
X220735D2*
X274245D1*
X278735D2*
X358573D1*
X360579D2*
X361670D1*
X11390Y33163D2*
X47780D1*
X50720D2*
X57280D1*
X60220D2*
X196327D1*
X278510D2*
X289673D1*
X300557D2*
X358573D1*
X360579D2*
X361670D1*
X11390Y32967D2*
X47814D1*
X50685D2*
X57314D1*
X60185D2*
X196223D1*
X278235D2*
X289570D1*
X300660D2*
X358573D1*
X360579D2*
X361670D1*
X11390Y32770D2*
X47877D1*
X50623D2*
X57377D1*
X60123D2*
X196211D1*
X277879D2*
X289558D1*
X300673D2*
X358573D1*
X360579D2*
X361670D1*
X11390Y32573D2*
X47970D1*
X50526D2*
X57470D1*
X60026D2*
X196211D1*
X277348D2*
X289558D1*
X300673D2*
X358573D1*
X360579D2*
X361670D1*
X11390Y32377D2*
X48111D1*
X50388D2*
X57611D1*
X59888D2*
X196211D1*
X276542D2*
X289558D1*
X300673D2*
X358573D1*
X360579D2*
X361670D1*
X11390Y32180D2*
X48311D1*
X50188D2*
X57811D1*
X59688D2*
X196211D1*
X276542D2*
X289558D1*
X300673D2*
X358573D1*
X360579D2*
X361670D1*
X11390Y31983D2*
X48627D1*
X49870D2*
X58127D1*
X59370D2*
X196211D1*
X276542D2*
X289558D1*
X300673D2*
X358573D1*
X360579D2*
X361670D1*
X11390Y31787D2*
X196211D1*
X276542D2*
X289558D1*
X300673D2*
X358573D1*
X360579D2*
X361670D1*
X11390Y31590D2*
X196211D1*
X276542D2*
X289558D1*
X300673D2*
X358573D1*
X360579D2*
X361670D1*
X11390Y31393D2*
X50402D1*
X50879D2*
X57120D1*
X57595D2*
X196211D1*
X277273D2*
X278667D1*
X279813D2*
X289558D1*
X300673D2*
X358573D1*
X360579D2*
X361670D1*
X11390Y31197D2*
X49861D1*
X51420D2*
X56580D1*
X58135D2*
X196211D1*
X277551D2*
X278389D1*
X280092D2*
X289558D1*
X300673D2*
X358573D1*
X360579D2*
X361670D1*
X11390Y31000D2*
X49608D1*
X51673D2*
X56323D1*
X58392D2*
X196211D1*
X277717D2*
X278223D1*
X280257D2*
X289558D1*
X300673D2*
X358573D1*
X360579D2*
X361670D1*
X11390Y30803D2*
X49436D1*
X51845D2*
X56155D1*
X58560D2*
X196211D1*
X277826D2*
X278114D1*
X280367D2*
X289558D1*
X300673D2*
X358573D1*
X360579D2*
X361670D1*
X11390Y30607D2*
X49317D1*
X51963D2*
X56036D1*
X58679D2*
X196211D1*
X277895D2*
X278047D1*
X280432D2*
X289558D1*
X300673D2*
X358573D1*
X360579D2*
X361670D1*
X11390Y30410D2*
X49236D1*
X52045D2*
X55955D1*
X58760D2*
X196211D1*
X277923D2*
X278016D1*
X280463D2*
X289558D1*
X300673D2*
X358573D1*
X360579D2*
X361670D1*
X11390Y30213D2*
X49186D1*
X52095D2*
X55905D1*
X58813D2*
X196211D1*
X277923D2*
X278016D1*
X280463D2*
X289558D1*
X300673D2*
X358573D1*
X360579D2*
X361670D1*
X11390Y30017D2*
X49164D1*
X52117D2*
X55883D1*
X58835D2*
X196211D1*
X277888D2*
X278052D1*
X280429D2*
X289558D1*
X300673D2*
X358573D1*
X360579D2*
X361670D1*
X11390Y29820D2*
X49167D1*
X52110D2*
X55886D1*
X58829D2*
X196211D1*
X277820D2*
X278120D1*
X280360D2*
X289558D1*
X300673D2*
X358573D1*
X360579D2*
X361670D1*
X11390Y29623D2*
X49198D1*
X52079D2*
X55917D1*
X58798D2*
X196211D1*
X277707D2*
X278233D1*
X280248D2*
X289558D1*
X300673D2*
X358573D1*
X360579D2*
X361670D1*
X11390Y29427D2*
X49261D1*
X52020D2*
X55980D1*
X58738D2*
X196211D1*
X277532D2*
X278408D1*
X280073D2*
X289558D1*
X300673D2*
X358573D1*
X360579D2*
X361670D1*
X11390Y29230D2*
X49355D1*
X51926D2*
X56070D1*
X58645D2*
X196211D1*
X277238D2*
X278702D1*
X279779D2*
X289558D1*
X300673D2*
X358573D1*
X360579D2*
X361670D1*
X11390Y29033D2*
X49489D1*
X51792D2*
X56208D1*
X58510D2*
X196211D1*
X276542D2*
X289558D1*
X300673D2*
X358573D1*
X360579D2*
X361670D1*
X11390Y28837D2*
X49683D1*
X51598D2*
X56398D1*
X58317D2*
X196211D1*
X276542D2*
X289558D1*
X300673D2*
X358573D1*
X360579D2*
X361670D1*
X11390Y28640D2*
X49986D1*
X51295D2*
X56702D1*
X58013D2*
X196211D1*
X276542D2*
X289558D1*
X300673D2*
X358573D1*
X360579D2*
X361670D1*
X11390Y28443D2*
X196211D1*
X276542D2*
X289558D1*
X300673D2*
X358573D1*
X360579D2*
X361670D1*
X11390Y28247D2*
X196211D1*
X276542D2*
X289558D1*
X300673D2*
X358573D1*
X360579D2*
X361670D1*
X11390Y28050D2*
X196211D1*
X276542D2*
X289558D1*
X300673D2*
X358573D1*
X360579D2*
X361670D1*
X11390Y27853D2*
X196211D1*
X276542D2*
X289558D1*
X300673D2*
X358573D1*
X360579D2*
X361670D1*
X11390Y27657D2*
X196230D1*
X276526D2*
X289573D1*
X300657D2*
X358573D1*
X360579D2*
X361670D1*
X11390Y27460D2*
X196342D1*
X276413D2*
X289689D1*
X300542D2*
X358573D1*
X360579D2*
X361670D1*
X11390Y27263D2*
X358573D1*
X360579D2*
X361670D1*
X11390Y27067D2*
X358573D1*
X360579D2*
X361670D1*
X11390Y26870D2*
X358573D1*
X360579D2*
X361670D1*
X11390Y26673D2*
X76761D1*
X77860D2*
X225986D1*
X227085D2*
X358573D1*
X360579D2*
X361670D1*
X11390Y26477D2*
X76545D1*
X78076D2*
X225770D1*
X227301D2*
X349261D1*
X350079D2*
X353761D1*
X354579D2*
X358573D1*
X360579D2*
X361670D1*
X11390Y26280D2*
X76423D1*
X227423D2*
X348823D1*
X350517D2*
X353323D1*
X355017D2*
X358573D1*
X360579D2*
X361670D1*
X11390Y26083D2*
X76355D1*
X227488D2*
X348583D1*
X350757D2*
X353083D1*
X355257D2*
X358573D1*
X360579D2*
X361670D1*
X11390Y25887D2*
X76333D1*
X227513D2*
X348417D1*
X350923D2*
X352917D1*
X355423D2*
X358573D1*
X360579D2*
X361670D1*
X11390Y25690D2*
X76352D1*
X227495D2*
X348302D1*
X351038D2*
X352802D1*
X355538D2*
X358573D1*
X360579D2*
X361670D1*
X11390Y25493D2*
X76411D1*
X227432D2*
X348220D1*
X351120D2*
X352720D1*
X355620D2*
X358573D1*
X360579D2*
X361670D1*
X11390Y25297D2*
X76527D1*
X78095D2*
X225752D1*
X227320D2*
X348170D1*
X351170D2*
X352670D1*
X355670D2*
X358573D1*
X360579D2*
X361670D1*
X11390Y25100D2*
X76727D1*
X77892D2*
X225952D1*
X227117D2*
X348148D1*
X351192D2*
X352648D1*
X355692D2*
X358573D1*
X360579D2*
X361670D1*
X11390Y24903D2*
X348152D1*
X351188D2*
X352652D1*
X355688D2*
X358573D1*
X360579D2*
X361670D1*
X11390Y24707D2*
X348180D1*
X351160D2*
X352680D1*
X355660D2*
X358573D1*
X360579D2*
X361670D1*
X11390Y24510D2*
X348239D1*
X351101D2*
X352739D1*
X355601D2*
X358573D1*
X360579D2*
X361670D1*
X11390Y24313D2*
X32536D1*
X340523D2*
X348327D1*
X351013D2*
X352827D1*
X355513D2*
X358573D1*
X360579D2*
X361670D1*
X11390Y24117D2*
X32408D1*
X340654D2*
X348452D1*
X350888D2*
X352952D1*
X355388D2*
X358573D1*
X360579D2*
X361670D1*
X11390Y23920D2*
X32383D1*
X340679D2*
X348630D1*
X350710D2*
X353130D1*
X355210D2*
X358573D1*
X360579D2*
X361670D1*
X11390Y23723D2*
X32383D1*
X340679D2*
X348898D1*
X350442D2*
X353398D1*
X354942D2*
X358573D1*
X360579D2*
X361670D1*
X11390Y23527D2*
X32383D1*
X340679D2*
X349533D1*
X349807D2*
X354033D1*
X354307D2*
X358573D1*
X360579D2*
X361670D1*
X11390Y23330D2*
X32383D1*
X340679D2*
X358573D1*
X360579D2*
X361670D1*
X11390Y23133D2*
X32383D1*
X340679D2*
X358573D1*
X360579D2*
X361670D1*
X11390Y22937D2*
X32383D1*
X340679D2*
X358573D1*
X360579D2*
X361670D1*
X11390Y22740D2*
X32383D1*
X340679D2*
X358573D1*
X360579D2*
X361670D1*
X11390Y22543D2*
X32383D1*
X340679D2*
X358573D1*
X360579D2*
X361670D1*
X11390Y22347D2*
X32383D1*
X340679D2*
X358573D1*
X360579D2*
X361670D1*
X11390Y22150D2*
X32383D1*
X340679D2*
X358573D1*
X360579D2*
X361670D1*
X11390Y21953D2*
X32383D1*
X340679D2*
X358573D1*
X360579D2*
X361670D1*
X11390Y21757D2*
X32383D1*
X340679D2*
X358573D1*
X360579D2*
X361670D1*
X11390Y21560D2*
X32383D1*
X340679D2*
X358573D1*
X360579D2*
X361670D1*
X11390Y21363D2*
X32383D1*
X340679D2*
X358573D1*
X360579D2*
X361670D1*
X11390Y21167D2*
X32383D1*
X340679D2*
X358573D1*
X360579D2*
X361670D1*
X11390Y20970D2*
X32383D1*
X340679D2*
X358573D1*
X360579D2*
X361670D1*
X11390Y20773D2*
X32383D1*
X340679D2*
X358573D1*
X360579D2*
X361670D1*
X11390Y20577D2*
X32383D1*
X340679D2*
X358573D1*
X360579D2*
X361670D1*
X11390Y20380D2*
X32383D1*
X340679D2*
X358573D1*
X360579D2*
X361670D1*
X11390Y20183D2*
X32383D1*
X340679D2*
X358573D1*
X360579D2*
X361670D1*
X11390Y19987D2*
X32383D1*
X340679D2*
X358573D1*
X360579D2*
X361670D1*
X11390Y19790D2*
X32383D1*
X340679D2*
X358573D1*
X360579D2*
X361670D1*
X11390Y19593D2*
X32383D1*
X340679D2*
X358573D1*
X360579D2*
X361670D1*
X11390Y19397D2*
X32383D1*
X340679D2*
X358398D1*
X360579D2*
X361670D1*
X11390Y19200D2*
X32383D1*
X340679D2*
X358202D1*
X360579D2*
X361670D1*
X11390Y19003D2*
X32383D1*
X340679D2*
X355511D1*
X360579D2*
X361670D1*
X11390Y18807D2*
X32389D1*
X340670D2*
X355258D1*
X360579D2*
X361670D1*
X11390Y18610D2*
X32477D1*
X340582D2*
X355061D1*
X360579D2*
X361670D1*
X11390Y18413D2*
X354864D1*
X360573D2*
X361670D1*
X11390Y18217D2*
X354667D1*
X360507D2*
X361670D1*
X11390Y18020D2*
X354470D1*
X360338D2*
X361670D1*
X11390Y17823D2*
X354355D1*
X360142D2*
X361670D1*
X11390Y17627D2*
X354323D1*
X359945D2*
X361670D1*
X11390Y17430D2*
X354323D1*
X359748D2*
X361670D1*
X11390Y17233D2*
X354323D1*
X359551D2*
X361670D1*
X11390Y17037D2*
X354323D1*
X356804D2*
X361670D1*
X11390Y16840D2*
X12752D1*
X14870D2*
X124511D1*
X126629D2*
X246433D1*
X248548D2*
X354323D1*
X356607D2*
X358192D1*
X360307D2*
X361670D1*
X11390Y16643D2*
X12295D1*
X15323D2*
X124055D1*
X127085D2*
X245977D1*
X249004D2*
X354323D1*
X356413D2*
X357736D1*
X360763D2*
X361670D1*
X11390Y16447D2*
X11970D1*
X15648D2*
X123733D1*
X127407D2*
X245652D1*
X249329D2*
X354323D1*
X356329D2*
X357411D1*
X361088D2*
X361670D1*
X11390Y16250D2*
X11714D1*
X15904D2*
X123477D1*
X127663D2*
X245395D1*
X249585D2*
X354323D1*
X356329D2*
X357155D1*
X361345D2*
X361670D1*
X11390Y16053D2*
X11505D1*
X16117D2*
X123264D1*
X127876D2*
X245183D1*
X249795D2*
X354323D1*
X356329D2*
X356945D1*
X361557D2*
X361670D1*
X16295Y15857D2*
X123086D1*
X128054D2*
X245005D1*
X249973D2*
X354323D1*
X356329D2*
X356767D1*
X16445Y15660D2*
X122936D1*
X128204D2*
X244855D1*
X250126D2*
X354323D1*
X356329D2*
X356614D1*
X16573Y15463D2*
X122808D1*
X128332D2*
X244727D1*
X250254D2*
X354323D1*
X356329D2*
X356486D1*
X16682Y15267D2*
X122698D1*
X128442D2*
X244617D1*
X250363D2*
X354323D1*
X16776Y15070D2*
X122605D1*
X128535D2*
X244527D1*
X250454D2*
X354323D1*
X16851Y14873D2*
X122530D1*
X128610D2*
X244448D1*
X250532D2*
X354323D1*
X16913Y14677D2*
X122467D1*
X128673D2*
X244386D1*
X250595D2*
X354323D1*
X16963Y14480D2*
X122417D1*
X128723D2*
X244339D1*
X250642D2*
X354323D1*
X16998Y14283D2*
X122383D1*
X128757D2*
X244302D1*
X250679D2*
X298436D1*
X299167D2*
X354136D1*
X17020Y14087D2*
X122358D1*
X128782D2*
X244280D1*
X250701D2*
X298123D1*
X299476D2*
X353939D1*
X17032Y13890D2*
X122348D1*
X128792D2*
X244267D1*
X250713D2*
X297964D1*
X17032Y13693D2*
X122348D1*
X128792D2*
X244270D1*
X250710D2*
X297870D1*
X17017Y13497D2*
X122361D1*
X128779D2*
X244283D1*
X250698D2*
X297036D1*
X297163D2*
X297830D1*
X16992Y13300D2*
X122389D1*
X128751D2*
X244308D1*
X250673D2*
X296498D1*
X297704D2*
X297824D1*
X16954Y13103D2*
X122427D1*
X128713D2*
X244345D1*
X250635D2*
X296305D1*
X16904Y12907D2*
X122477D1*
X128663D2*
X244398D1*
X250582D2*
X296195D1*
X356076D2*
X356158D1*
X16838Y12710D2*
X122542D1*
X128598D2*
X244461D1*
X250520D2*
X296139D1*
X355879D2*
X356220D1*
X16760Y12513D2*
X122620D1*
X128520D2*
X244542D1*
X250438D2*
X296123D1*
X355682D2*
X356302D1*
X16663Y12317D2*
X122717D1*
X128423D2*
X244636D1*
X250345D2*
X296148D1*
X355485D2*
X356395D1*
X16551Y12120D2*
X122830D1*
X128310D2*
X244748D1*
X250232D2*
X296220D1*
X355285D2*
X356508D1*
X16420Y11923D2*
X122961D1*
X128179D2*
X244883D1*
X250098D2*
X296348D1*
X297854D2*
X356642D1*
X16263Y11727D2*
X123117D1*
X128023D2*
X245036D1*
X249942D2*
X296573D1*
X297626D2*
X356798D1*
X16079Y11530D2*
X123302D1*
X127838D2*
X245220D1*
X249760D2*
X356980D1*
X277904Y30220D2*
X277871Y30023D1*
X277806Y29834D1*
X277711Y29659D1*
X277588Y29501D1*
X277441Y29366D1*
X277273Y29257D1*
X277090Y29177D1*
X276897Y29128D1*
X276698Y29112D1*
X276520Y29126D1*
X276523Y28560D1*
Y27780D1*
X276512Y27681D1*
X276480Y27586D1*
X276428Y27501D1*
X276359Y27429D1*
X276276Y27374D1*
X276183Y27337D1*
X276065Y27322D1*
X196690D1*
X196591Y27333D1*
X196496Y27365D1*
X196411Y27417D1*
X196339Y27486D1*
X196284Y27569D1*
X196247Y27662D1*
X196232Y27780D1*
Y32860D1*
X196243Y32959D1*
X196275Y33054D1*
X196327Y33139D1*
X196396Y33211D1*
X196479Y33266D1*
X196572Y33303D1*
X196690Y33318D1*
X197068D1*
X197004Y33391D1*
X196915Y33524D1*
X196844Y33667D1*
X196793Y33819D1*
X196762Y33975D1*
X196752Y34135D1*
X196763Y34294D1*
X196795Y34451D1*
X196848Y34602D1*
X196920Y34745D1*
X197010Y34877D1*
X197117Y34996D1*
X197239Y35099D1*
X197373Y35186D1*
X197518Y35254D1*
X197670Y35303D1*
X197828Y35331D1*
X197987Y35338D1*
X198147Y35323D1*
X198303Y35288D1*
X198453Y35233D1*
X198594Y35158D1*
X198724Y35066D1*
X198841Y34956D1*
X198943Y34833D1*
X199027Y34697D1*
X199092Y34551D1*
X199138Y34398D1*
X199163Y34240D1*
X199167Y34090D1*
X199151Y33931D1*
X199115Y33775D1*
X199058Y33626D1*
X198982Y33485D1*
X198888Y33356D1*
X198854Y33318D1*
X199606D1*
X199486Y33473D1*
X199392Y33649D1*
X199328Y33838D1*
X199296Y34035D1*
X199297Y34235D1*
X199330Y34432D1*
X199396Y34620D1*
X199492Y34796D1*
X199615Y34953D1*
X199763Y35087D1*
X199931Y35196D1*
X200114Y35275D1*
X200308Y35323D1*
X200507Y35338D1*
X200706Y35320D1*
X200900Y35270D1*
X201082Y35188D1*
X201249Y35078D1*
X201395Y34942D1*
X201516Y34783D1*
X201610Y34607D1*
X201673Y34417D1*
X201705Y34220D1*
X201704Y34030D1*
X201671Y33833D1*
X201606Y33644D1*
X201511Y33469D1*
X201394Y33318D1*
X216308D1*
X216120Y33510D1*
X215929Y33741D1*
X215760Y33989D1*
X215615Y34252D1*
X215496Y34527D1*
X215402Y34812D1*
X215336Y35104D1*
X215298Y35402D1*
X215287Y35701D1*
X215304Y36001D1*
X215350Y36297D1*
X215423Y36588D1*
X215522Y36871D1*
X215648Y37143D1*
X215799Y37402D1*
X215973Y37647D1*
X216169Y37873D1*
X216386Y38081D1*
X216621Y38267D1*
X216873Y38430D1*
X217138Y38569D1*
X217416Y38683D1*
X217703Y38770D1*
X217997Y38830D1*
X218295Y38862D1*
X218595Y38867D1*
X218894Y38843D1*
X219189Y38791D1*
X219478Y38712D1*
X219759Y38606D1*
X220028Y38475D1*
X220284Y38319D1*
X220525Y38139D1*
X220747Y37938D1*
X220950Y37717D1*
X221131Y37478D1*
X221289Y37223D1*
X221422Y36954D1*
X221530Y36675D1*
X221611Y36386D1*
X221665Y36091D1*
X221691Y35792D1*
X221692Y35565D1*
X221668Y35266D1*
X221617Y34971D1*
X221539Y34681D1*
X221433Y34400D1*
X221302Y34131D1*
X221146Y33874D1*
X220967Y33634D1*
X220766Y33411D1*
X220670Y33318D1*
X274308D1*
X274120Y33510D1*
X273929Y33741D1*
X273760Y33989D1*
X273615Y34252D1*
X273496Y34527D1*
X273402Y34812D1*
X273336Y35104D1*
X273298Y35402D1*
X273287Y35701D1*
X273304Y36001D1*
X273350Y36297D1*
X273423Y36588D1*
X273522Y36871D1*
X273648Y37143D1*
X273799Y37402D1*
X273973Y37647D1*
X274169Y37873D1*
X274386Y38081D1*
X274621Y38267D1*
X274873Y38430D1*
X275138Y38569D1*
X275416Y38683D1*
X275703Y38770D1*
X275997Y38830D1*
X276295Y38862D1*
X276595Y38867D1*
X276894Y38843D1*
X277189Y38791D1*
X277478Y38712D1*
X277759Y38606D1*
X278028Y38475D1*
X278284Y38319D1*
X278525Y38139D1*
X278747Y37938D1*
X278950Y37717D1*
X279131Y37478D1*
X279289Y37223D1*
X279422Y36954D1*
X279530Y36675D1*
X279611Y36386D1*
X279665Y36091D1*
X279691Y35792D1*
X279692Y35565D1*
X279668Y35266D1*
X279617Y34971D1*
X279539Y34681D1*
X279433Y34400D1*
X279302Y34131D1*
X279146Y33874D1*
X278967Y33634D1*
X278766Y33411D1*
X278546Y33208D1*
X278307Y33027D1*
X278052Y32868D1*
X277784Y32735D1*
X277504Y32626D1*
X277215Y32545D1*
X276920Y32491D1*
X276622Y32464D1*
X276523Y32460D1*
Y31513D1*
X276707Y31528D1*
X276906Y31510D1*
X277100Y31460D1*
X277282Y31378D1*
X277449Y31268D1*
X277595Y31132D1*
X277716Y30973D1*
X277810Y30797D1*
X277873Y30607D1*
X277905Y30410D1*
X277904Y30220D1*
X280448Y30300D2*
X280435Y30141D1*
X280400Y29984D1*
X280346Y29834D1*
X280272Y29692D1*
X280180Y29562D1*
X280072Y29444D1*
X279949Y29342D1*
X279813Y29257D1*
X279668Y29190D1*
X279515Y29144D1*
X279357Y29118D1*
X279198Y29113D1*
X279038Y29129D1*
X278883Y29166D1*
X278734Y29223D1*
X278593Y29300D1*
X278464Y29394D1*
X278349Y29505D1*
X278249Y29629D1*
X278166Y29766D1*
X278103Y29913D1*
X278059Y30067D1*
X278036Y30225D1*
X278034Y30385D1*
X278053Y30544D1*
X278093Y30698D1*
X278153Y30847D1*
X278232Y30986D1*
X278329Y31113D1*
X278441Y31226D1*
X278568Y31324D1*
X278707Y31404D1*
X278854Y31465D1*
X279009Y31506D1*
X279167Y31526D1*
X279327Y31525D1*
X279486Y31503D1*
X279640Y31460D1*
X279787Y31397D1*
X279924Y31316D1*
X280050Y31216D1*
X280161Y31102D1*
X280256Y30973D1*
X280334Y30833D1*
X280392Y30684D1*
X280430Y30529D1*
X280447Y30370D1*
X280448Y30300D1*
X221692Y84565D2*
X221668Y84266D1*
X221617Y83971D1*
X221539Y83681D1*
X221433Y83400D1*
X221302Y83131D1*
X221146Y82874D1*
X220967Y82634D1*
X220766Y82411D1*
X220546Y82208D1*
X220307Y82027D1*
X220052Y81868D1*
X219784Y81735D1*
X219504Y81626D1*
X219215Y81545D1*
X218920Y81491D1*
X218622Y81464D1*
X218322Y81466D1*
X218023Y81496D1*
X217729Y81553D1*
X217441Y81638D1*
X217163Y81749D1*
X216954Y81855D1*
X216981Y81733D1*
X216998Y81530D1*
X216982Y81331D1*
X216935Y81137D1*
X216858Y80952D1*
X216752Y80783D1*
X216621Y80632D1*
X216468Y80504D1*
X216296Y80402D1*
X216110Y80328D1*
X215915Y80284D1*
X215716Y80272D1*
X215517Y80292D1*
X215324Y80343D1*
X215141Y80424D1*
X214974Y80532D1*
X214825Y80666D1*
X214700Y80822D1*
X214601Y80995D1*
X214531Y81182D1*
X214491Y81378D1*
X214483Y81578D1*
X214506Y81776D1*
X214561Y81968D1*
X214645Y82150D1*
X214757Y82315D1*
X214894Y82461D1*
X215052Y82583D1*
X215227Y82679D1*
X215416Y82745D1*
X215612Y82781D1*
X215812Y82786D1*
X215902Y82777D1*
X215760Y82989D1*
X215615Y83252D1*
X215496Y83527D1*
X215402Y83812D1*
X215336Y84104D1*
X215298Y84402D1*
X215287Y84701D1*
X215304Y85001D1*
X215350Y85297D1*
X215423Y85588D1*
X215522Y85871D1*
X215648Y86143D1*
X215799Y86402D1*
X215973Y86647D1*
X216169Y86873D1*
X216386Y87081D1*
X216621Y87267D1*
X216873Y87430D1*
X217138Y87569D1*
X217416Y87683D1*
X217703Y87770D1*
X217997Y87830D1*
X218295Y87862D1*
X218595Y87867D1*
X218894Y87843D1*
X219189Y87791D1*
X219478Y87712D1*
X219759Y87606D1*
X220028Y87475D1*
X220284Y87319D1*
X220525Y87139D1*
X220747Y86938D1*
X220950Y86717D1*
X221131Y86478D1*
X221289Y86223D1*
X221422Y85954D1*
X221530Y85675D1*
X221611Y85386D1*
X221665Y85091D1*
X221691Y84792D1*
X221692Y84565D1*
X279692D2*
X279668Y84266D1*
X279617Y83971D1*
X279539Y83681D1*
X279433Y83400D1*
X279302Y83131D1*
X279146Y82874D1*
X279076Y82775D1*
X279212Y82788D1*
X279411Y82776D1*
X279606Y82733D1*
X279792Y82660D1*
X279964Y82559D1*
X280118Y82431D1*
X280250Y82281D1*
X280356Y82111D1*
X280434Y81927D1*
X280481Y81733D1*
X280498Y81530D1*
X280482Y81331D1*
X280435Y81137D1*
X280358Y80952D1*
X280252Y80783D1*
X280121Y80632D1*
X279968Y80504D1*
X279796Y80402D1*
X279610Y80328D1*
X279415Y80284D1*
X279216Y80272D1*
X279017Y80292D1*
X278824Y80343D1*
X278641Y80424D1*
X278474Y80532D1*
X278325Y80666D1*
X278200Y80822D1*
X278101Y80995D1*
X278031Y81182D1*
X277991Y81378D1*
X277983Y81578D1*
X278006Y81776D1*
X278025Y81852D1*
X277784Y81735D1*
X277504Y81626D1*
X277215Y81545D1*
X276920Y81491D1*
X276622Y81464D1*
X276322Y81466D1*
X276023Y81496D1*
X275729Y81553D1*
X275441Y81638D1*
X275163Y81749D1*
X274896Y81886D1*
X274643Y82048D1*
X274407Y82232D1*
X274188Y82437D1*
X273990Y82662D1*
X273814Y82905D1*
X273661Y83163D1*
X273533Y83434D1*
X273430Y83716D1*
X273355Y84006D1*
X273307Y84302D1*
X273287Y84601D1*
X273295Y84901D1*
X273331Y85199D1*
X273395Y85492D1*
X273486Y85778D1*
X273603Y86054D1*
X273746Y86318D1*
X273912Y86567D1*
X274102Y86800D1*
X274312Y87014D1*
X274541Y87207D1*
X274787Y87378D1*
X275048Y87526D1*
X275322Y87648D1*
X275606Y87744D1*
X275898Y87813D1*
X276195Y87855D1*
X276495Y87868D1*
X276794Y87854D1*
X277091Y87811D1*
X277383Y87741D1*
X277666Y87644D1*
X277940Y87521D1*
X278201Y87373D1*
X278446Y87201D1*
X278675Y87007D1*
X278885Y86793D1*
X279073Y86560D1*
X279239Y86310D1*
X279381Y86045D1*
X279497Y85769D1*
X279587Y85483D1*
X279650Y85190D1*
X279685Y84892D1*
X279693Y84665D1*
X279692Y84565D1*
X338914Y81430D2*
X338882Y81233D1*
X338820Y81043D1*
X338728Y80866D1*
X338610Y80705D1*
X338467Y80565D1*
X338304Y80449D1*
X338125Y80361D1*
X337934Y80302D1*
X337736Y80274D1*
X337536Y80278D1*
X337340Y80313D1*
X337151Y80380D1*
X336975Y80475D1*
X336817Y80596D1*
X336680Y80742D1*
X336567Y80907D1*
X336482Y81088D1*
X336427Y81280D1*
X336403Y81478D1*
X336411Y81678D1*
X336450Y81873D1*
X336519Y82061D1*
X336618Y82235D1*
X336743Y82391D1*
X336890Y82525D1*
X337058Y82634D1*
X337240Y82716D1*
X337433Y82767D1*
X337632Y82788D1*
X337831Y82776D1*
X338026Y82733D1*
X338212Y82660D1*
X338384Y82559D1*
X338538Y82431D1*
X338670Y82281D1*
X338776Y82111D1*
X338854Y81927D1*
X338901Y81733D1*
X338918Y81530D1*
X338914Y81430D1*
X336374D2*
X336342Y81233D1*
X336280Y81043D1*
X336188Y80866D1*
X336070Y80705D1*
X335927Y80565D1*
X335764Y80449D1*
X335585Y80361D1*
X335394Y80302D1*
X335196Y80274D1*
X334996Y80278D1*
X334800Y80313D1*
X334611Y80380D1*
X334435Y80475D1*
X334277Y80596D1*
X334140Y80742D1*
X334027Y80907D1*
X333942Y81088D1*
X333887Y81280D1*
X333863Y81478D1*
X333871Y81678D1*
X333910Y81873D1*
X333979Y82061D1*
X334078Y82235D1*
X334203Y82391D1*
X334350Y82525D1*
X334518Y82634D1*
X334700Y82716D1*
X334893Y82767D1*
X335092Y82788D1*
X335291Y82776D1*
X335486Y82733D1*
X335672Y82660D1*
X335844Y82559D1*
X335998Y82431D1*
X336130Y82281D1*
X336236Y82111D1*
X336314Y81927D1*
X336361Y81733D1*
X336378Y81530D1*
X336374Y81430D1*
X333834D2*
X333802Y81233D1*
X333740Y81043D1*
X333648Y80866D1*
X333530Y80705D1*
X333387Y80565D1*
X333224Y80449D1*
X333045Y80361D1*
X332854Y80302D1*
X332656Y80274D1*
X332456Y80278D1*
X332260Y80313D1*
X332071Y80380D1*
X331895Y80475D1*
X331737Y80596D1*
X331600Y80742D1*
X331487Y80907D1*
X331402Y81088D1*
X331347Y81280D1*
X331323Y81478D1*
X331331Y81678D1*
X331370Y81873D1*
X331439Y82061D1*
X331538Y82235D1*
X331663Y82391D1*
X331810Y82525D1*
X331978Y82634D1*
X332160Y82716D1*
X332353Y82767D1*
X332552Y82788D1*
X332751Y82776D1*
X332946Y82733D1*
X333132Y82660D1*
X333304Y82559D1*
X333458Y82431D1*
X333590Y82281D1*
X333696Y82111D1*
X333774Y81927D1*
X333821Y81733D1*
X333838Y81530D1*
X333834Y81430D1*
X331294D2*
X331262Y81233D1*
X331200Y81043D1*
X331108Y80866D1*
X330990Y80705D1*
X330847Y80565D1*
X330684Y80449D1*
X330505Y80361D1*
X330314Y80302D1*
X330116Y80274D1*
X329916Y80278D1*
X329720Y80313D1*
X329531Y80380D1*
X329355Y80475D1*
X329197Y80596D1*
X329060Y80742D1*
X328947Y80907D1*
X328862Y81088D1*
X328807Y81280D1*
X328783Y81478D1*
X328791Y81678D1*
X328830Y81873D1*
X328899Y82061D1*
X328998Y82235D1*
X329123Y82391D1*
X329270Y82525D1*
X329438Y82634D1*
X329620Y82716D1*
X329813Y82767D1*
X330012Y82788D1*
X330211Y82776D1*
X330406Y82733D1*
X330592Y82660D1*
X330764Y82559D1*
X330918Y82431D1*
X331050Y82281D1*
X331156Y82111D1*
X331234Y81927D1*
X331281Y81733D1*
X331298Y81530D1*
X331294Y81430D1*
X328754D2*
X328722Y81233D1*
X328660Y81043D1*
X328568Y80866D1*
X328450Y80705D1*
X328307Y80565D1*
X328144Y80449D1*
X327965Y80361D1*
X327774Y80302D1*
X327576Y80274D1*
X327376Y80278D1*
X327180Y80313D1*
X326991Y80380D1*
X326815Y80475D1*
X326657Y80596D1*
X326520Y80742D1*
X326407Y80907D1*
X326322Y81088D1*
X326267Y81280D1*
X326243Y81478D1*
X326251Y81678D1*
X326290Y81873D1*
X326359Y82061D1*
X326458Y82235D1*
X326583Y82391D1*
X326730Y82525D1*
X326898Y82634D1*
X327080Y82716D1*
X327273Y82767D1*
X327472Y82788D1*
X327671Y82776D1*
X327866Y82733D1*
X328052Y82660D1*
X328224Y82559D1*
X328378Y82431D1*
X328510Y82281D1*
X328616Y82111D1*
X328694Y81927D1*
X328741Y81733D1*
X328758Y81530D1*
X328754Y81430D1*
X290654D2*
X290622Y81233D1*
X290560Y81043D1*
X290468Y80866D1*
X290350Y80705D1*
X290207Y80565D1*
X290044Y80449D1*
X289865Y80361D1*
X289674Y80302D1*
X289476Y80274D1*
X289276Y80278D1*
X289080Y80313D1*
X288891Y80380D1*
X288715Y80475D1*
X288557Y80596D1*
X288420Y80742D1*
X288307Y80907D1*
X288222Y81088D1*
X288167Y81280D1*
X288143Y81478D1*
X288151Y81678D1*
X288190Y81873D1*
X288259Y82061D1*
X288358Y82235D1*
X288483Y82391D1*
X288630Y82525D1*
X288798Y82634D1*
X288980Y82716D1*
X289173Y82767D1*
X289372Y82788D1*
X289571Y82776D1*
X289766Y82733D1*
X289952Y82660D1*
X290124Y82559D1*
X290278Y82431D1*
X290410Y82281D1*
X290516Y82111D1*
X290594Y81927D1*
X290641Y81733D1*
X290658Y81530D1*
X290654Y81430D1*
X288114D2*
X288082Y81233D1*
X288020Y81043D1*
X287928Y80866D1*
X287810Y80705D1*
X287667Y80565D1*
X287504Y80449D1*
X287325Y80361D1*
X287134Y80302D1*
X286936Y80274D1*
X286736Y80278D1*
X286540Y80313D1*
X286351Y80380D1*
X286175Y80475D1*
X286017Y80596D1*
X285880Y80742D1*
X285767Y80907D1*
X285682Y81088D1*
X285627Y81280D1*
X285603Y81478D1*
X285611Y81678D1*
X285650Y81873D1*
X285719Y82061D1*
X285818Y82235D1*
X285943Y82391D1*
X286090Y82525D1*
X286258Y82634D1*
X286440Y82716D1*
X286633Y82767D1*
X286832Y82788D1*
X287031Y82776D1*
X287226Y82733D1*
X287412Y82660D1*
X287584Y82559D1*
X287738Y82431D1*
X287870Y82281D1*
X287976Y82111D1*
X288054Y81927D1*
X288101Y81733D1*
X288118Y81530D1*
X288114Y81430D1*
X285574D2*
X285542Y81233D1*
X285480Y81043D1*
X285388Y80866D1*
X285270Y80705D1*
X285127Y80565D1*
X284964Y80449D1*
X284785Y80361D1*
X284594Y80302D1*
X284396Y80274D1*
X284196Y80278D1*
X284000Y80313D1*
X283811Y80380D1*
X283635Y80475D1*
X283477Y80596D1*
X283340Y80742D1*
X283227Y80907D1*
X283142Y81088D1*
X283087Y81280D1*
X283063Y81478D1*
X283071Y81678D1*
X283110Y81873D1*
X283179Y82061D1*
X283278Y82235D1*
X283403Y82391D1*
X283550Y82525D1*
X283718Y82634D1*
X283900Y82716D1*
X284093Y82767D1*
X284292Y82788D1*
X284491Y82776D1*
X284686Y82733D1*
X284872Y82660D1*
X285044Y82559D1*
X285198Y82431D1*
X285330Y82281D1*
X285436Y82111D1*
X285514Y81927D1*
X285561Y81733D1*
X285578Y81530D1*
X285574Y81430D1*
X283034D2*
X283002Y81233D1*
X282940Y81043D1*
X282848Y80866D1*
X282730Y80705D1*
X282587Y80565D1*
X282424Y80449D1*
X282245Y80361D1*
X282054Y80302D1*
X281856Y80274D1*
X281656Y80278D1*
X281460Y80313D1*
X281271Y80380D1*
X281095Y80475D1*
X280937Y80596D1*
X280800Y80742D1*
X280687Y80907D1*
X280602Y81088D1*
X280547Y81280D1*
X280523Y81478D1*
X280531Y81678D1*
X280570Y81873D1*
X280639Y82061D1*
X280738Y82235D1*
X280863Y82391D1*
X281010Y82525D1*
X281178Y82634D1*
X281360Y82716D1*
X281553Y82767D1*
X281752Y82788D1*
X281951Y82776D1*
X282146Y82733D1*
X282332Y82660D1*
X282504Y82559D1*
X282658Y82431D1*
X282790Y82281D1*
X282896Y82111D1*
X282974Y81927D1*
X283021Y81733D1*
X283038Y81530D1*
X283034Y81430D1*
X214454D2*
X214422Y81233D1*
X214360Y81043D1*
X214268Y80866D1*
X214150Y80705D1*
X214007Y80565D1*
X213844Y80449D1*
X213665Y80361D1*
X213474Y80302D1*
X213276Y80274D1*
X213076Y80278D1*
X212880Y80313D1*
X212691Y80380D1*
X212515Y80475D1*
X212357Y80596D1*
X212220Y80742D1*
X212107Y80907D1*
X212022Y81088D1*
X211967Y81280D1*
X211943Y81478D1*
X211951Y81678D1*
X211990Y81873D1*
X212059Y82061D1*
X212158Y82235D1*
X212283Y82391D1*
X212430Y82525D1*
X212598Y82634D1*
X212780Y82716D1*
X212973Y82767D1*
X213172Y82788D1*
X213371Y82776D1*
X213566Y82733D1*
X213752Y82660D1*
X213924Y82559D1*
X214078Y82431D1*
X214210Y82281D1*
X214316Y82111D1*
X214394Y81927D1*
X214441Y81733D1*
X214458Y81530D1*
X214454Y81430D1*
X211914D2*
X211882Y81233D1*
X211820Y81043D1*
X211728Y80866D1*
X211610Y80705D1*
X211467Y80565D1*
X211304Y80449D1*
X211125Y80361D1*
X210934Y80302D1*
X210736Y80274D1*
X210536Y80278D1*
X210340Y80313D1*
X210151Y80380D1*
X209975Y80475D1*
X209817Y80596D1*
X209680Y80742D1*
X209567Y80907D1*
X209482Y81088D1*
X209427Y81280D1*
X209403Y81478D1*
X209411Y81678D1*
X209450Y81873D1*
X209519Y82061D1*
X209618Y82235D1*
X209743Y82391D1*
X209890Y82525D1*
X210058Y82634D1*
X210240Y82716D1*
X210433Y82767D1*
X210632Y82788D1*
X210831Y82776D1*
X211026Y82733D1*
X211212Y82660D1*
X211384Y82559D1*
X211538Y82431D1*
X211670Y82281D1*
X211776Y82111D1*
X211854Y81927D1*
X211901Y81733D1*
X211918Y81530D1*
X211914Y81430D1*
X209374D2*
X209342Y81233D1*
X209280Y81043D1*
X209188Y80866D1*
X209070Y80705D1*
X208927Y80565D1*
X208764Y80449D1*
X208585Y80361D1*
X208394Y80302D1*
X208196Y80274D1*
X207996Y80278D1*
X207800Y80313D1*
X207611Y80380D1*
X207435Y80475D1*
X207277Y80596D1*
X207140Y80742D1*
X207027Y80907D1*
X206942Y81088D1*
X206887Y81280D1*
X206863Y81478D1*
X206871Y81678D1*
X206910Y81873D1*
X206979Y82061D1*
X207078Y82235D1*
X207203Y82391D1*
X207350Y82525D1*
X207518Y82634D1*
X207700Y82716D1*
X207893Y82767D1*
X208092Y82788D1*
X208291Y82776D1*
X208486Y82733D1*
X208672Y82660D1*
X208844Y82559D1*
X208998Y82431D1*
X209130Y82281D1*
X209236Y82111D1*
X209314Y81927D1*
X209361Y81733D1*
X209378Y81530D1*
X209374Y81430D1*
X206834D2*
X206802Y81233D1*
X206740Y81043D1*
X206648Y80866D1*
X206530Y80705D1*
X206387Y80565D1*
X206224Y80449D1*
X206045Y80361D1*
X205854Y80302D1*
X205656Y80274D1*
X205456Y80278D1*
X205260Y80313D1*
X205071Y80380D1*
X204895Y80475D1*
X204737Y80596D1*
X204600Y80742D1*
X204487Y80907D1*
X204402Y81088D1*
X204347Y81280D1*
X204323Y81478D1*
X204331Y81678D1*
X204370Y81873D1*
X204439Y82061D1*
X204538Y82235D1*
X204663Y82391D1*
X204810Y82525D1*
X204978Y82634D1*
X205160Y82716D1*
X205353Y82767D1*
X205552Y82788D1*
X205751Y82776D1*
X205946Y82733D1*
X206132Y82660D1*
X206304Y82559D1*
X206458Y82431D1*
X206590Y82281D1*
X206696Y82111D1*
X206774Y81927D1*
X206821Y81733D1*
X206838Y81530D1*
X206834Y81430D1*
X168734D2*
X168702Y81233D1*
X168640Y81043D1*
X168548Y80866D1*
X168430Y80705D1*
X168287Y80565D1*
X168124Y80449D1*
X167945Y80361D1*
X167754Y80302D1*
X167556Y80274D1*
X167356Y80278D1*
X167160Y80313D1*
X166971Y80380D1*
X166795Y80475D1*
X166637Y80596D1*
X166500Y80742D1*
X166387Y80907D1*
X166302Y81088D1*
X166247Y81280D1*
X166223Y81478D1*
X166231Y81678D1*
X166270Y81873D1*
X166339Y82061D1*
X166438Y82235D1*
X166563Y82391D1*
X166710Y82525D1*
X166878Y82634D1*
X167060Y82716D1*
X167253Y82767D1*
X167452Y82788D1*
X167651Y82776D1*
X167846Y82733D1*
X168032Y82660D1*
X168204Y82559D1*
X168358Y82431D1*
X168490Y82281D1*
X168596Y82111D1*
X168674Y81927D1*
X168721Y81733D1*
X168738Y81530D1*
X168734Y81430D1*
X166194D2*
X166162Y81233D1*
X166100Y81043D1*
X166008Y80866D1*
X165890Y80705D1*
X165747Y80565D1*
X165584Y80449D1*
X165405Y80361D1*
X165214Y80302D1*
X165016Y80274D1*
X164816Y80278D1*
X164620Y80313D1*
X164431Y80380D1*
X164255Y80475D1*
X164097Y80596D1*
X163960Y80742D1*
X163847Y80907D1*
X163762Y81088D1*
X163707Y81280D1*
X163683Y81478D1*
X163691Y81678D1*
X163730Y81873D1*
X163799Y82061D1*
X163898Y82235D1*
X164023Y82391D1*
X164170Y82525D1*
X164338Y82634D1*
X164520Y82716D1*
X164713Y82767D1*
X164912Y82788D1*
X165111Y82776D1*
X165306Y82733D1*
X165492Y82660D1*
X165664Y82559D1*
X165818Y82431D1*
X165950Y82281D1*
X166056Y82111D1*
X166134Y81927D1*
X166181Y81733D1*
X166198Y81530D1*
X166194Y81430D1*
X163654D2*
X163622Y81233D1*
X163560Y81043D1*
X163468Y80866D1*
X163350Y80705D1*
X163207Y80565D1*
X163044Y80449D1*
X162865Y80361D1*
X162674Y80302D1*
X162476Y80274D1*
X162276Y80278D1*
X162080Y80313D1*
X161891Y80380D1*
X161715Y80475D1*
X161557Y80596D1*
X161420Y80742D1*
X161307Y80907D1*
X161222Y81088D1*
X161167Y81280D1*
X161143Y81478D1*
X161151Y81678D1*
X161190Y81873D1*
X161259Y82061D1*
X161358Y82235D1*
X161483Y82391D1*
X161630Y82525D1*
X161798Y82634D1*
X161980Y82716D1*
X162173Y82767D1*
X162372Y82788D1*
X162571Y82776D1*
X162766Y82733D1*
X162952Y82660D1*
X163124Y82559D1*
X163278Y82431D1*
X163410Y82281D1*
X163516Y82111D1*
X163594Y81927D1*
X163641Y81733D1*
X163658Y81530D1*
X163654Y81430D1*
X161114D2*
X161082Y81233D1*
X161020Y81043D1*
X160928Y80866D1*
X160810Y80705D1*
X160667Y80565D1*
X160504Y80449D1*
X160325Y80361D1*
X160134Y80302D1*
X159936Y80274D1*
X159736Y80278D1*
X159540Y80313D1*
X159351Y80380D1*
X159175Y80475D1*
X159017Y80596D1*
X158880Y80742D1*
X158767Y80907D1*
X158682Y81088D1*
X158627Y81280D1*
X158603Y81478D1*
X158611Y81678D1*
X158650Y81873D1*
X158719Y82061D1*
X158818Y82235D1*
X158943Y82391D1*
X159090Y82525D1*
X159258Y82634D1*
X159440Y82716D1*
X159633Y82767D1*
X159832Y82788D1*
X160031Y82776D1*
X160226Y82733D1*
X160412Y82660D1*
X160584Y82559D1*
X160738Y82431D1*
X160870Y82281D1*
X160976Y82111D1*
X161054Y81927D1*
X161101Y81733D1*
X161118Y81530D1*
X161114Y81430D1*
X158574D2*
X158542Y81233D1*
X158480Y81043D1*
X158388Y80866D1*
X158270Y80705D1*
X158127Y80565D1*
X157964Y80449D1*
X157785Y80361D1*
X157594Y80302D1*
X157396Y80274D1*
X157196Y80278D1*
X157000Y80313D1*
X156811Y80380D1*
X156635Y80475D1*
X156477Y80596D1*
X156340Y80742D1*
X156227Y80907D1*
X156142Y81088D1*
X156087Y81280D1*
X156063Y81478D1*
X156071Y81678D1*
X156110Y81873D1*
X156179Y82061D1*
X156278Y82235D1*
X156403Y82391D1*
X156550Y82525D1*
X156718Y82634D1*
X156900Y82716D1*
X157093Y82767D1*
X157292Y82788D1*
X157491Y82776D1*
X157686Y82733D1*
X157872Y82660D1*
X158044Y82559D1*
X158198Y82431D1*
X158330Y82281D1*
X158436Y82111D1*
X158514Y81927D1*
X158561Y81733D1*
X158578Y81530D1*
X158574Y81430D1*
X95074D2*
X95042Y81233D1*
X94980Y81043D1*
X94888Y80866D1*
X94770Y80705D1*
X94627Y80565D1*
X94464Y80449D1*
X94285Y80361D1*
X94094Y80302D1*
X93896Y80274D1*
X93696Y80278D1*
X93500Y80313D1*
X93311Y80380D1*
X93135Y80475D1*
X92977Y80596D1*
X92840Y80742D1*
X92727Y80907D1*
X92642Y81088D1*
X92587Y81280D1*
X92563Y81478D1*
X92571Y81678D1*
X92610Y81873D1*
X92679Y82061D1*
X92778Y82235D1*
X92903Y82391D1*
X93050Y82525D1*
X93218Y82634D1*
X93400Y82716D1*
X93593Y82767D1*
X93792Y82788D1*
X93991Y82776D1*
X94186Y82733D1*
X94372Y82660D1*
X94544Y82559D1*
X94698Y82431D1*
X94830Y82281D1*
X94936Y82111D1*
X95014Y81927D1*
X95061Y81733D1*
X95078Y81530D1*
X95074Y81430D1*
X92534D2*
X92502Y81233D1*
X92440Y81043D1*
X92348Y80866D1*
X92230Y80705D1*
X92087Y80565D1*
X91924Y80449D1*
X91745Y80361D1*
X91554Y80302D1*
X91356Y80274D1*
X91156Y80278D1*
X90960Y80313D1*
X90771Y80380D1*
X90595Y80475D1*
X90437Y80596D1*
X90300Y80742D1*
X90187Y80907D1*
X90102Y81088D1*
X90047Y81280D1*
X90023Y81478D1*
X90031Y81678D1*
X90070Y81873D1*
X90139Y82061D1*
X90238Y82235D1*
X90363Y82391D1*
X90510Y82525D1*
X90678Y82634D1*
X90860Y82716D1*
X91053Y82767D1*
X91252Y82788D1*
X91451Y82776D1*
X91646Y82733D1*
X91832Y82660D1*
X92004Y82559D1*
X92158Y82431D1*
X92290Y82281D1*
X92396Y82111D1*
X92474Y81927D1*
X92521Y81733D1*
X92538Y81530D1*
X92534Y81430D1*
X89994D2*
X89962Y81233D1*
X89900Y81043D1*
X89808Y80866D1*
X89690Y80705D1*
X89547Y80565D1*
X89384Y80449D1*
X89205Y80361D1*
X89014Y80302D1*
X88816Y80274D1*
X88616Y80278D1*
X88420Y80313D1*
X88231Y80380D1*
X88055Y80475D1*
X87897Y80596D1*
X87760Y80742D1*
X87647Y80907D1*
X87562Y81088D1*
X87507Y81280D1*
X87483Y81478D1*
X87491Y81678D1*
X87530Y81873D1*
X87599Y82061D1*
X87698Y82235D1*
X87823Y82391D1*
X87970Y82525D1*
X88138Y82634D1*
X88320Y82716D1*
X88513Y82767D1*
X88712Y82788D1*
X88911Y82776D1*
X89106Y82733D1*
X89292Y82660D1*
X89464Y82559D1*
X89618Y82431D1*
X89750Y82281D1*
X89856Y82111D1*
X89934Y81927D1*
X89981Y81733D1*
X89998Y81530D1*
X89994Y81430D1*
X87454D2*
X87422Y81233D1*
X87360Y81043D1*
X87268Y80866D1*
X87150Y80705D1*
X87007Y80565D1*
X86844Y80449D1*
X86665Y80361D1*
X86474Y80302D1*
X86276Y80274D1*
X86076Y80278D1*
X85880Y80313D1*
X85691Y80380D1*
X85515Y80475D1*
X85357Y80596D1*
X85220Y80742D1*
X85107Y80907D1*
X85022Y81088D1*
X84967Y81280D1*
X84943Y81478D1*
X84951Y81678D1*
X84990Y81873D1*
X85059Y82061D1*
X85158Y82235D1*
X85283Y82391D1*
X85430Y82525D1*
X85598Y82634D1*
X85780Y82716D1*
X85973Y82767D1*
X86172Y82788D1*
X86371Y82776D1*
X86566Y82733D1*
X86752Y82660D1*
X86924Y82559D1*
X87078Y82431D1*
X87210Y82281D1*
X87316Y82111D1*
X87394Y81927D1*
X87441Y81733D1*
X87458Y81530D1*
X87454Y81430D1*
X84914D2*
X84882Y81233D1*
X84820Y81043D1*
X84728Y80866D1*
X84610Y80705D1*
X84467Y80565D1*
X84304Y80449D1*
X84125Y80361D1*
X83934Y80302D1*
X83736Y80274D1*
X83536Y80278D1*
X83340Y80313D1*
X83151Y80380D1*
X82975Y80475D1*
X82817Y80596D1*
X82680Y80742D1*
X82567Y80907D1*
X82482Y81088D1*
X82427Y81280D1*
X82403Y81478D1*
X82411Y81678D1*
X82450Y81873D1*
X82519Y82061D1*
X82618Y82235D1*
X82743Y82391D1*
X82890Y82525D1*
X83058Y82634D1*
X83240Y82716D1*
X83433Y82767D1*
X83632Y82788D1*
X83831Y82776D1*
X84026Y82733D1*
X84212Y82660D1*
X84384Y82559D1*
X84538Y82431D1*
X84670Y82281D1*
X84776Y82111D1*
X84854Y81927D1*
X84901Y81733D1*
X84918Y81530D1*
X84914Y81430D1*
X46814D2*
X46782Y81233D1*
X46720Y81043D1*
X46628Y80866D1*
X46510Y80705D1*
X46367Y80565D1*
X46204Y80449D1*
X46025Y80361D1*
X45834Y80302D1*
X45636Y80274D1*
X45436Y80278D1*
X45240Y80313D1*
X45051Y80380D1*
X44875Y80475D1*
X44717Y80596D1*
X44580Y80742D1*
X44467Y80907D1*
X44382Y81088D1*
X44327Y81280D1*
X44303Y81478D1*
X44311Y81678D1*
X44350Y81873D1*
X44419Y82061D1*
X44518Y82235D1*
X44643Y82391D1*
X44790Y82525D1*
X44958Y82634D1*
X45140Y82716D1*
X45333Y82767D1*
X45532Y82788D1*
X45731Y82776D1*
X45926Y82733D1*
X46112Y82660D1*
X46284Y82559D1*
X46438Y82431D1*
X46570Y82281D1*
X46676Y82111D1*
X46754Y81927D1*
X46801Y81733D1*
X46818Y81530D1*
X46814Y81430D1*
X44274D2*
X44242Y81233D1*
X44180Y81043D1*
X44088Y80866D1*
X43970Y80705D1*
X43827Y80565D1*
X43664Y80449D1*
X43485Y80361D1*
X43294Y80302D1*
X43096Y80274D1*
X42896Y80278D1*
X42700Y80313D1*
X42511Y80380D1*
X42335Y80475D1*
X42177Y80596D1*
X42040Y80742D1*
X41927Y80907D1*
X41842Y81088D1*
X41787Y81280D1*
X41763Y81478D1*
X41771Y81678D1*
X41810Y81873D1*
X41879Y82061D1*
X41978Y82235D1*
X42103Y82391D1*
X42250Y82525D1*
X42418Y82634D1*
X42600Y82716D1*
X42793Y82767D1*
X42992Y82788D1*
X43191Y82776D1*
X43386Y82733D1*
X43572Y82660D1*
X43744Y82559D1*
X43898Y82431D1*
X44030Y82281D1*
X44136Y82111D1*
X44214Y81927D1*
X44261Y81733D1*
X44278Y81530D1*
X44274Y81430D1*
X41734D2*
X41702Y81233D1*
X41640Y81043D1*
X41548Y80866D1*
X41430Y80705D1*
X41287Y80565D1*
X41124Y80449D1*
X40945Y80361D1*
X40754Y80302D1*
X40556Y80274D1*
X40356Y80278D1*
X40160Y80313D1*
X39971Y80380D1*
X39795Y80475D1*
X39637Y80596D1*
X39500Y80742D1*
X39387Y80907D1*
X39302Y81088D1*
X39247Y81280D1*
X39223Y81478D1*
X39231Y81678D1*
X39270Y81873D1*
X39339Y82061D1*
X39438Y82235D1*
X39563Y82391D1*
X39710Y82525D1*
X39878Y82634D1*
X40060Y82716D1*
X40253Y82767D1*
X40452Y82788D1*
X40651Y82776D1*
X40846Y82733D1*
X41032Y82660D1*
X41204Y82559D1*
X41358Y82431D1*
X41490Y82281D1*
X41596Y82111D1*
X41674Y81927D1*
X41721Y81733D1*
X41738Y81530D1*
X41734Y81430D1*
X39194D2*
X39162Y81233D1*
X39100Y81043D1*
X39008Y80866D1*
X38890Y80705D1*
X38747Y80565D1*
X38584Y80449D1*
X38405Y80361D1*
X38214Y80302D1*
X38016Y80274D1*
X37816Y80278D1*
X37620Y80313D1*
X37431Y80380D1*
X37255Y80475D1*
X37097Y80596D1*
X36960Y80742D1*
X36847Y80907D1*
X36762Y81088D1*
X36707Y81280D1*
X36683Y81478D1*
X36691Y81678D1*
X36730Y81873D1*
X36799Y82061D1*
X36898Y82235D1*
X37023Y82391D1*
X37170Y82525D1*
X37338Y82634D1*
X37520Y82716D1*
X37713Y82767D1*
X37912Y82788D1*
X38111Y82776D1*
X38306Y82733D1*
X38492Y82660D1*
X38664Y82559D1*
X38818Y82431D1*
X38950Y82281D1*
X39056Y82111D1*
X39134Y81927D1*
X39181Y81733D1*
X39198Y81530D1*
X39194Y81430D1*
X36654D2*
X36622Y81233D1*
X36560Y81043D1*
X36468Y80866D1*
X36350Y80705D1*
X36207Y80565D1*
X36044Y80449D1*
X35865Y80361D1*
X35674Y80302D1*
X35476Y80274D1*
X35276Y80278D1*
X35080Y80313D1*
X34891Y80380D1*
X34715Y80475D1*
X34557Y80596D1*
X34420Y80742D1*
X34307Y80907D1*
X34222Y81088D1*
X34167Y81280D1*
X34143Y81478D1*
X34151Y81678D1*
X34190Y81873D1*
X34259Y82061D1*
X34358Y82235D1*
X34483Y82391D1*
X34630Y82525D1*
X34798Y82634D1*
X34980Y82716D1*
X35173Y82767D1*
X35372Y82788D1*
X35571Y82776D1*
X35766Y82733D1*
X35952Y82660D1*
X36124Y82559D1*
X36278Y82431D1*
X36410Y82281D1*
X36516Y82111D1*
X36594Y81927D1*
X36641Y81733D1*
X36658Y81530D1*
X36654Y81430D1*
X355670Y24925D2*
X355643Y24727D1*
X355591Y24534D1*
X355513Y24350D1*
X355412Y24178D1*
X355289Y24021D1*
X355145Y23881D1*
X354985Y23762D1*
X354810Y23665D1*
X354624Y23592D1*
X354430Y23544D1*
X354231Y23523D1*
X354032Y23528D1*
X353834Y23560D1*
X353643Y23617D1*
X353461Y23699D1*
X353291Y23805D1*
X353137Y23933D1*
X353001Y24079D1*
X352886Y24243D1*
X352794Y24420D1*
X352726Y24608D1*
X352683Y24803D1*
X352667Y25002D1*
X352677Y25202D1*
X352714Y25398D1*
X352776Y25588D1*
X352863Y25768D1*
X352973Y25935D1*
X353104Y26085D1*
X353255Y26217D1*
X353421Y26328D1*
X353600Y26416D1*
X353790Y26479D1*
X353986Y26517D1*
X354186Y26528D1*
X354385Y26513D1*
X354580Y26471D1*
X354769Y26404D1*
X354946Y26312D1*
X355110Y26198D1*
X355257Y26063D1*
X355386Y25910D1*
X355492Y25741D1*
X355575Y25559D1*
X355634Y25368D1*
X355666Y25170D1*
X355673Y25025D1*
X355670Y24925D1*
X351170D2*
X351143Y24727D1*
X351091Y24534D1*
X351013Y24350D1*
X350912Y24178D1*
X350789Y24021D1*
X350645Y23881D1*
X350485Y23762D1*
X350310Y23665D1*
X350124Y23592D1*
X349930Y23544D1*
X349731Y23523D1*
X349532Y23528D1*
X349334Y23560D1*
X349143Y23617D1*
X348961Y23699D1*
X348791Y23805D1*
X348637Y23933D1*
X348501Y24079D1*
X348386Y24243D1*
X348294Y24420D1*
X348226Y24608D1*
X348183Y24803D1*
X348167Y25002D1*
X348177Y25202D1*
X348214Y25398D1*
X348276Y25588D1*
X348363Y25768D1*
X348473Y25935D1*
X348604Y26085D1*
X348755Y26217D1*
X348921Y26328D1*
X349100Y26416D1*
X349290Y26479D1*
X349486Y26517D1*
X349686Y26528D1*
X349885Y26513D1*
X350080Y26471D1*
X350269Y26404D1*
X350446Y26312D1*
X350610Y26198D1*
X350757Y26063D1*
X350886Y25910D1*
X350992Y25741D1*
X351075Y25559D1*
X351134Y25368D1*
X351166Y25170D1*
X351173Y25025D1*
X351170Y24925D1*
X201572Y36114D2*
X201511Y36009D1*
X201388Y35851D1*
X201241Y35716D1*
X201073Y35607D1*
X200890Y35527D1*
X200697Y35478D1*
X200498Y35462D1*
X200298Y35479D1*
X200105Y35528D1*
X199922Y35609D1*
X199755Y35719D1*
X199609Y35855D1*
X199486Y36013D1*
X199392Y36189D1*
X199328Y36378D1*
X199296Y36575D1*
X199297Y36775D1*
X199330Y36972D1*
X199396Y37160D1*
X199492Y37336D1*
X199615Y37493D1*
X199763Y37627D1*
X199931Y37736D1*
X200114Y37815D1*
X200308Y37863D1*
X200507Y37878D1*
X200706Y37860D1*
X200900Y37810D1*
X201082Y37728D1*
X201249Y37618D1*
X201395Y37482D1*
X201516Y37323D1*
X201559Y37250D1*
X202719Y38408D1*
X204550Y40240D1*
X204627Y40304D1*
X204714Y40353D1*
X204808Y40386D1*
X204892Y40400D1*
X205545Y40403D1*
X228440D1*
X228539Y40394D1*
X228636Y40368D1*
X228726Y40324D1*
X228795Y40275D1*
X229259Y39815D1*
X231846Y37228D1*
X235918D1*
X235975Y37302D1*
X236045Y37374D1*
X236122Y37438D1*
X236205Y37493D1*
X236293Y37540D1*
X236386Y37577D1*
X236482Y37604D1*
X236581Y37621D1*
X236681Y37628D1*
X236780Y37624D1*
X236879Y37610D1*
X236976Y37586D1*
X237070Y37551D1*
X237160Y37508D1*
X237245Y37455D1*
X237324Y37393D1*
X237395Y37324D1*
X237460Y37247D1*
X237516Y37164D1*
X237563Y37076D1*
X237600Y36983D1*
X237628Y36887D1*
X237646Y36789D1*
X237653Y36670D1*
X237648Y36570D1*
X237632Y36471D1*
X237606Y36375D1*
X237571Y36282D1*
X237525Y36192D1*
X237471Y36108D1*
X237408Y36031D1*
X237338Y35960D1*
X237260Y35897D1*
X237177Y35842D1*
X237088Y35796D1*
X236995Y35760D1*
X236898Y35734D1*
X236800Y35718D1*
X236700Y35712D1*
X236600Y35717D1*
X236501Y35732D1*
X236404Y35757D1*
X236311Y35792D1*
X236222Y35837D1*
X236137Y35891D1*
X236059Y35953D1*
X235988Y36023D1*
X235916Y36114D1*
X234595Y36112D1*
X231615D1*
X231516Y36121D1*
X231419Y36147D1*
X231329Y36191D1*
X231260Y36240D1*
X230796Y36700D1*
X228209Y39287D1*
X205174D1*
X202165Y36275D1*
X202088Y36211D1*
X202001Y36162D1*
X201907Y36129D1*
X201823Y36115D1*
X201573Y36112D1*
X199168Y36650D2*
X199155Y36491D1*
X199120Y36334D1*
X199066Y36184D1*
X198992Y36042D1*
X198900Y35912D1*
X198792Y35794D1*
X198669Y35692D1*
X198533Y35607D1*
X198388Y35540D1*
X198235Y35494D1*
X198077Y35468D1*
X197918Y35463D1*
X197758Y35479D1*
X197603Y35516D1*
X197454Y35573D1*
X197313Y35650D1*
X197184Y35744D1*
X197069Y35855D1*
X196969Y35979D1*
X196886Y36116D1*
X196823Y36263D1*
X196779Y36417D1*
X196756Y36575D1*
X196754Y36735D1*
X196773Y36894D1*
X196813Y37048D1*
X196873Y37197D1*
X196952Y37336D1*
X197049Y37463D1*
X197161Y37576D1*
X197288Y37674D1*
X197427Y37754D1*
X197574Y37815D1*
X197729Y37856D1*
X197887Y37876D1*
X198047Y37875D1*
X198206Y37853D1*
X198360Y37810D1*
X198507Y37747D1*
X198644Y37666D1*
X198770Y37566D1*
X198881Y37452D1*
X198976Y37323D1*
X199054Y37183D1*
X199112Y37034D1*
X199150Y36879D1*
X199167Y36720D1*
X199168Y36650D1*
X201572Y38654D2*
X201511Y38549D1*
X201388Y38391D1*
X201241Y38256D1*
X201073Y38147D1*
X200890Y38067D1*
X200697Y38018D1*
X200498Y38002D1*
X200298Y38019D1*
X200105Y38068D1*
X199922Y38149D1*
X199755Y38259D1*
X199609Y38395D1*
X199486Y38553D1*
X199392Y38729D1*
X199328Y38918D1*
X199296Y39115D1*
X199297Y39315D1*
X199330Y39512D1*
X199396Y39700D1*
X199492Y39876D1*
X199615Y40033D1*
X199763Y40167D1*
X199931Y40276D1*
X200114Y40355D1*
X200308Y40403D1*
X200507Y40418D1*
X200706Y40400D1*
X200900Y40350D1*
X201082Y40268D1*
X201249Y40158D1*
X201395Y40022D1*
X201516Y39863D1*
X201559Y39790D1*
X202719Y40948D1*
X203892Y42121D1*
X203969Y42185D1*
X204056Y42235D1*
X204150Y42268D1*
X204234Y42282D1*
X204887Y42285D1*
X235902D1*
X235975Y42382D1*
X236045Y42454D1*
X236122Y42518D1*
X236205Y42573D1*
X236293Y42620D1*
X236386Y42657D1*
X236482Y42684D1*
X236581Y42701D1*
X236681Y42708D1*
X236780Y42704D1*
X236879Y42690D1*
X236976Y42666D1*
X237070Y42631D1*
X237160Y42588D1*
X237245Y42535D1*
X237324Y42473D1*
X237395Y42404D1*
X237460Y42327D1*
X237516Y42244D1*
X237563Y42156D1*
X237600Y42063D1*
X237628Y41967D1*
X237646Y41869D1*
X237653Y41750D1*
X237648Y41650D1*
X237632Y41551D1*
X237606Y41455D1*
X237571Y41362D1*
X237525Y41272D1*
X237471Y41188D1*
X237408Y41111D1*
X237338Y41040D1*
X237260Y40977D1*
X237177Y40922D1*
X237088Y40876D1*
X236995Y40840D1*
X236898Y40814D1*
X236800Y40798D1*
X236700Y40792D1*
X236600Y40797D1*
X236501Y40812D1*
X236404Y40837D1*
X236311Y40872D1*
X236222Y40917D1*
X236137Y40971D1*
X236059Y41033D1*
X235934Y41169D1*
X204515D1*
X203550Y40201D1*
X202165Y38815D1*
X202088Y38751D1*
X202001Y38702D1*
X201907Y38669D1*
X201823Y38655D1*
X201573Y38652D1*
X199168Y39190D2*
X199155Y39031D1*
X199120Y38874D1*
X199066Y38724D1*
X198992Y38582D1*
X198900Y38452D1*
X198792Y38334D1*
X198669Y38232D1*
X198533Y38147D1*
X198388Y38080D1*
X198235Y38034D1*
X198077Y38008D1*
X197918Y38003D1*
X197758Y38019D1*
X197603Y38056D1*
X197454Y38113D1*
X197313Y38190D1*
X197184Y38284D1*
X197069Y38395D1*
X196969Y38519D1*
X196886Y38656D1*
X196823Y38803D1*
X196779Y38957D1*
X196756Y39115D1*
X196754Y39275D1*
X196773Y39434D1*
X196813Y39588D1*
X196873Y39737D1*
X196952Y39876D1*
X197049Y40003D1*
X197161Y40116D1*
X197288Y40214D1*
X197427Y40294D1*
X197574Y40355D1*
X197729Y40396D1*
X197887Y40416D1*
X198047Y40415D1*
X198206Y40393D1*
X198360Y40350D1*
X198507Y40287D1*
X198644Y40206D1*
X198770Y40106D1*
X198881Y39992D1*
X198976Y39863D1*
X199054Y39723D1*
X199112Y39574D1*
X199150Y39419D1*
X199167Y39260D1*
X199168Y39190D1*
X201572Y41194D2*
X201511Y41089D1*
X201388Y40931D1*
X201241Y40796D1*
X201073Y40687D1*
X200890Y40607D1*
X200697Y40558D1*
X200498Y40542D1*
X200298Y40559D1*
X200105Y40608D1*
X199922Y40689D1*
X199755Y40799D1*
X199609Y40935D1*
X199486Y41093D1*
X199392Y41269D1*
X199328Y41458D1*
X199296Y41655D1*
X199297Y41855D1*
X199330Y42052D1*
X199396Y42240D1*
X199492Y42416D1*
X199615Y42573D1*
X199763Y42707D1*
X199931Y42816D1*
X200114Y42895D1*
X200308Y42943D1*
X200507Y42958D1*
X200706Y42940D1*
X200900Y42890D1*
X201082Y42808D1*
X201249Y42698D1*
X201395Y42562D1*
X201516Y42403D1*
X201559Y42330D1*
X202719Y43488D1*
X203280Y44050D1*
X203357Y44114D1*
X203444Y44163D1*
X203538Y44196D1*
X203622Y44210D1*
X204275Y44213D1*
X225759D1*
X225815Y44287D1*
X225885Y44359D1*
X225962Y44423D1*
X226045Y44478D1*
X226133Y44525D1*
X226226Y44562D1*
X226322Y44589D1*
X226421Y44606D1*
X226521Y44613D1*
X226620Y44609D1*
X226719Y44595D1*
X226816Y44571D1*
X226910Y44536D1*
X227000Y44493D1*
X227085Y44440D1*
X227164Y44378D1*
X227235Y44309D1*
X227300Y44232D1*
X227356Y44149D1*
X227403Y44061D1*
X227440Y43968D1*
X227468Y43872D1*
X227486Y43774D1*
X227493Y43655D1*
X227488Y43555D1*
X227472Y43456D1*
X227446Y43360D1*
X227411Y43267D1*
X227365Y43177D1*
X227311Y43093D1*
X227248Y43016D1*
X227178Y42945D1*
X227100Y42882D1*
X227017Y42827D1*
X226928Y42781D1*
X226835Y42745D1*
X226738Y42719D1*
X226640Y42703D1*
X226540Y42697D1*
X226440Y42702D1*
X226341Y42717D1*
X226244Y42742D1*
X226151Y42777D1*
X226062Y42822D1*
X225977Y42876D1*
X225899Y42938D1*
X225828Y43008D1*
X225756Y43099D1*
X224435Y43097D1*
X203907D1*
X202165Y41355D1*
X202088Y41291D1*
X202001Y41242D1*
X201907Y41209D1*
X201823Y41195D1*
X201573Y41192D1*
X199164Y41650D2*
X199131Y41453D1*
X199066Y41264D1*
X198971Y41089D1*
X198848Y40931D1*
X198701Y40796D1*
X198533Y40687D1*
X198350Y40607D1*
X198157Y40558D1*
X197958Y40542D1*
X197758Y40559D1*
X197598Y40599D1*
X197085Y40085D1*
X197008Y40021D1*
X196921Y39972D1*
X196827Y39939D1*
X196743Y39925D1*
X196090Y39922D1*
X23568D1*
X23095Y39450D1*
X23018Y39386D1*
X22931Y39337D1*
X22837Y39304D1*
X22753Y39290D1*
X22100Y39287D1*
X18255D1*
X18156Y39296D1*
X18059Y39322D1*
X17969Y39366D1*
X17900Y39415D1*
X17436Y39875D1*
X14685Y42625D1*
X14621Y42702D1*
X14572Y42789D1*
X14539Y42883D1*
X14525Y42967D1*
X14522Y43620D1*
Y65880D1*
X14531Y65979D1*
X14557Y66076D1*
X14601Y66166D1*
X14650Y66235D1*
X15110Y66699D1*
X18495Y70085D1*
X18572Y70149D1*
X18659Y70198D1*
X18753Y70231D1*
X18837Y70245D1*
X18949Y70248D1*
X18952Y70782D1*
Y70898D1*
X21368D1*
Y68482D1*
X18952D1*
Y68966D1*
X18577Y68588D1*
X15636Y65647D1*
X15638Y63280D1*
Y43252D1*
X18486Y40403D1*
X22471D1*
X22940Y40875D1*
X23017Y40939D1*
X23104Y40988D1*
X23198Y41021D1*
X23282Y41035D1*
X23935Y41038D1*
X196457D1*
X196810Y41389D1*
X196768Y41556D1*
X196752Y41755D1*
X196769Y41954D1*
X196819Y42147D1*
X196900Y42330D1*
X197010Y42497D1*
X197146Y42643D1*
X197305Y42765D1*
X197481Y42859D1*
X197670Y42923D1*
X197868Y42954D1*
X198067Y42953D1*
X198264Y42919D1*
X198453Y42853D1*
X198628Y42757D1*
X198784Y42633D1*
X198919Y42485D1*
X199027Y42317D1*
X199106Y42133D1*
X199153Y41939D1*
X199168Y41750D1*
X199164Y41650D1*
X201572Y43734D2*
X201511Y43629D1*
X201388Y43471D1*
X201241Y43336D1*
X201073Y43227D1*
X200890Y43147D1*
X200697Y43098D1*
X200498Y43082D1*
X200298Y43099D1*
X200105Y43148D1*
X199922Y43229D1*
X199755Y43339D1*
X199609Y43475D1*
X199486Y43633D1*
X199392Y43809D1*
X199328Y43998D1*
X199296Y44195D1*
X199297Y44395D1*
X199330Y44592D1*
X199396Y44780D1*
X199492Y44956D1*
X199615Y45113D1*
X199763Y45247D1*
X199931Y45356D1*
X200114Y45435D1*
X200308Y45483D1*
X200507Y45498D1*
X200706Y45480D1*
X200900Y45430D1*
X201082Y45348D1*
X201249Y45238D1*
X201395Y45102D1*
X201516Y44943D1*
X201559Y44870D1*
X202482Y45792D1*
Y52951D1*
X201538Y53892D1*
X121267D1*
X121203Y53811D1*
X121133Y53740D1*
X121055Y53677D1*
X120972Y53622D1*
X120883Y53576D1*
X120790Y53540D1*
X120693Y53514D1*
X120595Y53498D1*
X120495Y53492D1*
X120395Y53497D1*
X120296Y53512D1*
X120199Y53537D1*
X120106Y53572D1*
X120017Y53617D1*
X119932Y53671D1*
X119854Y53733D1*
X119783Y53803D1*
X119720Y53881D1*
X119664Y53964D1*
X119618Y54053D1*
X119582Y54146D1*
X119555Y54242D1*
X119538Y54341D1*
X119532Y54440D1*
X119536Y54540D1*
X119551Y54639D1*
X119576Y54736D1*
X119610Y54830D1*
X119655Y54919D1*
X119708Y55004D1*
X119770Y55082D1*
X119840Y55154D1*
X119917Y55218D1*
X120000Y55273D1*
X120088Y55320D1*
X120181Y55357D1*
X120277Y55384D1*
X120376Y55401D1*
X120476Y55408D1*
X120575Y55404D1*
X120674Y55390D1*
X120771Y55366D1*
X120865Y55331D1*
X120955Y55288D1*
X121040Y55235D1*
X121119Y55173D1*
X121190Y55104D1*
X121267Y55009D1*
X137490Y55008D1*
X201770D1*
X201869Y54999D1*
X201966Y54973D1*
X202056Y54929D1*
X202125Y54880D1*
X202589Y54420D1*
X203435Y53575D1*
X203499Y53498D1*
X203548Y53411D1*
X203581Y53317D1*
X203595Y53233D1*
X203598Y52580D1*
Y45560D1*
X203589Y45461D1*
X203563Y45364D1*
X203519Y45274D1*
X203470Y45205D1*
X203010Y44741D1*
X202165Y43895D1*
X202088Y43831D1*
X202001Y43782D1*
X201907Y43749D1*
X201823Y43735D1*
X201573Y43732D1*
X199164Y44190D2*
X199131Y43993D1*
X199066Y43804D1*
X198971Y43629D1*
X198848Y43471D1*
X198701Y43336D1*
X198533Y43227D1*
X198350Y43147D1*
X198157Y43098D1*
X197958Y43082D1*
X197758Y43099D1*
X197598Y43139D1*
X197085Y42625D1*
X197008Y42561D1*
X196921Y42512D1*
X196827Y42479D1*
X196743Y42465D1*
X196090Y42462D1*
X105271Y42458D1*
X105208Y42381D1*
X105138Y42310D1*
X105060Y42247D1*
X104977Y42192D1*
X104888Y42146D1*
X104795Y42110D1*
X104698Y42084D1*
X104600Y42068D1*
X104500Y42062D1*
X104400Y42067D1*
X104301Y42082D1*
X104204Y42107D1*
X104111Y42142D1*
X104022Y42187D1*
X103937Y42241D1*
X103859Y42303D1*
X103788Y42373D1*
X103725Y42451D1*
X103669Y42534D1*
X103623Y42623D1*
X103587Y42716D1*
X103560Y42812D1*
X103543Y42911D1*
X103537Y43010D1*
X103541Y43110D1*
X103556Y43209D1*
X103581Y43306D1*
X103615Y43400D1*
X103660Y43489D1*
X103713Y43574D1*
X103775Y43652D1*
X103845Y43724D1*
X103922Y43788D1*
X104005Y43843D1*
X104093Y43890D1*
X104186Y43927D1*
X104282Y43954D1*
X104381Y43971D1*
X104481Y43978D1*
X104580Y43974D1*
X104679Y43960D1*
X104776Y43936D1*
X104870Y43901D1*
X104960Y43858D1*
X105045Y43805D1*
X105124Y43743D1*
X105195Y43674D1*
X105272Y43579D1*
X121495Y43578D1*
X196461D1*
X196810Y43929D1*
X196768Y44096D1*
X196752Y44295D1*
X196769Y44494D1*
X196819Y44687D1*
X196900Y44870D1*
X196987Y45004D1*
X195230Y45002D1*
X95866Y44998D1*
X95803Y44921D1*
X95733Y44850D1*
X95655Y44787D1*
X95572Y44732D1*
X95483Y44686D1*
X95390Y44650D1*
X95293Y44624D1*
X95195Y44608D1*
X95095Y44602D1*
X94995Y44607D1*
X94896Y44622D1*
X94799Y44647D1*
X94706Y44682D1*
X94617Y44727D1*
X94532Y44781D1*
X94454Y44843D1*
X94383Y44913D1*
X94320Y44991D1*
X94264Y45074D1*
X94218Y45163D1*
X94182Y45256D1*
X94155Y45352D1*
X94138Y45451D1*
X94132Y45550D1*
X94136Y45650D1*
X94151Y45749D1*
X94176Y45846D1*
X94210Y45940D1*
X94255Y46029D1*
X94308Y46114D1*
X94370Y46192D1*
X94440Y46264D1*
X94517Y46328D1*
X94600Y46383D1*
X94688Y46430D1*
X94781Y46467D1*
X94877Y46494D1*
X94976Y46511D1*
X95076Y46518D1*
X95175Y46514D1*
X95274Y46500D1*
X95371Y46476D1*
X95465Y46441D1*
X95555Y46398D1*
X95640Y46345D1*
X95719Y46283D1*
X95790Y46214D1*
X95867Y46119D1*
X112090Y46118D1*
X196987D1*
X196896Y46259D1*
X196816Y46442D1*
X196768Y46636D1*
X196752Y46835D1*
X196769Y47034D1*
X196809Y47195D1*
X196458Y47542D1*
X113012D1*
X112948Y47461D1*
X112878Y47390D1*
X112800Y47327D1*
X112717Y47272D1*
X112628Y47226D1*
X112535Y47190D1*
X112438Y47164D1*
X112340Y47148D1*
X112240Y47142D1*
X112140Y47147D1*
X112041Y47162D1*
X111944Y47187D1*
X111851Y47222D1*
X111762Y47267D1*
X111677Y47321D1*
X111599Y47383D1*
X111528Y47453D1*
X111465Y47531D1*
X111409Y47614D1*
X111363Y47703D1*
X111327Y47796D1*
X111300Y47892D1*
X111283Y47991D1*
X111277Y48090D1*
X111281Y48190D1*
X111296Y48289D1*
X111321Y48386D1*
X111355Y48480D1*
X111400Y48569D1*
X111453Y48654D1*
X111515Y48732D1*
X111585Y48804D1*
X111662Y48868D1*
X111745Y48923D1*
X111833Y48970D1*
X111926Y49007D1*
X112022Y49034D1*
X112121Y49051D1*
X112221Y49058D1*
X112320Y49054D1*
X112419Y49040D1*
X112516Y49016D1*
X112610Y48981D1*
X112700Y48938D1*
X112785Y48885D1*
X112864Y48823D1*
X112935Y48754D1*
X113012Y48659D1*
X129235Y48658D1*
X196690D1*
X196789Y48649D1*
X196886Y48623D1*
X196976Y48579D1*
X197045Y48530D1*
X197509Y48070D1*
X197599Y47980D1*
X197768Y48023D1*
X197967Y48038D1*
X198166Y48020D1*
X198360Y47970D1*
X198542Y47888D1*
X198709Y47778D1*
X198855Y47642D1*
X198976Y47483D1*
X199070Y47307D1*
X199133Y47117D1*
X199165Y46920D1*
X199164Y46730D1*
X199131Y46533D1*
X199066Y46344D1*
X198971Y46169D1*
X198933Y46115D1*
X198999Y46118D1*
X199350Y46469D1*
X199308Y46636D1*
X199292Y46835D1*
X199309Y47034D1*
X199359Y47227D1*
X199440Y47410D1*
X199550Y47577D1*
X199686Y47723D1*
X199845Y47845D1*
X200021Y47939D1*
X200210Y48003D1*
X200408Y48034D1*
X200607Y48033D1*
X200804Y47999D1*
X200993Y47933D1*
X201168Y47837D1*
X201324Y47713D1*
X201459Y47565D1*
X201567Y47397D1*
X201646Y47213D1*
X201693Y47019D1*
X201708Y46830D1*
X201691Y46631D1*
X201642Y46437D1*
X201562Y46254D1*
X201453Y46087D1*
X201317Y45940D1*
X201159Y45818D1*
X200984Y45723D1*
X200795Y45658D1*
X200597Y45626D1*
X200398D1*
X200201Y45660D1*
X200138Y45679D1*
X199625Y45165D1*
X199548Y45101D1*
X199461Y45052D1*
X199367Y45019D1*
X199283Y45005D1*
X198933Y45002D1*
X199027Y44857D1*
X199106Y44673D1*
X199153Y44479D1*
X199168Y44290D1*
X199164Y44190D1*
X201708Y49350D2*
X201695Y49191D1*
X201660Y49034D1*
X201606Y48884D1*
X201532Y48742D1*
X201440Y48612D1*
X201332Y48494D1*
X201209Y48392D1*
X201073Y48307D1*
X200928Y48240D1*
X200775Y48194D1*
X200617Y48168D1*
X200458Y48163D1*
X200298Y48179D1*
X200143Y48216D1*
X199994Y48273D1*
X199853Y48350D1*
X199724Y48444D1*
X199609Y48555D1*
X199509Y48679D1*
X199426Y48816D1*
X199363Y48963D1*
X199319Y49117D1*
X199296Y49275D1*
X199294Y49435D1*
X199313Y49594D1*
X199353Y49748D1*
X199413Y49897D1*
X199492Y50036D1*
X199589Y50163D1*
X199701Y50276D1*
X199828Y50374D1*
X199967Y50454D1*
X200114Y50515D1*
X200269Y50556D1*
X200427Y50576D1*
X200587Y50575D1*
X200746Y50553D1*
X200900Y50510D1*
X201047Y50447D1*
X201184Y50366D1*
X201310Y50266D1*
X201421Y50152D1*
X201516Y50023D1*
X201594Y49883D1*
X201652Y49734D1*
X201690Y49579D1*
X201707Y49420D1*
X201708Y49350D1*
X199168D2*
X199155Y49191D1*
X199120Y49034D1*
X199066Y48884D1*
X198992Y48742D1*
X198900Y48612D1*
X198792Y48494D1*
X198669Y48392D1*
X198533Y48307D1*
X198388Y48240D1*
X198235Y48194D1*
X198077Y48168D1*
X197918Y48163D1*
X197758Y48179D1*
X197603Y48216D1*
X197454Y48273D1*
X197313Y48350D1*
X197184Y48444D1*
X197069Y48555D1*
X196969Y48679D1*
X196886Y48816D1*
X196823Y48963D1*
X196779Y49117D1*
X196756Y49275D1*
X196754Y49435D1*
X196773Y49594D1*
X196813Y49748D1*
X196873Y49897D1*
X196952Y50036D1*
X197049Y50163D1*
X197161Y50276D1*
X197288Y50374D1*
X197427Y50454D1*
X197574Y50515D1*
X197729Y50556D1*
X197887Y50576D1*
X198047Y50575D1*
X198206Y50553D1*
X198360Y50510D1*
X198507Y50447D1*
X198644Y50366D1*
X198770Y50266D1*
X198881Y50152D1*
X198976Y50023D1*
X199054Y49883D1*
X199112Y49734D1*
X199150Y49579D1*
X199167Y49420D1*
X199168Y49350D1*
X201708Y51890D2*
X201695Y51731D1*
X201660Y51574D1*
X201606Y51424D1*
X201532Y51282D1*
X201440Y51152D1*
X201332Y51034D1*
X201209Y50932D1*
X201073Y50847D1*
X200928Y50780D1*
X200775Y50734D1*
X200617Y50708D1*
X200458Y50703D1*
X200298Y50719D1*
X200143Y50756D1*
X199994Y50813D1*
X199853Y50890D1*
X199724Y50984D1*
X199609Y51095D1*
X199509Y51219D1*
X199426Y51356D1*
X199363Y51503D1*
X199319Y51657D1*
X199296Y51815D1*
X199294Y51975D1*
X199313Y52134D1*
X199353Y52288D1*
X199413Y52437D1*
X199492Y52576D1*
X199589Y52703D1*
X199701Y52816D1*
X199828Y52914D1*
X199967Y52994D1*
X200114Y53055D1*
X200269Y53096D1*
X200427Y53116D1*
X200587Y53115D1*
X200746Y53093D1*
X200900Y53050D1*
X201047Y52987D1*
X201184Y52906D1*
X201310Y52806D1*
X201421Y52692D1*
X201516Y52563D1*
X201594Y52423D1*
X201652Y52274D1*
X201690Y52119D1*
X201707Y51960D1*
X201708Y51890D1*
X199168D2*
X199155Y51731D1*
X199120Y51574D1*
X199066Y51424D1*
X198992Y51282D1*
X198900Y51152D1*
X198792Y51034D1*
X198669Y50932D1*
X198533Y50847D1*
X198388Y50780D1*
X198235Y50734D1*
X198077Y50708D1*
X197918Y50703D1*
X197758Y50719D1*
X197603Y50756D1*
X197454Y50813D1*
X197313Y50890D1*
X197184Y50984D1*
X197069Y51095D1*
X196969Y51219D1*
X196886Y51356D1*
X196823Y51503D1*
X196779Y51657D1*
X196756Y51815D1*
X196754Y51975D1*
X196773Y52134D1*
X196813Y52288D1*
X196873Y52437D1*
X196952Y52576D1*
X197049Y52703D1*
X197161Y52816D1*
X197288Y52914D1*
X197427Y52994D1*
X197574Y53055D1*
X197729Y53096D1*
X197887Y53116D1*
X198047Y53115D1*
X198206Y53093D1*
X198360Y53050D1*
X198507Y52987D1*
X198644Y52906D1*
X198770Y52806D1*
X198881Y52692D1*
X198976Y52563D1*
X199054Y52423D1*
X199112Y52274D1*
X199150Y52119D1*
X199167Y51960D1*
X199168Y51890D1*
X21364Y67050D2*
X21331Y66853D1*
X21266Y66664D1*
X21171Y66489D1*
X21048Y66331D1*
X20901Y66196D1*
X20733Y66087D1*
X20550Y66007D1*
X20357Y65958D1*
X20158Y65942D1*
X19958Y65959D1*
X19765Y66008D1*
X19582Y66089D1*
X19415Y66199D1*
X19269Y66335D1*
X19146Y66493D1*
X19052Y66669D1*
X18988Y66858D1*
X18956Y67055D1*
X18957Y67255D1*
X18990Y67452D1*
X19056Y67640D1*
X19152Y67816D1*
X19275Y67973D1*
X19423Y68107D1*
X19591Y68216D1*
X19774Y68295D1*
X19968Y68343D1*
X20167Y68358D1*
X20366Y68340D1*
X20560Y68290D1*
X20742Y68208D1*
X20909Y68098D1*
X21055Y67962D1*
X21176Y67803D1*
X21270Y67627D1*
X21333Y67437D1*
X21365Y67240D1*
X21364Y67050D1*
X21368Y64590D2*
X21355Y64431D1*
X21320Y64274D1*
X21266Y64124D1*
X21192Y63982D1*
X21100Y63852D1*
X20992Y63734D1*
X20869Y63632D1*
X20733Y63547D1*
X20588Y63480D1*
X20435Y63434D1*
X20277Y63408D1*
X20118Y63403D1*
X19958Y63419D1*
X19803Y63456D1*
X19654Y63513D1*
X19513Y63590D1*
X19384Y63684D1*
X19269Y63795D1*
X19169Y63919D1*
X19086Y64056D1*
X19023Y64203D1*
X18979Y64357D1*
X18956Y64515D1*
X18954Y64675D1*
X18973Y64834D1*
X19013Y64988D1*
X19073Y65137D1*
X19152Y65276D1*
X19249Y65403D1*
X19361Y65516D1*
X19488Y65614D1*
X19627Y65694D1*
X19774Y65755D1*
X19929Y65796D1*
X20087Y65816D1*
X20247Y65815D1*
X20406Y65793D1*
X20560Y65750D1*
X20707Y65687D1*
X20844Y65606D1*
X20970Y65506D1*
X21081Y65392D1*
X21176Y65263D1*
X21254Y65123D1*
X21312Y64974D1*
X21350Y64819D1*
X21367Y64660D1*
X21368Y64590D1*
X21232Y61514D2*
X21171Y61409D1*
X21048Y61251D1*
X20901Y61116D1*
X20733Y61007D1*
X20550Y60927D1*
X20357Y60878D1*
X20158Y60862D1*
X19958Y60879D1*
X19765Y60928D1*
X19582Y61009D1*
X19415Y61119D1*
X19269Y61255D1*
X19146Y61413D1*
X19100Y61491D1*
X16909Y59300D1*
X16908Y49030D1*
Y44521D1*
X19100Y42330D1*
X19210Y42497D1*
X19346Y42643D1*
X19505Y42765D1*
X19681Y42859D1*
X19870Y42923D1*
X20068Y42954D1*
X20267Y42953D1*
X20464Y42919D1*
X20653Y42853D1*
X20828Y42757D1*
X20984Y42633D1*
X21119Y42485D1*
X21227Y42317D1*
X21306Y42133D1*
X21353Y41939D1*
X21368Y41750D1*
X21351Y41551D1*
X21302Y41357D1*
X21222Y41174D1*
X21113Y41007D1*
X20977Y40860D1*
X20819Y40738D1*
X20644Y40643D1*
X20455Y40578D1*
X20257Y40546D1*
X20058D1*
X19861Y40580D1*
X19672Y40645D1*
X19496Y40741D1*
X19339Y40864D1*
X19204Y41011D1*
X19096Y41179D1*
X19089Y41193D1*
X18890Y41192D1*
X18791Y41201D1*
X18694Y41227D1*
X18604Y41271D1*
X18535Y41320D1*
X18071Y41780D1*
X15955Y43895D1*
X15891Y43972D1*
X15842Y44059D1*
X15809Y44153D1*
X15795Y44237D1*
X15792Y44890D1*
Y59530D1*
X15801Y59629D1*
X15827Y59726D1*
X15871Y59816D1*
X15920Y59885D1*
X16380Y60349D1*
X18495Y62465D1*
X18572Y62529D1*
X18659Y62578D1*
X18753Y62611D1*
X18837Y62625D1*
X19087Y62628D1*
X19210Y62817D1*
X19346Y62963D1*
X19505Y63085D1*
X19681Y63179D1*
X19870Y63243D1*
X20068Y63274D1*
X20267Y63273D1*
X20464Y63239D1*
X20653Y63173D1*
X20828Y63077D1*
X20984Y62953D1*
X21119Y62805D1*
X21219Y62650D1*
X22379Y63808D1*
X24845Y66275D1*
X24922Y66339D1*
X25009Y66388D1*
X25103Y66421D1*
X25187Y66435D1*
X25840Y66438D1*
X56212D1*
X56270Y66512D1*
X56340Y66584D1*
X56417Y66648D1*
X56500Y66703D1*
X56588Y66750D1*
X56681Y66787D1*
X56777Y66814D1*
X56876Y66831D1*
X56976Y66838D1*
X57075Y66834D1*
X57174Y66820D1*
X57271Y66796D1*
X57365Y66761D1*
X57455Y66718D1*
X57540Y66665D1*
X57619Y66603D1*
X57690Y66534D1*
X57767Y66439D1*
X73990Y66438D1*
X128543D1*
X128600Y66512D1*
X128670Y66584D1*
X128747Y66648D1*
X128830Y66703D1*
X128918Y66750D1*
X129011Y66787D1*
X129107Y66814D1*
X129206Y66831D1*
X129305Y66838D1*
X129405Y66834D1*
X129504Y66820D1*
X129601Y66796D1*
X129695Y66761D1*
X129785Y66718D1*
X129869Y66665D1*
X129948Y66603D1*
X130020Y66534D1*
X130097Y66439D1*
X146320Y66438D1*
X178042D1*
X178172Y66584D1*
X178249Y66648D1*
X178332Y66703D1*
X178420Y66750D1*
X178513Y66787D1*
X178609Y66814D1*
X178708Y66831D1*
X178808Y66838D1*
X178907Y66834D1*
X179006Y66820D1*
X179103Y66796D1*
X179197Y66761D1*
X179287Y66718D1*
X179372Y66665D1*
X179451Y66603D1*
X179522Y66534D1*
X179599Y66439D1*
X195822Y66438D1*
X300050D1*
X300180Y66584D1*
X300257Y66648D1*
X300340Y66703D1*
X300428Y66750D1*
X300521Y66787D1*
X300617Y66814D1*
X300716Y66831D1*
X300816Y66838D1*
X300915Y66834D1*
X301014Y66820D1*
X301111Y66796D1*
X301205Y66761D1*
X301295Y66718D1*
X301380Y66665D1*
X301459Y66603D1*
X301530Y66534D1*
X301595Y66457D1*
X301651Y66374D1*
X301698Y66286D1*
X301735Y66193D1*
X301763Y66097D1*
X301781Y65999D1*
X301788Y65880D1*
X301783Y65780D1*
X301767Y65681D1*
X301741Y65585D1*
X301706Y65492D1*
X301660Y65402D1*
X301606Y65318D1*
X301543Y65241D1*
X301473Y65170D1*
X301395Y65107D1*
X301312Y65052D1*
X301223Y65006D1*
X301130Y64970D1*
X301033Y64944D1*
X300931Y64928D1*
X301111Y64891D1*
X301205Y64856D1*
X301295Y64813D1*
X301380Y64760D1*
X301459Y64698D1*
X301530Y64629D1*
X301595Y64552D1*
X301651Y64469D1*
X301698Y64381D1*
X301735Y64288D1*
X301763Y64192D1*
X301781Y64094D1*
X301788Y63975D1*
X301783Y63875D1*
X301767Y63776D1*
X301741Y63680D1*
X301706Y63587D1*
X301660Y63497D1*
X301606Y63413D1*
X301543Y63336D1*
X301473Y63265D1*
X301395Y63202D1*
X301312Y63147D1*
X301223Y63101D1*
X301130Y63065D1*
X301033Y63039D1*
X300935Y63023D1*
X300835Y63017D1*
X300735Y63022D1*
X300636Y63037D1*
X300539Y63062D1*
X300446Y63097D1*
X300357Y63142D1*
X300272Y63196D1*
X300194Y63258D1*
X300123Y63328D1*
X300051Y63419D1*
X298730Y63417D1*
X179643Y63413D1*
X179580Y63336D1*
X179510Y63265D1*
X179432Y63202D1*
X179349Y63147D1*
X179260Y63101D1*
X179167Y63065D1*
X179070Y63039D1*
X178972Y63023D1*
X178872Y63017D1*
X178772Y63022D1*
X178673Y63037D1*
X178576Y63062D1*
X178483Y63097D1*
X178394Y63142D1*
X178309Y63196D1*
X178231Y63258D1*
X178160Y63328D1*
X178088Y63419D1*
X176767Y63417D1*
X130186Y63413D1*
X130123Y63336D1*
X130053Y63265D1*
X129975Y63202D1*
X129891Y63147D1*
X129802Y63101D1*
X129709Y63065D1*
X129613Y63039D1*
X129514Y63023D1*
X129414Y63017D1*
X129315Y63022D1*
X129216Y63037D1*
X129119Y63062D1*
X129026Y63097D1*
X128936Y63142D1*
X128852Y63196D1*
X128774Y63258D1*
X128703Y63328D1*
X128630Y63419D1*
X127310Y63417D1*
X57766Y63413D1*
X57703Y63336D1*
X57633Y63265D1*
X57555Y63202D1*
X57472Y63147D1*
X57383Y63101D1*
X57290Y63065D1*
X57193Y63039D1*
X57095Y63023D1*
X56995Y63017D1*
X56895Y63022D1*
X56796Y63037D1*
X56699Y63062D1*
X56606Y63097D1*
X56517Y63142D1*
X56432Y63196D1*
X56354Y63258D1*
X56283Y63328D1*
X56211Y63419D1*
X54890Y63417D1*
X26106D1*
X21825Y59135D1*
X21748Y59071D1*
X21661Y59022D1*
X21567Y58989D1*
X21483Y58975D1*
X21233Y58972D1*
X21113Y58787D1*
X20977Y58640D1*
X20819Y58518D1*
X20644Y58423D1*
X20455Y58358D1*
X20257Y58326D1*
X20058D1*
X19861Y58360D1*
X19672Y58425D1*
X19496Y58521D1*
X19339Y58644D1*
X19204Y58791D1*
X19100Y58951D1*
X18178Y58028D1*
Y45788D1*
X19005Y44965D1*
X19100Y44870D1*
X19210Y45037D1*
X19346Y45183D1*
X19505Y45305D1*
X19681Y45399D1*
X19870Y45463D1*
X20068Y45494D1*
X20267Y45493D1*
X20464Y45459D1*
X20653Y45393D1*
X20828Y45297D1*
X20984Y45173D1*
X21119Y45025D1*
X21227Y44857D1*
X21306Y44673D1*
X21353Y44479D1*
X21368Y44290D1*
X21351Y44091D1*
X21302Y43897D1*
X21222Y43714D1*
X21113Y43547D1*
X20977Y43400D1*
X20819Y43278D1*
X20644Y43183D1*
X20455Y43118D1*
X20257Y43086D1*
X20058D1*
X19861Y43120D1*
X19672Y43185D1*
X19496Y43281D1*
X19339Y43404D1*
X19204Y43551D1*
X19096Y43719D1*
X19089Y43733D1*
X18890Y43732D1*
X18791Y43741D1*
X18694Y43767D1*
X18604Y43811D1*
X18535Y43860D1*
X18071Y44320D1*
X17225Y45165D1*
X17161Y45242D1*
X17112Y45329D1*
X17079Y45423D1*
X17065Y45507D1*
X17062Y46160D1*
Y58260D1*
X17071Y58359D1*
X17097Y58456D1*
X17141Y58546D1*
X17190Y58615D1*
X17650Y59079D1*
X18495Y59925D1*
X18572Y59989D1*
X18659Y60038D1*
X18753Y60071D1*
X18837Y60085D1*
X19087Y60088D1*
X19210Y60277D1*
X19346Y60423D1*
X19505Y60545D1*
X19681Y60639D1*
X19870Y60703D1*
X20068Y60734D1*
X20267Y60733D1*
X20464Y60699D1*
X20653Y60633D1*
X20828Y60537D1*
X20984Y60413D1*
X21119Y60265D1*
X21219Y60110D1*
X22379Y61268D1*
X25480Y64370D1*
X25557Y64434D1*
X25644Y64483D1*
X25738Y64516D1*
X25822Y64530D1*
X26475Y64533D1*
X56209D1*
X56340Y64679D1*
X56417Y64743D1*
X56500Y64798D1*
X56588Y64845D1*
X56681Y64882D1*
X56777Y64909D1*
X56891Y64927D1*
X56796Y64942D1*
X56699Y64967D1*
X56606Y65002D1*
X56517Y65047D1*
X56432Y65101D1*
X56354Y65163D1*
X56283Y65233D1*
X56211Y65324D1*
X54890Y65322D1*
X25468D1*
X24645Y64495D1*
X21825Y61675D1*
X21748Y61611D1*
X21661Y61562D1*
X21567Y61529D1*
X21483Y61515D1*
X21233Y61512D1*
X18972Y50578D2*
X21368D1*
Y48162D1*
X18952D1*
Y50578D1*
X18972D1*
X21364Y46730D2*
X21331Y46533D1*
X21266Y46344D1*
X21171Y46169D1*
X21048Y46011D1*
X20901Y45876D1*
X20733Y45767D1*
X20550Y45687D1*
X20357Y45638D1*
X20158Y45622D1*
X19958Y45639D1*
X19765Y45688D1*
X19582Y45769D1*
X19415Y45879D1*
X19269Y46015D1*
X19146Y46173D1*
X19052Y46349D1*
X18988Y46538D1*
X18956Y46735D1*
X18957Y46935D1*
X18990Y47132D1*
X19056Y47320D1*
X19152Y47496D1*
X19275Y47653D1*
X19423Y47787D1*
X19591Y47896D1*
X19774Y47975D1*
X19968Y48023D1*
X20167Y48038D1*
X20366Y48020D1*
X20560Y47970D1*
X20742Y47888D1*
X20909Y47778D1*
X21055Y47642D1*
X21176Y47483D1*
X21270Y47307D1*
X21333Y47117D1*
X21365Y46920D1*
X21364Y46730D1*
X50802Y47403D2*
X53118D1*
Y44987D1*
X50702D1*
Y47403D1*
X50802D1*
X50578Y46175D2*
X50565Y46016D1*
X50530Y45859D1*
X50476Y45709D1*
X50402Y45567D1*
X50310Y45437D1*
X50202Y45319D1*
X50079Y45217D1*
X49943Y45132D1*
X49798Y45065D1*
X49645Y45019D1*
X49487Y44993D1*
X49328Y44988D1*
X49168Y45004D1*
X49013Y45041D1*
X48864Y45098D1*
X48723Y45175D1*
X48594Y45269D1*
X48479Y45380D1*
X48379Y45504D1*
X48296Y45641D1*
X48233Y45788D1*
X48189Y45942D1*
X48166Y46100D1*
X48164Y46260D1*
X48183Y46419D1*
X48223Y46573D1*
X48283Y46722D1*
X48362Y46861D1*
X48459Y46988D1*
X48571Y47101D1*
X48698Y47199D1*
X48837Y47279D1*
X48984Y47340D1*
X49139Y47381D1*
X49297Y47401D1*
X49457Y47400D1*
X49616Y47378D1*
X49770Y47335D1*
X49917Y47272D1*
X50054Y47191D1*
X50180Y47091D1*
X50291Y46977D1*
X50386Y46848D1*
X50464Y46708D1*
X50522Y46559D1*
X50560Y46404D1*
X50577Y46245D1*
X50578Y46175D1*
X48038D2*
X48025Y46016D1*
X47990Y45859D1*
X47936Y45709D1*
X47862Y45567D1*
X47770Y45437D1*
X47662Y45319D1*
X47539Y45217D1*
X47403Y45132D1*
X47258Y45065D1*
X47105Y45019D1*
X46947Y44993D1*
X46788Y44988D1*
X46628Y45004D1*
X46473Y45041D1*
X46324Y45098D1*
X46183Y45175D1*
X46054Y45269D1*
X45939Y45380D1*
X45839Y45504D1*
X45756Y45641D1*
X45693Y45788D1*
X45649Y45942D1*
X45626Y46100D1*
X45624Y46260D1*
X45643Y46419D1*
X45683Y46573D1*
X45743Y46722D1*
X45822Y46861D1*
X45919Y46988D1*
X46031Y47101D1*
X46158Y47199D1*
X46297Y47279D1*
X46444Y47340D1*
X46599Y47381D1*
X46757Y47401D1*
X46917Y47400D1*
X47076Y47378D1*
X47230Y47335D1*
X47377Y47272D1*
X47514Y47191D1*
X47640Y47091D1*
X47751Y46977D1*
X47846Y46848D1*
X47924Y46708D1*
X47982Y46559D1*
X48020Y46404D1*
X48037Y46245D1*
X48038Y46175D1*
X98349Y37840D2*
X98320Y37642D1*
X98262Y37451D1*
X98177Y37271D1*
X98066Y37104D1*
X97931Y36956D1*
X97777Y36830D1*
X97605Y36727D1*
X97421Y36650D1*
X97227Y36602D1*
X97028Y36582D1*
X96829Y36592D1*
X96633Y36631D1*
X96444Y36699D1*
X96268Y36793D1*
X96108Y36912D1*
X95967Y37053D1*
X95848Y37214D1*
X95753Y37390D1*
X95686Y37578D1*
X95647Y37774D1*
X95637Y37974D1*
X95657Y38173D1*
X95706Y38366D1*
X95782Y38551D1*
X95885Y38722D1*
X96012Y38877D1*
X96160Y39011D1*
X96326Y39122D1*
X96507Y39207D1*
X96698Y39265D1*
X96896Y39294D1*
X97095D1*
X97293Y39265D1*
X97484Y39207D1*
X97665Y39121D1*
X97831Y39010D1*
X97979Y38876D1*
X98106Y38721D1*
X98208Y38550D1*
X98285Y38365D1*
X98333Y38171D1*
X98353Y37973D1*
X98349Y37840D1*
X103349D2*
X103320Y37642D1*
X103262Y37451D1*
X103177Y37271D1*
X103066Y37104D1*
X102931Y36956D1*
X102777Y36830D1*
X102605Y36727D1*
X102421Y36650D1*
X102227Y36602D1*
X102028Y36582D1*
X101829Y36592D1*
X101633Y36631D1*
X101444Y36699D1*
X101268Y36793D1*
X101108Y36912D1*
X100967Y37053D1*
X100848Y37214D1*
X100753Y37390D1*
X100686Y37578D1*
X100647Y37774D1*
X100637Y37974D1*
X100657Y38173D1*
X100706Y38366D1*
X100782Y38551D1*
X100885Y38722D1*
X101012Y38877D1*
X101160Y39011D1*
X101326Y39122D1*
X101507Y39207D1*
X101698Y39265D1*
X101896Y39294D1*
X102095D1*
X102293Y39265D1*
X102484Y39207D1*
X102665Y39121D1*
X102831Y39010D1*
X102979Y38876D1*
X103106Y38721D1*
X103208Y38550D1*
X103285Y38365D1*
X103333Y38171D1*
X103353Y37973D1*
X103349Y37840D1*
X108353Y37920D2*
X108341Y37761D1*
X108311Y37604D1*
X108262Y37451D1*
X108196Y37306D1*
X108113Y37169D1*
X108014Y37043D1*
X107902Y36929D1*
X107777Y36830D1*
X107641Y36745D1*
X107496Y36678D1*
X107344Y36628D1*
X107187Y36596D1*
X107028Y36582D1*
X106868Y36588D1*
X106710Y36612D1*
X106556Y36655D1*
X106408Y36715D1*
X106268Y36793D1*
X106138Y36886D1*
X106021Y36994D1*
X105916Y37115D1*
X105827Y37248D1*
X105753Y37390D1*
X105697Y37540D1*
X105659Y37695D1*
X105640Y37854D1*
X105639Y38014D1*
X105657Y38173D1*
X105694Y38328D1*
X105748Y38479D1*
X105820Y38621D1*
X105909Y38755D1*
X106012Y38877D1*
X106129Y38986D1*
X106258Y39080D1*
X106397Y39159D1*
X106544Y39221D1*
X106698Y39265D1*
X106856Y39291D1*
X107016Y39298D1*
X107175Y39286D1*
X107332Y39256D1*
X107484Y39207D1*
X107630Y39140D1*
X107767Y39058D1*
X107893Y38959D1*
X108006Y38847D1*
X108106Y38721D1*
X108190Y38585D1*
X108257Y38440D1*
X108307Y38289D1*
X108339Y38132D1*
X108353Y37973D1*
Y37920D1*
X100853Y55420D2*
X100841Y55261D1*
X100811Y55104D1*
X100762Y54951D1*
X100696Y54806D1*
X100613Y54669D1*
X100514Y54543D1*
X100402Y54429D1*
X100277Y54330D1*
X100141Y54245D1*
X99996Y54178D1*
X99844Y54128D1*
X99687Y54096D1*
X99528Y54082D1*
X99368Y54088D1*
X99210Y54112D1*
X99056Y54155D1*
X98908Y54215D1*
X98768Y54293D1*
X98638Y54386D1*
X98521Y54494D1*
X98416Y54615D1*
X98327Y54748D1*
X98253Y54890D1*
X98197Y55040D1*
X98159Y55195D1*
X98140Y55354D1*
X98139Y55514D1*
X98157Y55673D1*
X98194Y55828D1*
X98248Y55979D1*
X98320Y56121D1*
X98409Y56255D1*
X98512Y56377D1*
X98629Y56486D1*
X98758Y56580D1*
X98897Y56659D1*
X99044Y56721D1*
X99198Y56765D1*
X99356Y56791D1*
X99516Y56798D1*
X99675Y56786D1*
X99832Y56756D1*
X99984Y56707D1*
X100130Y56640D1*
X100267Y56558D1*
X100393Y56459D1*
X100506Y56347D1*
X100606Y56221D1*
X100690Y56085D1*
X100757Y55940D1*
X100807Y55789D1*
X100839Y55632D1*
X100853Y55473D1*
Y55420D1*
X105849Y55340D2*
X105820Y55142D1*
X105762Y54951D1*
X105677Y54771D1*
X105566Y54604D1*
X105431Y54456D1*
X105277Y54330D1*
X105105Y54227D1*
X104921Y54150D1*
X104727Y54102D1*
X104528Y54082D1*
X104329Y54092D1*
X104133Y54131D1*
X103944Y54199D1*
X103768Y54293D1*
X103608Y54412D1*
X103467Y54553D1*
X103348Y54714D1*
X103253Y54890D1*
X103186Y55078D1*
X103147Y55274D1*
X103137Y55474D1*
X103157Y55673D1*
X103206Y55866D1*
X103282Y56051D1*
X103385Y56222D1*
X103512Y56377D1*
X103660Y56511D1*
X103826Y56622D1*
X104007Y56707D1*
X104198Y56765D1*
X104396Y56794D1*
X104595D1*
X104793Y56765D1*
X104984Y56707D1*
X105165Y56621D1*
X105331Y56510D1*
X105479Y56376D1*
X105606Y56221D1*
X105708Y56050D1*
X105785Y55865D1*
X105833Y55671D1*
X105853Y55473D1*
X105849Y55340D1*
X107637Y48614D2*
X107646Y48817D1*
X107677Y49014D1*
X107731Y49207D1*
X107806Y49392D1*
X107902Y49568D1*
X108017Y49731D1*
X108149Y49881D1*
X108298Y50014D1*
X108461Y50130D1*
X108636Y50226D1*
X108821Y50302D1*
X109014Y50356D1*
X109211Y50388D1*
X109411Y50398D1*
X109610Y50385D1*
X109807Y50349D1*
X109998Y50291D1*
X110182Y50212D1*
X110355Y50113D1*
X110516Y49994D1*
X110663Y49858D1*
X110793Y49706D1*
X110905Y49541D1*
X110997Y49364D1*
X111069Y49177D1*
X111119Y48984D1*
X111147Y48786D1*
X111153Y48640D1*
X111150Y48240D1*
Y48140D1*
X111127Y47941D1*
X111082Y47747D1*
X111015Y47558D1*
X110928Y47379D1*
X110820Y47210D1*
X110694Y47055D1*
X110551Y46915D1*
X110393Y46793D1*
X110222Y46689D1*
X110041Y46605D1*
X109851Y46542D1*
X109655Y46501D1*
X109456Y46483D1*
X109257Y46487D1*
X109059Y46514D1*
X108865Y46564D1*
X108678Y46635D1*
X108500Y46727D1*
X108334Y46838D1*
X108182Y46967D1*
X108045Y47113D1*
X107926Y47274D1*
X107826Y47447D1*
X107746Y47630D1*
X107688Y47821D1*
X107651Y48018D1*
X107637Y48240D1*
X107640Y48640D1*
X92837Y48614D2*
X92846Y48817D1*
X92877Y49014D1*
X92931Y49207D1*
X93006Y49392D1*
X93102Y49568D1*
X93217Y49731D1*
X93349Y49881D1*
X93498Y50014D1*
X93661Y50130D1*
X93836Y50226D1*
X94021Y50302D1*
X94214Y50356D1*
X94411Y50388D1*
X94611Y50398D1*
X94810Y50385D1*
X95007Y50349D1*
X95198Y50291D1*
X95382Y50212D1*
X95555Y50113D1*
X95716Y49994D1*
X95863Y49858D1*
X95993Y49706D1*
X96105Y49541D1*
X96197Y49364D1*
X96269Y49177D1*
X96319Y48984D1*
X96347Y48786D1*
X96353Y48640D1*
X96350Y48240D1*
Y48140D1*
X96327Y47941D1*
X96282Y47747D1*
X96215Y47558D1*
X96128Y47379D1*
X96020Y47210D1*
X95894Y47055D1*
X95751Y46915D1*
X95593Y46793D1*
X95422Y46689D1*
X95241Y46605D1*
X95051Y46542D1*
X94855Y46501D1*
X94656Y46483D1*
X94457Y46487D1*
X94259Y46514D1*
X94065Y46564D1*
X93878Y46635D1*
X93700Y46727D1*
X93534Y46838D1*
X93382Y46967D1*
X93245Y47113D1*
X93126Y47274D1*
X93026Y47447D1*
X92946Y47630D1*
X92888Y47821D1*
X92851Y48018D1*
X92837Y48240D1*
X92840Y48640D1*
X17012Y88640D2*
X16988Y88341D1*
X16937Y88046D1*
X16859Y87756D1*
X16753Y87475D1*
X16622Y87206D1*
X16466Y86949D1*
X16287Y86709D1*
X16086Y86486D1*
X15866Y86283D1*
X15627Y86102D1*
X15372Y85943D1*
X15104Y85810D1*
X14824Y85701D1*
X14535Y85620D1*
X14240Y85566D1*
X13942Y85539D1*
X13642Y85541D1*
X13343Y85571D1*
X13049Y85628D1*
X12761Y85713D1*
X12483Y85824D1*
X12216Y85961D1*
X11963Y86123D1*
X11727Y86307D1*
X11508Y86512D1*
X11368Y86667D1*
X11370Y85480D1*
Y15883D1*
X11489Y16018D1*
X11706Y16226D1*
X11941Y16412D1*
X12193Y16575D1*
X12458Y16714D1*
X12736Y16828D1*
X13023Y16915D1*
X13317Y16975D1*
X13615Y17007D1*
X13915Y17012D1*
X14214Y16988D1*
X14509Y16936D1*
X14798Y16857D1*
X15079Y16751D1*
X15348Y16620D1*
X15604Y16464D1*
X15845Y16284D1*
X16067Y16083D1*
X16270Y15862D1*
X16451Y15623D1*
X16609Y15368D1*
X16742Y15099D1*
X16850Y14820D1*
X16931Y14531D1*
X16985Y14236D1*
X17011Y13937D1*
X17012Y13710D1*
X16988Y13411D1*
X16937Y13116D1*
X16859Y12826D1*
X16753Y12545D1*
X16622Y12276D1*
X16466Y12019D1*
X16287Y11779D1*
X16086Y11556D1*
X15887Y11372D1*
X19170Y11370D1*
X123498D1*
X123412Y11443D1*
X123200Y11655D1*
X123009Y11886D1*
X122840Y12134D1*
X122695Y12397D1*
X122576Y12672D1*
X122482Y12957D1*
X122416Y13249D1*
X122378Y13547D1*
X122367Y13846D1*
X122384Y14146D1*
X122430Y14442D1*
X122503Y14733D1*
X122602Y15016D1*
X122728Y15288D1*
X122879Y15547D1*
X123053Y15792D1*
X123249Y16018D1*
X123466Y16226D1*
X123701Y16412D1*
X123953Y16575D1*
X124218Y16714D1*
X124496Y16828D1*
X124783Y16915D1*
X125077Y16975D1*
X125375Y17007D1*
X125675Y17012D1*
X125974Y16988D1*
X126269Y16936D1*
X126558Y16857D1*
X126839Y16751D1*
X127108Y16620D1*
X127364Y16464D1*
X127605Y16284D1*
X127827Y16083D1*
X128030Y15862D1*
X128211Y15623D1*
X128369Y15368D1*
X128502Y15099D1*
X128610Y14820D1*
X128691Y14531D1*
X128745Y14236D1*
X128771Y13937D1*
X128772Y13710D1*
X128748Y13411D1*
X128697Y13116D1*
X128619Y12826D1*
X128513Y12545D1*
X128382Y12276D1*
X128226Y12019D1*
X128047Y11779D1*
X127846Y11556D1*
X127647Y11372D1*
X129470Y11370D1*
X245417D1*
X245259Y11511D1*
X245054Y11730D1*
X244870Y11967D1*
X244709Y12220D1*
X244573Y12487D1*
X244462Y12766D1*
X244377Y13054D1*
X244320Y13348D1*
X244291Y13647D1*
X244290Y13946D1*
X244316Y14245D1*
X244371Y14540D1*
X244453Y14828D1*
X244561Y15108D1*
X244696Y15376D1*
X244854Y15631D1*
X245036Y15869D1*
X245239Y16090D1*
X245463Y16290D1*
X245703Y16469D1*
X245960Y16624D1*
X246230Y16755D1*
X246511Y16860D1*
X246800Y16938D1*
X247096Y16989D1*
X247395Y17012D1*
X247695Y17007D1*
X247993Y16974D1*
X248286Y16913D1*
X248573Y16825D1*
X248850Y16710D1*
X249115Y16570D1*
X249366Y16406D1*
X249601Y16219D1*
X249817Y16011D1*
X250013Y15784D1*
X250186Y15540D1*
X250336Y15280D1*
X250461Y15007D1*
X250560Y14724D1*
X250632Y14433D1*
X250677Y14137D1*
X250693Y13837D1*
X250687Y13610D1*
X250654Y13312D1*
X250594Y13018D1*
X250506Y12731D1*
X250392Y12454D1*
X250253Y12189D1*
X250089Y11937D1*
X249902Y11703D1*
X249695Y11486D1*
X249570Y11370D1*
X357173D1*
X356948Y11582D1*
X356750Y11807D1*
X356574Y12050D1*
X356421Y12308D1*
X356293Y12579D1*
X356190Y12861D1*
X356151Y13002D1*
X355295Y12145D1*
X355218Y12081D1*
X355131Y12032D1*
X355037Y11999D1*
X354953Y11985D1*
X354300Y11982D1*
X297876Y11978D1*
X297813Y11901D1*
X297743Y11830D1*
X297665Y11767D1*
X297582Y11712D1*
X297493Y11666D1*
X297400Y11630D1*
X297303Y11604D1*
X297205Y11588D1*
X297105Y11582D1*
X297005Y11587D1*
X296906Y11602D1*
X296809Y11627D1*
X296716Y11662D1*
X296627Y11707D1*
X296542Y11761D1*
X296464Y11823D1*
X296393Y11893D1*
X296330Y11971D1*
X296274Y12054D1*
X296228Y12143D1*
X296192Y12236D1*
X296165Y12332D1*
X296148Y12431D1*
X296142Y12530D1*
X296146Y12630D1*
X296161Y12729D1*
X296186Y12826D1*
X296220Y12920D1*
X296265Y13009D1*
X296318Y13094D1*
X296380Y13172D1*
X296450Y13244D1*
X296527Y13308D1*
X296610Y13363D1*
X296698Y13410D1*
X296791Y13447D1*
X296887Y13474D1*
X296986Y13491D1*
X297086Y13498D1*
X297185Y13494D1*
X297284Y13480D1*
X297381Y13456D1*
X297475Y13421D1*
X297565Y13378D1*
X297650Y13325D1*
X297729Y13263D1*
X297800Y13194D1*
X297877Y13099D1*
X297848Y13281D1*
X297842Y13380D1*
X297846Y13480D1*
X297861Y13579D1*
X297886Y13676D1*
X297920Y13770D1*
X297965Y13859D1*
X298018Y13944D1*
X298080Y14022D1*
X298150Y14094D1*
X298227Y14158D1*
X298310Y14213D1*
X298398Y14260D1*
X298491Y14297D1*
X298587Y14324D1*
X298686Y14341D1*
X298786Y14348D1*
X298885Y14344D1*
X298984Y14330D1*
X299081Y14306D1*
X299175Y14271D1*
X299265Y14228D1*
X299350Y14175D1*
X299429Y14113D1*
X299500Y14044D1*
X299577Y13949D1*
X315800Y13948D1*
X353822D1*
X354343Y14472D1*
X354342Y17640D1*
X354351Y17739D1*
X354377Y17836D1*
X354421Y17926D1*
X354470Y17995D1*
X354930Y18459D1*
X355355Y18885D1*
X355432Y18949D1*
X355519Y18998D1*
X355613Y19031D1*
X355697Y19045D1*
X356350Y19048D1*
X358072D1*
X358593Y19572D1*
X358592Y33562D1*
X358457Y33694D1*
X358305Y33682D1*
X358205Y33687D1*
X358106Y33702D1*
X358009Y33727D1*
X357916Y33762D1*
X357827Y33807D1*
X357742Y33861D1*
X357664Y33923D1*
X357593Y33993D1*
X357530Y34071D1*
X357474Y34154D1*
X357428Y34243D1*
X357392Y34336D1*
X357365Y34432D1*
X357348Y34531D1*
X357342Y34630D1*
X357346Y34730D1*
X357361Y34829D1*
X357386Y34926D1*
X357420Y35020D1*
X357465Y35109D1*
X357518Y35194D1*
X357580Y35272D1*
X357650Y35344D1*
X357727Y35408D1*
X357810Y35463D1*
X357898Y35510D1*
X357991Y35547D1*
X358087Y35574D1*
X358186Y35591D1*
X358286Y35598D1*
X358385Y35594D1*
X358484Y35580D1*
X358581Y35556D1*
X358675Y35521D1*
X358765Y35478D1*
X358850Y35425D1*
X358929Y35363D1*
X359000Y35294D1*
X359065Y35217D1*
X359149Y35082D1*
X359218Y35194D1*
X359280Y35272D1*
X359350Y35344D1*
X359427Y35408D1*
X359510Y35463D1*
X359598Y35510D1*
X359691Y35547D1*
X359787Y35574D1*
X359886Y35591D1*
X359986Y35598D1*
X360085Y35594D1*
X360184Y35580D1*
X360281Y35556D1*
X360375Y35521D1*
X360465Y35478D1*
X360550Y35425D1*
X360629Y35363D1*
X360700Y35294D1*
X360765Y35217D1*
X360821Y35134D1*
X360868Y35046D1*
X360905Y34953D1*
X360933Y34857D1*
X360951Y34759D1*
X360958Y34640D1*
X360953Y34540D1*
X360937Y34441D1*
X360911Y34345D1*
X360876Y34252D1*
X360830Y34162D1*
X360776Y34078D1*
X360713Y34001D1*
X360643Y33930D1*
X360558Y33862D1*
Y18490D1*
X360549Y18391D1*
X360523Y18294D1*
X360479Y18204D1*
X360430Y18135D1*
X359970Y17671D1*
X359545Y17245D1*
X359468Y17181D1*
X359381Y17132D1*
X359287Y17099D1*
X359203Y17085D1*
X358550Y17082D1*
X356828D1*
X356307Y16558D1*
X356308Y15074D1*
X356408Y15288D1*
X356559Y15547D1*
X356733Y15792D1*
X356929Y16018D1*
X357146Y16226D1*
X357381Y16412D1*
X357633Y16575D1*
X357898Y16714D1*
X358176Y16828D1*
X358463Y16915D1*
X358757Y16975D1*
X359055Y17007D1*
X359355Y17012D1*
X359654Y16988D1*
X359949Y16936D1*
X360238Y16857D1*
X360519Y16751D1*
X360788Y16620D1*
X361044Y16464D1*
X361285Y16284D1*
X361507Y16083D1*
X361691Y15883D1*
X361690Y20070D1*
Y86667D1*
X361526Y86486D1*
X361306Y86283D1*
X361067Y86102D1*
X360812Y85943D1*
X360544Y85810D1*
X360264Y85701D1*
X359975Y85620D1*
X359680Y85566D1*
X359382Y85539D1*
X359082Y85541D1*
X358783Y85571D1*
X358489Y85628D1*
X358201Y85713D1*
X357923Y85824D1*
X357656Y85961D1*
X357403Y86123D1*
X357167Y86307D1*
X356948Y86512D1*
X356750Y86737D1*
X356574Y86980D1*
X356421Y87238D1*
X356293Y87509D1*
X356190Y87791D1*
X356115Y88081D1*
X356067Y88377D1*
X356047Y88676D1*
X356055Y88976D1*
X356091Y89274D1*
X356155Y89567D1*
X356246Y89853D1*
X356363Y90129D1*
X356506Y90393D1*
X356672Y90642D1*
X356862Y90875D1*
X357072Y91089D1*
X357177Y91182D1*
X354890Y91180D1*
X249562D1*
X249675Y91082D1*
X249885Y90868D1*
X250073Y90635D1*
X250239Y90385D1*
X250381Y90120D1*
X250497Y89844D1*
X250587Y89558D1*
X250650Y89265D1*
X250685Y88967D1*
X250693Y88740D1*
X250679Y88440D1*
X250637Y88144D1*
X250568Y87852D1*
X250471Y87568D1*
X250349Y87294D1*
X250201Y87033D1*
X250029Y86787D1*
X249836Y86558D1*
X249621Y86349D1*
X249388Y86160D1*
X249139Y85993D1*
X248875Y85851D1*
X248598Y85735D1*
X248312Y85644D1*
X248019Y85581D1*
X247722Y85545D1*
X247422Y85537D1*
X247123Y85558D1*
X246827Y85606D1*
X246536Y85682D1*
X246255Y85784D1*
X245984Y85913D1*
X245726Y86066D1*
X245484Y86243D1*
X245259Y86441D1*
X245054Y86660D1*
X244870Y86897D1*
X244709Y87150D1*
X244573Y87417D1*
X244462Y87696D1*
X244377Y87984D1*
X244320Y88278D1*
X244291Y88577D1*
X244290Y88876D1*
X244316Y89175D1*
X244371Y89470D1*
X244453Y89758D1*
X244561Y90038D1*
X244696Y90306D1*
X244854Y90561D1*
X245036Y90799D1*
X245239Y91020D1*
X245417Y91182D1*
X244090Y91180D1*
X127643D1*
X127827Y91013D1*
X128030Y90792D1*
X128211Y90553D1*
X128369Y90298D1*
X128502Y90029D1*
X128610Y89750D1*
X128691Y89461D1*
X128745Y89166D1*
X128771Y88867D1*
X128772Y88640D1*
X128748Y88341D1*
X128697Y88046D1*
X128619Y87756D1*
X128513Y87475D1*
X128382Y87206D1*
X128226Y86949D1*
X128047Y86709D1*
X127846Y86486D1*
X127626Y86283D1*
X127387Y86102D1*
X127132Y85943D1*
X126864Y85810D1*
X126584Y85701D1*
X126295Y85620D1*
X126000Y85566D1*
X125702Y85539D1*
X125402Y85541D1*
X125103Y85571D1*
X124809Y85628D1*
X124521Y85713D1*
X124243Y85824D1*
X123976Y85961D1*
X123723Y86123D1*
X123487Y86307D1*
X123268Y86512D1*
X123070Y86737D1*
X122894Y86980D1*
X122741Y87238D1*
X122613Y87509D1*
X122510Y87791D1*
X122435Y88081D1*
X122387Y88377D1*
X122367Y88676D1*
X122375Y88976D1*
X122411Y89274D1*
X122475Y89567D1*
X122566Y89853D1*
X122683Y90129D1*
X122826Y90393D1*
X122992Y90642D1*
X123182Y90875D1*
X123392Y91089D1*
X123490Y91180D1*
X15887D1*
X16067Y91013D1*
X16270Y90792D1*
X16451Y90553D1*
X16609Y90298D1*
X16742Y90029D1*
X16850Y89750D1*
X16931Y89461D1*
X16985Y89166D1*
X17011Y88867D1*
X17012Y88640D1*
X52095Y29852D2*
X52067Y29654D1*
X52013Y29462D1*
X51933Y29279D1*
X51829Y29108D1*
X51702Y28953D1*
X51556Y28818D1*
X51392Y28703D1*
X51214Y28612D1*
X51026Y28546D1*
X50830Y28506D1*
X50630Y28494D1*
X50431Y28509D1*
X50236Y28551D1*
X50048Y28620D1*
X49871Y28713D1*
X49709Y28830D1*
X49564Y28968D1*
X49440Y29124D1*
X49338Y29296D1*
X49260Y29480D1*
X49209Y29673D1*
X49184Y29872D1*
X49187Y30071D1*
X49217Y30269D1*
X49274Y30461D1*
X49356Y30643D1*
X49462Y30812D1*
X49591Y30965D1*
X49739Y31099D1*
X49905Y31211D1*
X50084Y31300D1*
X50273Y31363D1*
X50470Y31400D1*
X50669Y31410D1*
X50868Y31392D1*
X51063Y31347D1*
X51250Y31276D1*
X51425Y31180D1*
X51586Y31061D1*
X51729Y30922D1*
X51851Y30764D1*
X51951Y30590D1*
X52026Y30405D1*
X52075Y30211D1*
X52097Y30013D1*
X52095Y29852D1*
X50704Y33211D2*
X50676Y33013D1*
X50622Y32821D1*
X50542Y32638D1*
X50438Y32467D1*
X50311Y32312D1*
X50165Y32177D1*
X50001Y32062D1*
X49823Y31971D1*
X49635Y31905D1*
X49439Y31865D1*
X49239Y31853D1*
X49040Y31868D1*
X48845Y31910D1*
X48657Y31979D1*
X48480Y32072D1*
X48318Y32189D1*
X48173Y32327D1*
X48049Y32483D1*
X47947Y32655D1*
X47869Y32839D1*
X47818Y33032D1*
X47793Y33231D1*
X47796Y33430D1*
X47826Y33628D1*
X47883Y33820D1*
X47965Y34002D1*
X48071Y34171D1*
X48200Y34324D1*
X48348Y34458D1*
X48514Y34570D1*
X48693Y34659D1*
X48882Y34722D1*
X49079Y34759D1*
X49278Y34769D1*
X49477Y34751D1*
X49672Y34706D1*
X49859Y34635D1*
X50034Y34539D1*
X50195Y34420D1*
X50338Y34281D1*
X50460Y34123D1*
X50560Y33949D1*
X50635Y33764D1*
X50684Y33570D1*
X50706Y33372D1*
X50704Y33211D1*
X52095Y36570D2*
X52067Y36372D1*
X52013Y36180D1*
X51933Y35997D1*
X51829Y35826D1*
X51702Y35671D1*
X51556Y35536D1*
X51392Y35421D1*
X51214Y35330D1*
X51026Y35264D1*
X50830Y35224D1*
X50630Y35212D1*
X50431Y35227D1*
X50236Y35269D1*
X50048Y35338D1*
X49871Y35431D1*
X49709Y35548D1*
X49564Y35686D1*
X49440Y35842D1*
X49338Y36014D1*
X49260Y36198D1*
X49209Y36391D1*
X49184Y36590D1*
X49187Y36789D1*
X49217Y36987D1*
X49274Y37179D1*
X49356Y37361D1*
X49462Y37530D1*
X49591Y37683D1*
X49739Y37817D1*
X49905Y37929D1*
X50084Y38018D1*
X50273Y38081D1*
X50470Y38118D1*
X50669Y38128D1*
X50868Y38110D1*
X51063Y38065D1*
X51250Y37994D1*
X51425Y37898D1*
X51586Y37779D1*
X51729Y37640D1*
X51851Y37482D1*
X51951Y37308D1*
X52026Y37123D1*
X52075Y36929D1*
X52097Y36731D1*
X52095Y36570D1*
X58813D2*
X58785Y36372D1*
X58731Y36180D1*
X58651Y35997D1*
X58547Y35826D1*
X58420Y35671D1*
X58274Y35536D1*
X58110Y35421D1*
X57932Y35330D1*
X57744Y35264D1*
X57548Y35224D1*
X57348Y35212D1*
X57149Y35227D1*
X56954Y35269D1*
X56766Y35338D1*
X56589Y35431D1*
X56427Y35548D1*
X56282Y35686D1*
X56158Y35842D1*
X56056Y36014D1*
X55978Y36198D1*
X55927Y36391D1*
X55902Y36590D1*
X55905Y36789D1*
X55935Y36987D1*
X55992Y37179D1*
X56074Y37361D1*
X56180Y37530D1*
X56309Y37683D1*
X56457Y37817D1*
X56623Y37929D1*
X56802Y38018D1*
X56991Y38081D1*
X57188Y38118D1*
X57387Y38128D1*
X57586Y38110D1*
X57781Y38065D1*
X57968Y37994D1*
X58143Y37898D1*
X58304Y37779D1*
X58447Y37640D1*
X58569Y37482D1*
X58669Y37308D1*
X58744Y37123D1*
X58793Y36929D1*
X58815Y36731D1*
X58813Y36570D1*
X60207Y33291D2*
X60193Y33112D1*
X60158Y32935D1*
X60101Y32765D1*
X60023Y32602D1*
X59926Y32451D1*
X59811Y32312D1*
X59680Y32189D1*
X59535Y32083D1*
X59378Y31996D1*
X59211Y31928D1*
X59037Y31882D1*
X58859Y31857D1*
X58679Y31855D1*
X58500Y31874D1*
X58325Y31916D1*
X58157Y31979D1*
X57997Y32062D1*
X57849Y32164D1*
X57715Y32283D1*
X57596Y32419D1*
X57495Y32567D1*
X57413Y32727D1*
X57351Y32896D1*
X57311Y33072D1*
X57292Y33251D1*
X57296Y33430D1*
X57322Y33608D1*
X57369Y33782D1*
X57438Y33948D1*
X57526Y34105D1*
X57633Y34249D1*
X57757Y34380D1*
X57896Y34494D1*
X58049Y34590D1*
X58211Y34666D1*
X58382Y34722D1*
X58559Y34757D1*
X58738Y34769D1*
X58918Y34759D1*
X59095Y34727D1*
X59267Y34674D1*
X59431Y34600D1*
X59584Y34506D1*
X59725Y34394D1*
X59851Y34266D1*
X59960Y34123D1*
X60051Y33967D1*
X60122Y33802D1*
X60172Y33629D1*
X60200Y33452D1*
X60207Y33291D1*
X58813Y29852D2*
X58785Y29654D1*
X58731Y29462D1*
X58651Y29279D1*
X58547Y29108D1*
X58420Y28953D1*
X58274Y28818D1*
X58110Y28703D1*
X57932Y28612D1*
X57744Y28546D1*
X57548Y28506D1*
X57348Y28494D1*
X57149Y28509D1*
X56954Y28551D1*
X56766Y28620D1*
X56589Y28713D1*
X56427Y28830D1*
X56282Y28968D1*
X56158Y29124D1*
X56056Y29296D1*
X55978Y29480D1*
X55927Y29673D1*
X55902Y29872D1*
X55905Y30071D1*
X55935Y30269D1*
X55992Y30461D1*
X56074Y30643D1*
X56180Y30812D1*
X56309Y30965D1*
X56457Y31099D1*
X56623Y31211D1*
X56802Y31300D1*
X56991Y31363D1*
X57188Y31400D1*
X57387Y31410D1*
X57586Y31392D1*
X57781Y31347D1*
X57968Y31276D1*
X58143Y31180D1*
X58304Y31061D1*
X58447Y30922D1*
X58569Y30764D1*
X58669Y30590D1*
X58744Y30405D1*
X58793Y30211D1*
X58815Y30013D1*
X58813Y29852D1*
X340100Y18432D2*
X32860D1*
X32761Y18443D1*
X32666Y18475D1*
X32581Y18527D1*
X32509Y18596D1*
X32454Y18679D1*
X32417Y18772D1*
X32402Y18890D1*
Y23970D1*
X32413Y24069D1*
X32445Y24164D1*
X32497Y24249D1*
X32566Y24321D1*
X32649Y24376D1*
X32742Y24413D1*
X32860Y24428D1*
X340200D1*
X340299Y24417D1*
X340394Y24385D1*
X340479Y24333D1*
X340551Y24264D1*
X340606Y24181D1*
X340643Y24088D1*
X340658Y23970D1*
Y18890D1*
X340647Y18791D1*
X340615Y18696D1*
X340563Y18611D1*
X340494Y18539D1*
X340411Y18484D1*
X340318Y18447D1*
X340200Y18432D1*
X340100D1*
X298113Y60700D2*
Y58260D1*
X298102Y58161D1*
X298070Y58066D1*
X298018Y57981D1*
X297949Y57909D1*
X297866Y57854D1*
X297773Y57817D1*
X297655Y57802D1*
X24605D1*
X24506Y57813D1*
X24411Y57845D1*
X24326Y57897D1*
X24254Y57966D1*
X24199Y58049D1*
X24162Y58142D1*
X24147Y58260D1*
Y60800D1*
X24158Y60899D1*
X24190Y60994D1*
X24242Y61079D1*
X24311Y61151D1*
X24394Y61206D1*
X24487Y61243D1*
X24605Y61258D1*
X297655D1*
X297754Y61247D1*
X297849Y61215D1*
X297934Y61163D1*
X298006Y61094D1*
X298061Y61011D1*
X298098Y60918D1*
X298113Y60800D1*
Y60700D1*
X289577Y27880D2*
Y32860D1*
X289588Y32959D1*
X289620Y33054D1*
X289672Y33139D1*
X289741Y33211D1*
X289824Y33266D1*
X289917Y33303D1*
X290035Y33318D1*
X300195D1*
X300294Y33307D1*
X300389Y33275D1*
X300474Y33223D1*
X300546Y33154D1*
X300601Y33071D1*
X300638Y32978D1*
X300653Y32860D1*
Y27780D1*
X300642Y27681D1*
X300610Y27586D1*
X300558Y27501D1*
X300489Y27429D1*
X300406Y27374D1*
X300313Y27337D1*
X300195Y27322D1*
X290035D1*
X289936Y27333D1*
X289841Y27365D1*
X289756Y27417D1*
X289684Y27486D1*
X289629Y27569D1*
X289592Y27662D1*
X289577Y27780D1*
Y27880D1*
X351950Y76791D2*
X25650D1*
X25550Y76797D1*
X25451Y76812D1*
X25355Y76838D1*
X25262Y76874D1*
X25172Y76919D1*
X25088Y76973D1*
X25011Y77036D1*
X24940Y77106D1*
X24877Y77184D1*
X24822Y77268D1*
X24776Y77357D1*
X24740Y77450D1*
X24714Y77546D1*
X24698Y77645D1*
X24692Y77745D1*
X24697Y77844D1*
X24712Y77943D1*
X24737Y78040D1*
X24772Y78133D1*
X24817Y78223D1*
X24871Y78307D1*
X24933Y78385D1*
X25003Y78456D1*
X25081Y78520D1*
X25164Y78575D1*
X25253Y78621D1*
X25346Y78658D1*
X25442Y78685D1*
X25541Y78701D1*
X25750Y78707D1*
X352050D1*
X352150Y78702D1*
X352249Y78687D1*
X352345Y78661D1*
X352438Y78625D1*
X352528Y78580D1*
X352612Y78526D1*
X352689Y78463D1*
X352760Y78392D1*
X352823Y78315D1*
X352878Y78231D1*
X352924Y78142D1*
X352960Y78049D1*
X352986Y77953D1*
X353002Y77854D1*
X353008Y77754D1*
X353003Y77654D1*
X352988Y77556D1*
X352963Y77459D1*
X352928Y77365D1*
X352883Y77276D1*
X352829Y77192D1*
X352767Y77114D1*
X352697Y77042D1*
X352619Y76979D1*
X352536Y76924D1*
X352447Y76878D1*
X352354Y76841D1*
X352258Y76814D1*
X352159Y76798D1*
X351950Y76791D1*
X225757Y25317D2*
X78086Y25313D1*
X78023Y25236D1*
X77953Y25165D1*
X77875Y25102D1*
X77792Y25047D1*
X77703Y25001D1*
X77610Y24965D1*
X77513Y24939D1*
X77415Y24923D1*
X77315Y24917D1*
X77215Y24922D1*
X77116Y24937D1*
X77019Y24962D1*
X76926Y24997D1*
X76837Y25042D1*
X76752Y25096D1*
X76674Y25158D1*
X76603Y25228D1*
X76540Y25306D1*
X76484Y25389D1*
X76438Y25478D1*
X76402Y25571D1*
X76375Y25667D1*
X76358Y25766D1*
X76352Y25865D1*
X76356Y25965D1*
X76371Y26064D1*
X76396Y26161D1*
X76430Y26255D1*
X76475Y26344D1*
X76528Y26429D1*
X76590Y26507D1*
X76660Y26579D1*
X76737Y26643D1*
X76820Y26698D1*
X76908Y26745D1*
X77001Y26782D1*
X77097Y26809D1*
X77196Y26826D1*
X77296Y26833D1*
X77395Y26829D1*
X77494Y26815D1*
X77591Y26791D1*
X77685Y26756D1*
X77775Y26713D1*
X77860Y26660D1*
X77939Y26598D1*
X78010Y26529D1*
X78087Y26434D1*
X94310Y26433D1*
X225757D1*
X225815Y26507D1*
X225885Y26579D1*
X225962Y26643D1*
X226045Y26698D1*
X226133Y26745D1*
X226226Y26782D1*
X226322Y26809D1*
X226421Y26826D1*
X226521Y26833D1*
X226620Y26829D1*
X226719Y26815D1*
X226816Y26791D1*
X226910Y26756D1*
X227000Y26713D1*
X227085Y26660D1*
X227164Y26598D1*
X227235Y26529D1*
X227300Y26452D1*
X227356Y26369D1*
X227403Y26281D1*
X227440Y26188D1*
X227468Y26092D1*
X227486Y25994D1*
X227493Y25875D1*
X227488Y25775D1*
X227472Y25676D1*
X227446Y25580D1*
X227411Y25487D1*
X227365Y25397D1*
X227311Y25313D1*
X227248Y25236D1*
X227178Y25165D1*
X227100Y25102D1*
X227017Y25047D1*
X226928Y25001D1*
X226835Y24965D1*
X226738Y24939D1*
X226640Y24923D1*
X226540Y24917D1*
X226440Y24922D1*
X226341Y24937D1*
X226244Y24962D1*
X226151Y24997D1*
X226062Y25042D1*
X225977Y25096D1*
X225899Y25158D1*
X225828Y25228D1*
X225756Y25319D1*
X179600Y65321D2*
X179536Y65241D1*
X179465Y65170D1*
X179388Y65107D1*
X179304Y65052D1*
X179215Y65006D1*
X179122Y64970D1*
X178942Y64930D1*
X179051Y64915D1*
X179148Y64891D1*
X179242Y64856D1*
X179332Y64813D1*
X179417Y64760D1*
X179495Y64698D1*
X179567Y64629D1*
X179644Y64534D1*
X195867Y64533D1*
X300051D1*
X300180Y64679D1*
X300257Y64743D1*
X300340Y64798D1*
X300428Y64845D1*
X300521Y64882D1*
X300617Y64909D1*
X300731Y64927D1*
X300636Y64942D1*
X300539Y64967D1*
X300446Y65002D1*
X300357Y65047D1*
X300272Y65101D1*
X300194Y65163D1*
X300123Y65233D1*
X300051Y65324D1*
X298730Y65322D1*
X179598Y65318D1*
X179536Y65241D1*
X179465Y65170D1*
X179388Y65107D1*
X179304Y65052D1*
X179215Y65006D1*
X179122Y64970D1*
X178942Y64930D1*
X179051Y64915D1*
X179148Y64891D1*
X179242Y64856D1*
X179332Y64813D1*
X179417Y64760D1*
X179495Y64698D1*
X179567Y64629D1*
X179644Y64534D1*
X178042Y66436D2*
X178102Y66512D1*
X178172Y66584D1*
X178249Y66648D1*
X178332Y66703D1*
X178420Y66750D1*
X178513Y66787D1*
X178609Y66814D1*
X178708Y66831D1*
X178808Y66838D1*
X178907Y66834D1*
X179006Y66820D1*
X179103Y66796D1*
X179197Y66761D1*
X179287Y66718D1*
X179372Y66665D1*
X179451Y66603D1*
X179522Y66534D1*
X179599Y66439D1*
X300050Y66436D2*
X300110Y66512D1*
X300180Y66584D1*
X300257Y66648D1*
X300340Y66703D1*
X300428Y66750D1*
X300521Y66787D1*
X300617Y66814D1*
X300716Y66831D1*
X300816Y66838D1*
X300915Y66834D1*
X301014Y66820D1*
X301111Y66796D1*
X301205Y66761D1*
X301295Y66718D1*
X301380Y66665D1*
X301459Y66603D1*
X301530Y66534D1*
X301595Y66457D1*
X301651Y66374D1*
X301698Y66286D1*
X301735Y66193D1*
X301763Y66097D1*
X301781Y65999D1*
X301788Y65880D1*
X301783Y65780D1*
X301767Y65681D1*
X301741Y65585D1*
X301706Y65492D1*
X301660Y65402D1*
X301606Y65318D1*
X301543Y65241D1*
X301473Y65170D1*
X301395Y65107D1*
X301312Y65052D1*
X301223Y65006D1*
X301130Y64970D1*
X301033Y64944D1*
X300931Y64928D1*
X301111Y64891D1*
X301205Y64856D1*
X301295Y64813D1*
X301380Y64760D1*
X301459Y64698D1*
X301530Y64629D1*
X301595Y64552D1*
X301651Y64469D1*
X301698Y64381D1*
X301735Y64288D1*
X301763Y64192D1*
X301781Y64094D1*
X301788Y63975D1*
X301783Y63875D1*
X301767Y63776D1*
X301741Y63680D1*
X301706Y63587D1*
X301660Y63497D1*
X301606Y63413D1*
X301543Y63336D1*
X301473Y63265D1*
X301395Y63202D1*
X301312Y63147D1*
X301223Y63101D1*
X301130Y63065D1*
X301033Y63039D1*
X300935Y63023D1*
X300835Y63017D1*
X300735Y63022D1*
X300636Y63037D1*
X300539Y63062D1*
X300446Y63097D1*
X300357Y63142D1*
X300272Y63196D1*
X300194Y63258D1*
X300123Y63328D1*
X300051Y63419D1*
X57768Y65321D2*
X57703Y65241D1*
X57633Y65170D1*
X57555Y65107D1*
X57472Y65052D1*
X57383Y65006D1*
X57290Y64970D1*
X57193Y64944D1*
X57091Y64928D1*
X57271Y64891D1*
X57365Y64856D1*
X57455Y64813D1*
X57540Y64760D1*
X57619Y64698D1*
X57690Y64629D1*
X57767Y64534D1*
X56210Y66436D2*
X56270Y66512D1*
X56340Y66584D1*
X56417Y66648D1*
X56500Y66703D1*
X56588Y66750D1*
X56681Y66787D1*
X56777Y66814D1*
X56876Y66831D1*
X56976Y66838D1*
X57075Y66834D1*
X57174Y66820D1*
X57271Y66796D1*
X57365Y66761D1*
X57455Y66718D1*
X57540Y66665D1*
X57619Y66603D1*
X57690Y66534D1*
X57767Y66439D1*
X130098Y65321D2*
X130033Y65241D1*
X129963Y65170D1*
X129885Y65107D1*
X129801Y65052D1*
X129713Y65006D1*
X129619Y64970D1*
X129452Y64932D1*
X129594Y64915D1*
X129691Y64891D1*
X129785Y64856D1*
X129875Y64813D1*
X129959Y64760D1*
X130038Y64698D1*
X130110Y64629D1*
X130187Y64534D1*
X128540Y66436D2*
X128600Y66512D1*
X128670Y66584D1*
X128747Y66648D1*
X128830Y66703D1*
X128918Y66750D1*
X129011Y66787D1*
X129107Y66814D1*
X129206Y66831D1*
X129305Y66838D1*
X129405Y66834D1*
X129504Y66820D1*
X129601Y66796D1*
X129695Y66761D1*
X129785Y66718D1*
X129869Y66665D1*
X129948Y66603D1*
X130020Y66534D1*
X130097Y66439D1*
X179645Y63416D2*
X179580Y63336D1*
X179510Y63265D1*
X179432Y63202D1*
X179349Y63147D1*
X179260Y63101D1*
X179167Y63065D1*
X179070Y63039D1*
X178972Y63023D1*
X178872Y63017D1*
X178772Y63022D1*
X178673Y63037D1*
X178576Y63062D1*
X178483Y63097D1*
X178394Y63142D1*
X178309Y63196D1*
X178231Y63258D1*
X178160Y63328D1*
X178088Y63419D1*
X178087Y64531D2*
X178147Y64607D1*
X178217Y64679D1*
X178294Y64743D1*
X178377Y64798D1*
X178465Y64845D1*
X178558Y64882D1*
X178654Y64909D1*
X178749Y64926D1*
X178628Y64942D1*
X178532Y64967D1*
X178438Y65002D1*
X178349Y65047D1*
X178264Y65101D1*
X178186Y65163D1*
X178115Y65233D1*
X178044Y65322D1*
X130096Y65318D1*
X130033Y65241D1*
X129963Y65170D1*
X129885Y65107D1*
X129801Y65052D1*
X129713Y65006D1*
X129619Y64970D1*
X129452Y64932D1*
X129594Y64915D1*
X129691Y64891D1*
X129785Y64856D1*
X129875Y64813D1*
X129959Y64760D1*
X130038Y64698D1*
X130110Y64629D1*
X130187Y64534D1*
X146410Y64533D1*
X178088D1*
X178217Y64679D1*
X178294Y64743D1*
X178377Y64798D1*
X178465Y64845D1*
X178558Y64882D1*
X178654Y64909D1*
X178750Y64926D1*
X178628Y64942D1*
X178532Y64967D1*
X178438Y65002D1*
X178349Y65047D1*
X178264Y65101D1*
X178186Y65163D1*
X178115Y65233D1*
X178043Y65324D1*
X300050Y64531D2*
X300110Y64607D1*
X300180Y64679D1*
X300257Y64743D1*
X300340Y64798D1*
X300428Y64845D1*
X300521Y64882D1*
X300617Y64909D1*
X300732Y64927D1*
X300636Y64942D1*
X300539Y64967D1*
X300446Y65002D1*
X300357Y65047D1*
X300272Y65101D1*
X300194Y65163D1*
X300123Y65233D1*
X300051Y65324D1*
X57768Y63416D2*
X57703Y63336D1*
X57633Y63265D1*
X57555Y63202D1*
X57472Y63147D1*
X57383Y63101D1*
X57290Y63065D1*
X57193Y63039D1*
X57095Y63023D1*
X56995Y63017D1*
X56895Y63022D1*
X56796Y63037D1*
X56699Y63062D1*
X56606Y63097D1*
X56517Y63142D1*
X56432Y63196D1*
X56354Y63258D1*
X56283Y63328D1*
X56211Y63419D1*
X56210Y64531D2*
X56270Y64607D1*
X56340Y64679D1*
X56417Y64743D1*
X56500Y64798D1*
X56588Y64845D1*
X56681Y64882D1*
X56777Y64909D1*
X56892Y64927D1*
X56796Y64942D1*
X56699Y64967D1*
X56606Y65002D1*
X56517Y65047D1*
X56432Y65101D1*
X56354Y65163D1*
X56283Y65233D1*
X56211Y65324D1*
X130187Y63416D2*
X130123Y63336D1*
X130053Y63265D1*
X129975Y63202D1*
X129891Y63147D1*
X129802Y63101D1*
X129709Y63065D1*
X129613Y63039D1*
X129514Y63023D1*
X129414Y63017D1*
X129315Y63022D1*
X129216Y63037D1*
X129119Y63062D1*
X129026Y63097D1*
X128936Y63142D1*
X128852Y63196D1*
X128774Y63258D1*
X128703Y63328D1*
X128630Y63419D1*
Y64531D2*
X128690Y64607D1*
X128760Y64679D1*
X128836Y64743D1*
X128919Y64798D1*
X129008Y64845D1*
X129101Y64882D1*
X129280Y64924D1*
X129126Y64942D1*
X129029Y64967D1*
X128936Y65002D1*
X128846Y65047D1*
X128762Y65101D1*
X128684Y65163D1*
X128613Y65233D1*
X128542Y65322D1*
X57766Y65318D1*
X57703Y65241D1*
X57633Y65170D1*
X57555Y65107D1*
X57472Y65052D1*
X57383Y65006D1*
X57290Y64970D1*
X57193Y64944D1*
X57091Y64928D1*
X57271Y64891D1*
X57365Y64856D1*
X57455Y64813D1*
X57540Y64760D1*
X57619Y64698D1*
X57690Y64629D1*
X57767Y64534D1*
X73990Y64533D1*
X128631D1*
X128760Y64679D1*
X128836Y64743D1*
X128919Y64798D1*
X129008Y64845D1*
X129101Y64882D1*
X129280Y64924D1*
X129126Y64942D1*
X129029Y64967D1*
X128936Y65002D1*
X128846Y65047D1*
X128762Y65101D1*
X128684Y65163D1*
X128613Y65233D1*
X128541Y65324D1*
X231758Y40403D2*
X251789D1*
X251920Y40549D1*
X251997Y40613D1*
X252080Y40668D1*
X252168Y40715D1*
X252261Y40752D1*
X252357Y40779D1*
X252456Y40796D1*
X252556Y40803D1*
X252655Y40799D1*
X252754Y40785D1*
X252851Y40761D1*
X252945Y40726D1*
X253035Y40683D1*
X253120Y40630D1*
X253199Y40568D1*
X253270Y40499D1*
X253335Y40422D1*
X253391Y40339D1*
X253438Y40251D1*
X253475Y40158D1*
X253503Y40062D1*
X253521Y39964D1*
X253528Y39845D1*
X253523Y39745D1*
X253507Y39646D1*
X253481Y39550D1*
X253446Y39457D1*
X253400Y39367D1*
X253346Y39283D1*
X253283Y39206D1*
X253213Y39135D1*
X253135Y39072D1*
X253052Y39017D1*
X252963Y38971D1*
X252870Y38935D1*
X252773Y38909D1*
X252675Y38893D1*
X252575Y38887D1*
X252475Y38892D1*
X252376Y38907D1*
X252279Y38932D1*
X252186Y38967D1*
X252097Y39012D1*
X252012Y39066D1*
X251934Y39128D1*
X251863Y39198D1*
X251791Y39289D1*
X250470Y39287D1*
X231756Y39283D1*
X231693Y39206D1*
X231623Y39135D1*
X231545Y39072D1*
X231462Y39017D1*
X231373Y38971D1*
X231280Y38935D1*
X231183Y38909D1*
X231085Y38893D1*
X230985Y38887D1*
X230885Y38892D1*
X230786Y38907D1*
X230689Y38932D1*
X230596Y38967D1*
X230507Y39012D1*
X230422Y39066D1*
X230344Y39128D1*
X230273Y39198D1*
X230210Y39276D1*
X230154Y39359D1*
X230108Y39448D1*
X230072Y39541D1*
X230045Y39637D1*
X230028Y39736D1*
X230022Y39835D1*
X230026Y39935D1*
X230041Y40034D1*
X230066Y40131D1*
X230100Y40225D1*
X230145Y40314D1*
X230198Y40399D1*
X230260Y40477D1*
X230330Y40549D1*
X230407Y40613D1*
X230490Y40668D1*
X230578Y40715D1*
X230671Y40752D1*
X230767Y40779D1*
X230866Y40796D1*
X230966Y40803D1*
X231065Y40799D1*
X231164Y40785D1*
X231261Y40761D1*
X231355Y40726D1*
X231445Y40683D1*
X231530Y40630D1*
X231609Y40568D1*
X231680Y40499D1*
X231757Y40404D1*
X214327Y45002D2*
X206991Y44998D1*
X206928Y44921D1*
X206858Y44850D1*
X206780Y44787D1*
X206697Y44732D1*
X206608Y44686D1*
X206515Y44650D1*
X206418Y44624D1*
X206320Y44608D1*
X206220Y44602D1*
X206120Y44607D1*
X206021Y44622D1*
X205924Y44647D1*
X205831Y44682D1*
X205742Y44727D1*
X205657Y44781D1*
X205579Y44843D1*
X205508Y44913D1*
X205445Y44991D1*
X205389Y45074D1*
X205343Y45163D1*
X205307Y45256D1*
X205280Y45352D1*
X205263Y45451D1*
X205257Y45550D1*
X205261Y45650D1*
X205276Y45749D1*
X205301Y45846D1*
X205335Y45940D1*
X205380Y46029D1*
X205433Y46114D1*
X205495Y46192D1*
X205565Y46264D1*
X205642Y46328D1*
X205725Y46383D1*
X205813Y46430D1*
X205906Y46467D1*
X206002Y46494D1*
X206101Y46511D1*
X206201Y46518D1*
X206300Y46514D1*
X206399Y46500D1*
X206496Y46476D1*
X206590Y46441D1*
X206680Y46398D1*
X206765Y46345D1*
X206844Y46283D1*
X206915Y46214D1*
X206992Y46119D1*
X214324Y46118D1*
X214455Y46264D1*
X214532Y46328D1*
X214615Y46383D1*
X214703Y46430D1*
X214796Y46467D1*
X214892Y46494D1*
X214991Y46511D1*
X215091Y46518D1*
X215190Y46514D1*
X215289Y46500D1*
X215386Y46476D1*
X215480Y46441D1*
X215570Y46398D1*
X215655Y46345D1*
X215734Y46283D1*
X215805Y46214D1*
X215870Y46137D1*
X215926Y46054D1*
X215973Y45966D1*
X216010Y45873D1*
X216038Y45777D1*
X216056Y45679D1*
X216063Y45560D1*
X216058Y45460D1*
X216042Y45361D1*
X216016Y45265D1*
X215981Y45172D1*
X215935Y45082D1*
X215881Y44998D1*
X215818Y44921D1*
X215748Y44850D1*
X215670Y44787D1*
X215587Y44732D1*
X215498Y44686D1*
X215405Y44650D1*
X215308Y44624D1*
X215210Y44608D1*
X215110Y44602D1*
X215010Y44607D1*
X214911Y44622D1*
X214814Y44647D1*
X214721Y44682D1*
X214632Y44727D1*
X214547Y44781D1*
X214469Y44843D1*
X214398Y44913D1*
X214326Y45004D1*
X278386Y31174D2*
D19*
X280094Y29466D1*
Y31174D2*
X278386Y29466D1*
X196752Y34130D2*
X199168D1*
X196752Y36670D2*
X199168D1*
X197106Y40064D2*
D14*
X198814Y38356D1*
Y40064D2*
X197106Y38356D1*
X199646Y50224D2*
X201354Y48516D1*
Y50224D2*
X199646Y48516D1*
X197106Y50224D2*
X198814Y48516D1*
Y50224D2*
X197106Y48516D1*
X199646Y52764D2*
X201354Y51056D1*
Y52764D2*
X199646Y51056D1*
X197106Y52764D2*
X198814Y51056D1*
Y52764D2*
X197106Y51056D1*
X19306Y65464D2*
X21014Y63756D1*
Y65464D2*
X19306Y63756D1*
X18952Y50578D2*
X21368Y48162D1*
Y50578D2*
X18952Y48162D1*
X49370Y47403D2*
D18*
Y44987D1*
X45976Y47049D2*
D14*
X47684Y45341D1*
Y47049D2*
X45976Y45341D1*
X106035Y38900D2*
X107955Y36980D1*
Y38900D2*
X106035Y36980D1*
X98535Y56400D2*
X100455Y54480D1*
Y56400D2*
X98535Y54480D1*
X57718Y34342D2*
X59780Y32280D1*
Y34342D2*
X57718Y32280D1*
X196810Y32563D2*
D13*
X197312D1*
X198605D2*
X199853D1*
X201146D2*
X217672D1*
X219308D2*
X275672D1*
X196810Y32367D2*
X197081D1*
X198840D2*
X199622D1*
X201377D2*
X275947D1*
X196810Y32170D2*
X196937D1*
X198983D2*
X199478D1*
X201521D2*
X275947D1*
X199071Y31973D2*
X199387D1*
X201612D2*
X275947D1*
X199124Y31777D2*
X199337D1*
X201662D2*
X275947D1*
X199137Y31580D2*
X199322D1*
X201677D2*
X275947D1*
X199118Y31383D2*
X199340D1*
X201658D2*
X272981D1*
X275337D2*
X275947D1*
X199065Y31187D2*
X199393D1*
X201605D2*
X272981D1*
X275337D2*
X275912D1*
X196810Y30990D2*
X196950D1*
X198971D2*
X199490D1*
X201512D2*
X272981D1*
X275337D2*
X275737D1*
X196810Y30793D2*
X197100D1*
X198821D2*
X199640D1*
X201358D2*
X272981D1*
X275337D2*
X275625D1*
X196810Y30597D2*
X197347D1*
X198574D2*
X199884D1*
X201115D2*
X272981D1*
X275337D2*
X275556D1*
X196810Y30400D2*
X272981D1*
X275337D2*
X275525D1*
X196810Y30203D2*
X197840D1*
X198080D2*
X199322D1*
X201677D2*
X272981D1*
X275337D2*
X275528D1*
X196810Y30007D2*
X197287D1*
X198633D2*
X199322D1*
X201677D2*
X272981D1*
X275337D2*
X275565D1*
X196810Y29810D2*
X197065D1*
X198852D2*
X199322D1*
X201677D2*
X272981D1*
X275337D2*
X275640D1*
X196810Y29613D2*
X196928D1*
X198993D2*
X199322D1*
X201677D2*
X272981D1*
X275337D2*
X275762D1*
X199077Y29417D2*
X199322D1*
X201677D2*
X272981D1*
X275337D2*
X275947D1*
X199124Y29220D2*
X199322D1*
X201677D2*
X272981D1*
X275337D2*
X275947D1*
X199137Y29023D2*
X199322D1*
X201677D2*
X275947D1*
X199115Y28827D2*
X199322D1*
X201677D2*
X275947D1*
X199058Y28630D2*
X199322D1*
X201677D2*
X275947D1*
X196810Y28433D2*
X196959D1*
X198958D2*
X199322D1*
X201677D2*
X275947D1*
X196810Y28237D2*
X197115D1*
X198805D2*
X199322D1*
X201677D2*
X275947D1*
X196810Y28040D2*
X197375D1*
X198546D2*
X199322D1*
X201677D2*
X275947D1*
X273022Y31478D2*
X275318D1*
Y29162D1*
X273002D1*
Y31478D1*
X273022D1*
X275965Y29426D2*
X275832Y29553D1*
X275713Y29714D1*
X275624Y29892D1*
X275566Y30084D1*
X275543Y30282D1*
X275553Y30482D1*
X275598Y30676D1*
X275676Y30860D1*
X275784Y31028D1*
X275919Y31175D1*
X275965Y31213D1*
Y32508D1*
X275827Y32531D1*
X275536Y32607D1*
X275255Y32709D1*
X275138Y32761D1*
X271665Y32760D1*
X219837D1*
X219598Y32660D1*
X219312Y32569D1*
X219019Y32506D1*
X218722Y32470D1*
X218422Y32462D1*
X218123Y32483D1*
X217827Y32531D1*
X217536Y32607D1*
X217255Y32709D1*
X217138Y32761D1*
X213665Y32760D1*
X196790D1*
Y27880D1*
X275965D1*
Y29427D1*
X199442Y30208D2*
X201658D1*
Y27892D1*
X199342D1*
Y30208D1*
X199442D1*
X199118Y29030D2*
X199104Y28871D1*
X199068Y28715D1*
X199012Y28565D1*
X198935Y28425D1*
X198840Y28297D1*
X198727Y28183D1*
X198601Y28085D1*
X198462Y28006D1*
X198313Y27947D1*
X198158Y27909D1*
X197999Y27893D1*
X197839Y27898D1*
X197682Y27926D1*
X197530Y27975D1*
X197386Y28044D1*
X197253Y28133D1*
X197133Y28239D1*
X197029Y28361D1*
X196943Y28496D1*
X196877Y28641D1*
X196831Y28794D1*
X196806Y28952D1*
X196804Y29112D1*
X196823Y29271D1*
X196864Y29425D1*
X196927Y29572D1*
X197008Y29710D1*
X197108Y29835D1*
X197224Y29944D1*
X197355Y30037D1*
X197496Y30111D1*
X197647Y30165D1*
X197804Y30197D1*
X197963Y30208D1*
X198123Y30197D1*
X198279Y30163D1*
X198429Y30109D1*
X198571Y30034D1*
X198700Y29941D1*
X198816Y29830D1*
X198915Y29705D1*
X198996Y29567D1*
X199058Y29419D1*
X199098Y29265D1*
X199117Y29106D1*
X199118Y29030D1*
X201654Y31490D2*
X201619Y31293D1*
X201552Y31105D1*
X201453Y30932D1*
X201326Y30778D1*
X201174Y30648D1*
X201002Y30546D1*
X200815Y30476D1*
X200619Y30438D1*
X200419Y30435D1*
X200222Y30466D1*
X200033Y30530D1*
X199858Y30627D1*
X199702Y30751D1*
X199569Y30901D1*
X199465Y31071D1*
X199391Y31257D1*
X199350Y31452D1*
X199344Y31652D1*
X199372Y31850D1*
X199433Y32040D1*
X199526Y32217D1*
X199648Y32375D1*
X199796Y32509D1*
X199964Y32617D1*
X200149Y32693D1*
X200344Y32737D1*
X200543Y32747D1*
X200741Y32723D1*
X200932Y32664D1*
X201111Y32574D1*
X201271Y32454D1*
X201408Y32309D1*
X201518Y32142D1*
X201598Y31959D1*
X201645Y31765D1*
X201658Y31590D1*
X201654Y31490D1*
X199118Y31570D2*
X199104Y31411D1*
X199068Y31255D1*
X199012Y31105D1*
X198935Y30965D1*
X198840Y30837D1*
X198727Y30723D1*
X198601Y30625D1*
X198462Y30546D1*
X198313Y30487D1*
X198158Y30449D1*
X197999Y30433D1*
X197839Y30438D1*
X197682Y30466D1*
X197530Y30515D1*
X197386Y30584D1*
X197253Y30673D1*
X197133Y30779D1*
X197029Y30901D1*
X196943Y31036D1*
X196877Y31181D1*
X196831Y31334D1*
X196806Y31492D1*
X196804Y31652D1*
X196823Y31811D1*
X196864Y31965D1*
X196927Y32112D1*
X197008Y32250D1*
X197108Y32375D1*
X197224Y32484D1*
X197355Y32577D1*
X197496Y32651D1*
X197647Y32705D1*
X197804Y32737D1*
X197963Y32748D1*
X198123Y32737D1*
X198279Y32703D1*
X198429Y32649D1*
X198571Y32574D1*
X198700Y32481D1*
X198816Y32370D1*
X198915Y32245D1*
X198996Y32107D1*
X199058Y31959D1*
X199098Y31805D1*
X199117Y31646D1*
X199118Y31570D1*
X273002Y31478D2*
D19*
X275318Y29162D1*
Y31478D2*
X273002Y29162D1*
X197141Y29869D2*
X198779Y28231D1*
Y29869D2*
X197141Y28231D1*
Y32409D2*
X198779Y30771D1*
Y32409D2*
X197141Y30771D1*
X24725Y60503D2*
D13*
X297537D1*
X24725Y60307D2*
X297537D1*
X24725Y60110D2*
X297537D1*
X24725Y59913D2*
X297537D1*
X24725Y59717D2*
X297537D1*
X24725Y59520D2*
X297537D1*
X24725Y59323D2*
X297537D1*
X24725Y59127D2*
X297537D1*
X24725Y58930D2*
X297537D1*
X24725Y58733D2*
X297537D1*
X24725Y58537D2*
X297537D1*
X297555Y58460D2*
Y60700D1*
X24705D1*
Y58360D1*
X297555D1*
Y58460D1*
X290155Y32563D2*
X300076D1*
X290155Y32367D2*
X300076D1*
X290155Y32170D2*
X300076D1*
X290155Y31973D2*
X300076D1*
X290155Y31777D2*
X300076D1*
X290155Y31580D2*
X300076D1*
X290155Y31383D2*
X291463D1*
X292419D2*
X294001D1*
X294957D2*
X300076D1*
X290155Y31187D2*
X291151D1*
X292728D2*
X293692D1*
X295269D2*
X300076D1*
X290155Y30990D2*
X290976D1*
X292903D2*
X293517D1*
X295444D2*
X300076D1*
X290155Y30793D2*
X290863D1*
X293016D2*
X293404D1*
X295557D2*
X300076D1*
X290155Y30597D2*
X290795D1*
X293085D2*
X293335D1*
X295625D2*
X300076D1*
X290155Y30400D2*
X290767D1*
X293116D2*
X293304D1*
X295653D2*
X300076D1*
X290155Y30203D2*
X290770D1*
X293113D2*
X293307D1*
X295650D2*
X300076D1*
X290155Y30007D2*
X290804D1*
X293075D2*
X293345D1*
X295616D2*
X300076D1*
X290155Y29810D2*
X290882D1*
X293000D2*
X293420D1*
X295538D2*
X300076D1*
X290155Y29613D2*
X291004D1*
X292878D2*
X293542D1*
X295416D2*
X300076D1*
X290155Y29417D2*
X291195D1*
X292685D2*
X293735D1*
X295225D2*
X300076D1*
X290155Y29220D2*
X291560D1*
X292322D2*
X294098D1*
X294860D2*
X300076D1*
X290155Y29023D2*
X300076D1*
X290155Y28827D2*
X300076D1*
X290155Y28630D2*
X300076D1*
X290155Y28433D2*
X300076D1*
X290155Y28237D2*
X300076D1*
X290155Y28040D2*
X300076D1*
X293098Y30300D2*
X293084Y30141D1*
X293048Y29985D1*
X292992Y29835D1*
X292915Y29695D1*
X292820Y29567D1*
X292707Y29453D1*
X292581Y29355D1*
X292442Y29276D1*
X292293Y29217D1*
X292138Y29179D1*
X291979Y29163D1*
X291819Y29168D1*
X291662Y29196D1*
X291510Y29245D1*
X291366Y29314D1*
X291233Y29403D1*
X291113Y29509D1*
X291009Y29631D1*
X290923Y29766D1*
X290857Y29911D1*
X290811Y30064D1*
X290786Y30222D1*
X290784Y30382D1*
X290803Y30541D1*
X290844Y30695D1*
X290907Y30842D1*
X290988Y30980D1*
X291088Y31105D1*
X291204Y31214D1*
X291335Y31307D1*
X291476Y31381D1*
X291627Y31435D1*
X291784Y31467D1*
X291943Y31478D1*
X292103Y31467D1*
X292259Y31433D1*
X292409Y31379D1*
X292551Y31304D1*
X292680Y31211D1*
X292796Y31100D1*
X292895Y30975D1*
X292976Y30837D1*
X293038Y30689D1*
X293078Y30535D1*
X293097Y30376D1*
X293098Y30300D1*
X295634Y30220D2*
X295599Y30023D1*
X295532Y29835D1*
X295433Y29662D1*
X295306Y29508D1*
X295154Y29378D1*
X294982Y29276D1*
X294795Y29206D1*
X294599Y29168D1*
X294399Y29165D1*
X294202Y29196D1*
X294013Y29260D1*
X293838Y29357D1*
X293682Y29481D1*
X293549Y29631D1*
X293445Y29801D1*
X293371Y29987D1*
X293330Y30182D1*
X293324Y30382D1*
X293352Y30580D1*
X293413Y30770D1*
X293506Y30947D1*
X293628Y31105D1*
X293776Y31239D1*
X293944Y31347D1*
X294129Y31423D1*
X294324Y31467D1*
X294523Y31477D1*
X294721Y31453D1*
X294912Y31394D1*
X295091Y31304D1*
X295251Y31184D1*
X295388Y31039D1*
X295498Y30872D1*
X295578Y30689D1*
X295625Y30495D1*
X295638Y30320D1*
X295634Y30220D1*
X290135Y32660D2*
Y27880D1*
X300095D1*
Y32760D1*
X290135D1*
Y32660D1*
X291121Y31139D2*
D15*
X292759Y29501D1*
Y31139D2*
X291121Y29501D1*
D20*
X274160Y30320D3*
D21*
X276700D3*
X279240D3*
X291940D3*
X294480D3*
D20*
X337660Y21430D3*
D31*
X335120D3*
X332580D3*
X330040D3*
X327500D3*
X337660Y81530D3*
X335120D3*
X332580D3*
X330040D3*
X327500D3*
D20*
X289400Y21430D3*
D31*
X286860D3*
X284320D3*
X281780D3*
X279240D3*
X289400Y81530D3*
X286860D3*
X284320D3*
X281780D3*
X279240D3*
D20*
X215740Y21430D3*
D31*
X213200D3*
X210660D3*
X208120D3*
X205580D3*
X215740Y81530D3*
X213200D3*
X210660D3*
X208120D3*
X205580D3*
D20*
X167480Y21430D3*
D31*
X164940D3*
X162400D3*
X159860D3*
X157320D3*
X167480Y81530D3*
X164940D3*
X162400D3*
X159860D3*
X157320D3*
D20*
X93820Y21430D3*
D31*
X91280D3*
X88740D3*
X86200D3*
X83660D3*
X93820Y81530D3*
X91280D3*
X88740D3*
X86200D3*
X83660D3*
D20*
X45560Y21430D3*
D31*
X43020D3*
X40480D3*
X37940D3*
X35400D3*
X45560Y81530D3*
X43020D3*
X40480D3*
X37940D3*
X35400D3*
D20*
X200500Y29050D3*
D21*
X197960D3*
X200500Y31590D3*
X197960D3*
X200500Y34130D3*
X197960D3*
X200500Y36670D3*
X197960D3*
X200500Y39210D3*
X197960D3*
X200500Y41750D3*
X197960D3*
X200500Y44290D3*
X197960D3*
X200500Y46830D3*
X197960D3*
X200500Y49370D3*
X197960D3*
X200500Y51910D3*
X197960D3*
D20*
X20160Y69690D3*
D21*
Y67150D3*
Y64610D3*
Y62070D3*
Y59530D3*
D20*
Y49370D3*
D21*
Y46830D3*
Y44290D3*
Y41750D3*
D20*
X51910Y46195D3*
D21*
X49370D3*
X46830D3*
D36*
X96995Y37940D3*
X101995D3*
X106995D3*
X99495Y55440D3*
X104495D3*
D37*
X109395Y48440D3*
X94595D3*
D45*
X50640Y29952D3*
X49249Y33311D3*
X50640Y36670D3*
X57358D3*
X58749Y33311D3*
X57358Y29952D3*
M02*
