G04 DipTrace 2.4.0.2*
%INsensorclock.GTS*%
%MOMM*%
%ADD34C,1.8*%
%ADD38R,2.0X0.6*%
%ADD43C,2.0*%
%ADD44C,2.75*%
%ADD45C,1.6*%
%ADD46C,1.8*%
%ADD51C,2.2*%
%ADD52R,1.3X2.2*%
%ADD54R,2.2X1.3*%
%ADD56R,0.8X1.3*%
%ADD58R,2.2X0.8*%
%ADD60R,1.3X0.8*%
%ADD62O,2.8X3.2*%
%ADD64R,6.35X5.75*%
%ADD66R,2.95X1.2*%
%ADD68R,2.6X3.0*%
%ADD70R,1.98X3.35*%
%ADD73R,0.85X1.25*%
%ADD75R,1.5X1.7*%
%ADD77R,1.8X2.9*%
%ADD79R,2.9X1.8*%
%ADD81R,1.622X4.264*%
%ADD83R,1.7X1.5*%
%ADD85R,4.98X3.35*%
%ADD87C,1.7*%
%ADD89R,1.7X1.7*%
%FSLAX53Y53*%
G04*
G71*
G90*
G75*
G01*
%LNTopMask*%
%LPD*%
D89*
X274160Y30320D3*
D87*
X276700D3*
X279240D3*
X291940D3*
X294480D3*
D44*
X218490Y35665D3*
X276490D3*
X218490Y84665D3*
X276490D3*
D85*
X142715Y62705D3*
Y31665D3*
D83*
X302735Y62070D3*
Y60170D3*
D81*
X318737Y22192D3*
Y15588D3*
X309847Y22192D3*
Y15588D3*
D79*
X297020Y32860D3*
Y35660D3*
X293210Y32860D3*
Y35660D3*
X270985Y32225D3*
Y35025D3*
X267175Y32225D3*
Y35025D3*
X263365Y32225D3*
Y35025D3*
X259555Y32225D3*
Y35025D3*
D77*
X250030Y54450D3*
X247230D3*
X257650Y55085D3*
X260450D3*
D83*
X180815Y62070D3*
Y60170D3*
X95090Y32225D3*
Y30325D3*
X109060Y32225D3*
Y30325D3*
D75*
X71912Y27145D3*
X73812D3*
D83*
X65245D3*
Y25245D3*
D75*
X113500Y63975D3*
X111600D3*
D83*
X58895Y62070D3*
Y60170D3*
D79*
X55085Y51910D3*
Y54710D3*
D83*
X58330Y51830D3*
Y53730D3*
X234475Y45560D3*
Y47460D3*
X133190Y18255D3*
Y20155D3*
X21430Y18255D3*
Y20155D3*
D75*
X25650Y84090D3*
X23750D3*
X117450D3*
X115550D3*
X239850D3*
X237950D3*
X352050D3*
X350150D3*
D83*
X354200Y36640D3*
Y38540D3*
D75*
X254900Y18340D3*
X256800D3*
D73*
X326230Y18255D3*
X324330D3*
X325280Y15955D3*
D89*
X337660Y21430D3*
D34*
X335120D3*
X332580D3*
X330040D3*
X327500D3*
X337660Y81530D3*
X335120D3*
X332580D3*
X330040D3*
X327500D3*
D89*
X289400Y21430D3*
D34*
X286860D3*
X284320D3*
X281780D3*
X279240D3*
X289400Y81530D3*
X286860D3*
X284320D3*
X281780D3*
X279240D3*
D89*
X215740Y21430D3*
D34*
X213200D3*
X210660D3*
X208120D3*
X205580D3*
X215740Y81530D3*
X213200D3*
X210660D3*
X208120D3*
X205580D3*
D89*
X167480Y21430D3*
D34*
X164940D3*
X162400D3*
X159860D3*
X157320D3*
X167480Y81530D3*
X164940D3*
X162400D3*
X159860D3*
X157320D3*
D89*
X93820Y21430D3*
D34*
X91280D3*
X88740D3*
X86200D3*
X83660D3*
X93820Y81530D3*
X91280D3*
X88740D3*
X86200D3*
X83660D3*
D89*
X45560Y21430D3*
D34*
X43020D3*
X40480D3*
X37940D3*
X35400D3*
X45560Y81530D3*
X43020D3*
X40480D3*
X37940D3*
X35400D3*
D70*
X347185Y15080D3*
X341955D3*
D68*
X354170Y19525D3*
X348070D3*
X354170Y30525D3*
X348070D3*
D45*
X354170Y25025D3*
D46*
X349670D3*
D89*
X200500Y29050D3*
D87*
X197960D3*
X200500Y31590D3*
X197960D3*
X200500Y34130D3*
X197960D3*
X200500Y36670D3*
X197960D3*
X200500Y39210D3*
X197960D3*
X200500Y41750D3*
X197960D3*
X200500Y44290D3*
X197960D3*
X200500Y46830D3*
X197960D3*
X200500Y49370D3*
X197960D3*
X200500Y51910D3*
X197960D3*
D89*
X20160Y69690D3*
D87*
Y67150D3*
Y64610D3*
Y62070D3*
Y59530D3*
D89*
Y49370D3*
D87*
Y46830D3*
Y44290D3*
Y41750D3*
D66*
X329405Y18255D3*
Y13695D3*
D64*
X336105Y15975D3*
D75*
X298290Y65880D3*
X296390D3*
X298290Y63975D3*
X296390D3*
D83*
X330040Y76040D3*
Y77940D3*
X327500Y76040D3*
Y77940D3*
X330040Y27145D3*
Y25245D3*
X332580Y27145D3*
Y25245D3*
X277970Y25240D3*
Y27140D3*
X335120Y27145D3*
Y25245D3*
Y76040D3*
Y77940D3*
X337660Y76040D3*
Y77940D3*
X325277Y27145D3*
Y25245D3*
X332580Y76040D3*
Y77940D3*
X281780Y76040D3*
Y77940D3*
X279240Y76040D3*
Y77940D3*
X281780Y27145D3*
Y25245D3*
X284320Y27145D3*
Y25245D3*
X286860Y27145D3*
Y25245D3*
Y76040D3*
Y77940D3*
X289400Y76040D3*
Y77940D3*
X284320Y76040D3*
Y77940D3*
D75*
X98900Y32225D3*
X100800D3*
X105250D3*
X103350D3*
X176370Y65880D3*
X174470D3*
X176370Y63975D3*
X174470D3*
X193515Y64610D3*
X195415D3*
D83*
X208120Y76040D3*
Y77940D3*
X205580Y76040D3*
Y77940D3*
D75*
X98900Y34765D3*
X97000D3*
X107155D3*
X105255D3*
D83*
X208120Y27145D3*
Y25245D3*
X210660Y27145D3*
Y25245D3*
X213200Y27145D3*
Y25245D3*
Y76040D3*
Y77940D3*
X215740Y76040D3*
Y77940D3*
X210660Y76040D3*
Y77940D3*
X159860Y76040D3*
Y77940D3*
X157320Y76040D3*
Y77940D3*
X159860Y27145D3*
Y25245D3*
X162400Y27145D3*
Y25245D3*
X164940Y27145D3*
Y25245D3*
Y76040D3*
Y77940D3*
X167480Y76040D3*
Y77940D3*
X162400Y76040D3*
Y77940D3*
D75*
X131920Y65880D3*
X133820D3*
X131920Y63975D3*
X133820D3*
X54445Y65880D3*
X52545D3*
X54445Y63975D3*
X52545D3*
X71595Y65245D3*
X73495D3*
D83*
X86200Y76040D3*
Y77940D3*
X83660Y76040D3*
Y77940D3*
X86200Y27145D3*
Y25245D3*
X88740Y27145D3*
Y25245D3*
X91280Y27145D3*
Y25245D3*
Y76040D3*
Y77940D3*
D89*
X51910Y46195D3*
D87*
X49370D3*
X46830D3*
D83*
X93820Y76040D3*
Y77940D3*
X88740Y76040D3*
Y77940D3*
X37940Y76040D3*
Y77940D3*
X35400Y76040D3*
Y77940D3*
X37940Y27145D3*
Y25245D3*
X40480Y27145D3*
Y25245D3*
X43020Y27145D3*
Y25245D3*
Y76040D3*
Y77940D3*
X45560Y76040D3*
Y77940D3*
X40480Y76040D3*
Y77940D3*
D43*
X96995Y37940D3*
X101995D3*
X106995D3*
X99495Y55440D3*
X104495D3*
D62*
X109395Y48440D3*
X94595D3*
D60*
X252570Y54450D3*
Y53500D3*
Y52550D3*
X255270D3*
Y54450D3*
D44*
X13810Y88740D3*
D38*
X312260Y63975D3*
Y64625D3*
Y65275D3*
Y65925D3*
Y66575D3*
Y67225D3*
Y67875D3*
Y68525D3*
Y69175D3*
Y69825D3*
Y70475D3*
Y71125D3*
Y71775D3*
Y72425D3*
Y73075D3*
Y73725D3*
X304760D3*
Y73075D3*
Y72425D3*
Y71775D3*
Y71125D3*
Y70475D3*
Y69825D3*
Y69175D3*
Y68525D3*
Y67875D3*
Y67225D3*
Y66575D3*
Y65925D3*
Y65275D3*
Y64625D3*
Y63975D3*
D44*
X125570Y88740D3*
D38*
X190340Y63975D3*
Y64625D3*
Y65275D3*
Y65925D3*
Y66575D3*
Y67225D3*
Y67875D3*
Y68525D3*
Y69175D3*
Y69825D3*
Y70475D3*
Y71125D3*
Y71775D3*
Y72425D3*
Y73075D3*
Y73725D3*
X182840D3*
Y73075D3*
Y72425D3*
Y71775D3*
Y71125D3*
Y70475D3*
Y69825D3*
Y69175D3*
Y68525D3*
Y67875D3*
Y67225D3*
Y66575D3*
Y65925D3*
Y65275D3*
Y64625D3*
Y63975D3*
D44*
X247490Y88740D3*
D60*
X67150Y29050D3*
Y28100D3*
Y27150D3*
X69850D3*
Y29050D3*
D44*
X359250Y88740D3*
D58*
X116805Y65245D3*
Y63975D3*
Y62705D3*
Y61435D3*
Y60165D3*
Y58895D3*
Y57625D3*
Y56355D3*
X126205D3*
Y57625D3*
Y58895D3*
Y60165D3*
Y61435D3*
Y62705D3*
Y63975D3*
Y65245D3*
D38*
X68420Y63975D3*
Y64625D3*
Y65275D3*
Y65925D3*
Y66575D3*
Y67225D3*
Y67875D3*
Y68525D3*
Y69175D3*
Y69825D3*
Y70475D3*
Y71125D3*
Y71775D3*
Y72425D3*
Y73075D3*
Y73725D3*
X60920D3*
Y73075D3*
Y72425D3*
Y71775D3*
Y71125D3*
Y70475D3*
Y69825D3*
Y69175D3*
Y68525D3*
Y67875D3*
Y67225D3*
Y66575D3*
Y65925D3*
Y65275D3*
Y64625D3*
Y63975D3*
D56*
X57380Y46130D3*
X58330D3*
X59280D3*
Y48830D3*
X58330D3*
X57380D3*
D58*
X229075Y43020D3*
Y41750D3*
Y40480D3*
Y39210D3*
Y37940D3*
Y36670D3*
Y35400D3*
X234475D3*
Y36670D3*
Y37940D3*
Y39210D3*
Y40480D3*
Y41750D3*
Y43020D3*
D54*
X138150Y12540D3*
Y14240D3*
Y15940D3*
X133350D3*
Y14240D3*
Y12540D3*
X25950D3*
Y14240D3*
Y15940D3*
X21150D3*
Y14240D3*
Y12540D3*
X20850Y89890D3*
Y88190D3*
Y86490D3*
X25650D3*
Y88190D3*
Y89890D3*
X112650D3*
Y88190D3*
Y86490D3*
X117450D3*
Y88190D3*
Y89890D3*
X235050D3*
Y88190D3*
Y86490D3*
X239850D3*
Y88190D3*
Y89890D3*
X347250D3*
Y88190D3*
Y86490D3*
X352050D3*
Y88190D3*
Y89890D3*
D52*
X360000Y41440D3*
X358300D3*
X356600D3*
Y36640D3*
X358300D3*
X360000D3*
D54*
X259700Y12540D3*
Y14240D3*
Y15940D3*
X254900D3*
Y14240D3*
Y12540D3*
D44*
X13810Y13810D3*
X125570D3*
X247490D3*
X359250D3*
D51*
X50640Y29952D3*
X49249Y33311D3*
X50640Y36670D3*
X57358D3*
X58749Y33311D3*
X57358Y29952D3*
M02*
