M48
METRIC,0000.00
T01C0.5
T02C0.9
T03C1.0
T04C1.1
T05C1.2
T06C1.6
T07C1.8
T08C2.0
T09C2.75
%
T01
X+002325Y+008969
X+002325Y+008809
X+002325Y+008649
X+002565Y+007775
X+001381Y+007731
X+002587Y+005953
X+005254Y+005953
X+005445Y+005699
X+005572Y+005699
X+005826Y+005572
X+005889Y+005699
X+006366Y+005699
X+006366Y+006207
X+006080Y+006207
X+005699Y+006398
X+005699Y+006588
X+006334Y+006969
X+006334Y+007096
X+006334Y+007223
X+006461Y+007223
X+006588Y+007223
X+006588Y+007096
X+006461Y+007096
X+006461Y+006969
X+006588Y+006969
X+006842Y+006207
X+007350Y+005953
X+006080Y+004746
X+005889Y+004429
X+005572Y+004746
X+005572Y+004873
X+005572Y+005000
X+006842Y+003032
X+006842Y+002588
X+006334Y+002524
X+007540Y+002714
X+007731Y+002588
X+008874Y+001635
X+009509Y+002778
X+010906Y+002778
X+010449Y+004302
X+011223Y+004810
X+011414Y+005699
X+011350Y+005953
X+011160Y+006207
X+011922Y+005699
X+012049Y+005445
X+012239Y+005699
X+012366Y+005699
X+012366Y+006207
X+012239Y+006207
X+012941Y+006398
X+012932Y+006588
X+011752Y+007775
X+011505Y+008649
X+011505Y+008809
X+011505Y+008969
X+008874Y+008620
X+009318Y+006493
X+009763Y+005953
X+009509Y+004556
X+013890Y+003286
X+013890Y+003159
X+013890Y+003032
X+014081Y+002842
X+014208Y+002842
X+014335Y+002842
X+014462Y+002842
X+014652Y+003032
X+014652Y+003159
X+014652Y+003286
X+014462Y+003476
X+014335Y+003476
X+014208Y+003476
X+014081Y+003476
X+013575Y+001574
X+013575Y+001414
X+013575Y+001254
X+016240Y+001635
X+018335Y+003730
X+018653Y+003730
X+019066Y+003730
X+019066Y+003413
X+019066Y+003064
X+019034Y+004175
X+019034Y+004429
X+019034Y+004683
X+019034Y+005064
X+018653Y+005064
X+018335Y+005064
X+018335Y+004683
X+018335Y+004429
X+018335Y+004175
X+018653Y+004175
X+018653Y+004429
X+018653Y+004683
X+018081Y+005699
X+018335Y+006207
X+018653Y+006207
X+019034Y+006207
X+019554Y+005953
X+018780Y+006969
X+018780Y+007096
X+018653Y+007096
X+018526Y+007096
X+018526Y+007223
X+018653Y+007223
X+018780Y+007223
X+018653Y+006969
X+018526Y+006969
X+017882Y+006588
X+017887Y+006398
X+017447Y+005953
X+015795Y+006493
X+016494Y+008620
X+021066Y+008620
X+021510Y+006493
X+021510Y+004556
X+020622Y+004556
X+022653Y+004366
X+023098Y+003984
X+022907Y+003413
X+023669Y+003667
X+023670Y+004175
X+024368Y+003667
X+025257Y+003984
X+025765Y+003730
X+025892Y+003730
X+026019Y+003730
X+026146Y+003730
X+026273Y+003730
X+026400Y+003730
X+026527Y+003730
X+026654Y+003730
X+026781Y+003730
X+026908Y+003730
X+027035Y+003730
X+027162Y+003730
X+027289Y+003730
X+027352Y+003223
X+027480Y+003223
X+027225Y+003032
X+027098Y+003032
X+026971Y+003032
X+026844Y+003032
X+026718Y+003032
X+026590Y+003032
X+026463Y+003032
X+026336Y+003032
X+026209Y+003032
X+026082Y+003032
X+025956Y+003032
X+025829Y+003032
X+025701Y+003032
X+025701Y+002842
X+025829Y+002842
X+025956Y+002842
X+026082Y+002842
X+026209Y+002842
X+026336Y+002842
X+026463Y+002842
X+026590Y+002842
X+026718Y+002842
X+026844Y+002842
X+026971Y+002842
X+027098Y+002842
X+027225Y+002842
X+027352Y+002842
X+027480Y+002842
X+027797Y+003223
X+027924Y+003223
X+028051Y+003223
X+027988Y+002842
X+027988Y+002714
X+027988Y+002588
X+028876Y+002842
X+028876Y+002969
X+028876Y+003095
X+028876Y+003223
X+029067Y+003223
X+029194Y+003223
X+029194Y+002842
X+029067Y+002842
X+029321Y+002842
X+029448Y+002842
X+029575Y+002842
X+029702Y+002842
X+029829Y+002842
X+029956Y+002842
X+029956Y+003032
X+029829Y+003032
X+029702Y+003032
X+029765Y+003794
X+029638Y+003794
X+029511Y+003794
X+029384Y+003794
X+029257Y+003794
X+029893Y+003794
X+030019Y+003794
X+030781Y+002524
X+030908Y+002524
X+031035Y+002524
X+031162Y+002524
X+031670Y+002524
X+031797Y+002524
X+031924Y+002524
X+032051Y+002524
X+030496Y+002270
X+030496Y+002143
X+030496Y+002016
X+030369Y+002016
X+030369Y+002143
X+030369Y+002270
X+030242Y+002270
X+030242Y+002143
X+030242Y+002016
X+030115Y+002016
X+030115Y+002143
X+030115Y+002270
X+029880Y+001339
X+029710Y+001254
X+028432Y+001635
X+025730Y+001574
X+025730Y+001414
X+025730Y+001254
X+024368Y+002588
X+022653Y+002588
X+021066Y+001635
X+024495Y+005254
X+024495Y+005381
X+024495Y+005509
X+024495Y+005635
X+025146Y+005127
X+025146Y+005000
X+025384Y+005127
X+025511Y+005127
X+025384Y+005572
X+025384Y+005699
X+025384Y+005890
X+025511Y+005890
X+025638Y+005890
X+025765Y+005890
X+025892Y+005890
X+025892Y+006016
X+025765Y+006016
X+025638Y+006016
X+025511Y+006016
X+025384Y+006016
X+026273Y+005699
X+026273Y+005572
X+026273Y+005445
X+026273Y+005318
X+027988Y+006493
X+029638Y+005953
X+030083Y+006398
X+030083Y+006588
X+030718Y+006969
X+030718Y+007096
X+030845Y+007096
X+030972Y+007096
X+030972Y+006969
X+030845Y+006969
X+030845Y+007223
X+030972Y+007223
X+030718Y+007223
X+031226Y+006207
X+030273Y+005699
X+028432Y+008620
X+025008Y+007775
X+023992Y+007775
X+023745Y+008649
X+023745Y+008809
X+023745Y+008969
X+033258Y+008620
X+034965Y+008649
X+034965Y+008809
X+034965Y+008969
X+035205Y+007775
X+035607Y+007541
X+035680Y+003904
X+035840Y+003904
X+036000Y+003904
X+036000Y+003464
X+035830Y+003464
X+035671Y+003286
X+035671Y+003159
X+035671Y+003032
X+035671Y+002905
X+035671Y+002778
X+035544Y+002778
X+035417Y+002778
X+035290Y+002778
X+035163Y+002778
X+035163Y+002905
X+035036Y+002905
X+035036Y+002778
X+034909Y+002778
X+034782Y+002778
X+034655Y+002778
X+034528Y+002778
X+034528Y+002905
X+034528Y+003032
X+034528Y+003159
X+034528Y+003286
X+034655Y+003286
X+034782Y+003286
X+034909Y+003286
X+035036Y+003286
X+035036Y+003159
X+035036Y+003032
X+035163Y+003032
X+035163Y+003159
X+035163Y+003286
X+035290Y+003286
X+035417Y+003286
X+035544Y+003286
X+004048Y+001635
X+002355Y+001574
X+002355Y+001414
X+002355Y+001254
X+002143Y+002206
X+001381Y+002651
X+004048Y+008620
T02
X+027416Y+003032
X+027670Y+003032
X+027924Y+003032
X+029194Y+003032
X+029448Y+003032
X+028940Y+002143
X+033766Y+002143
X+021574Y+002143
X+020050Y+002905
X+020050Y+003159
X+019796Y+003159
X+019796Y+002905
X+019796Y+003413
X+019796Y+003667
X+019796Y+003921
X+020050Y+003921
X+020050Y+003667
X+020050Y+003413
X+020050Y+004175
X+020050Y+004429
X+020050Y+004683
X+019796Y+004683
X+019796Y+004429
X+019796Y+004175
X+019796Y+004937
X+019796Y+005191
X+020050Y+005191
X+020050Y+004937
X+016748Y+002143
X+009382Y+002143
X+004556Y+002143
X+004683Y+004619
X+004937Y+004619
X+005191Y+004619
X+002016Y+004683
X+002016Y+004937
X+002016Y+004429
X+002016Y+004175
X+002016Y+005953
X+002016Y+006207
X+002016Y+006461
X+002016Y+006715
X+002016Y+006969
T03
X+033512Y+002143
X+033258Y+002143
X+033004Y+002143
X+032750Y+002143
X+028686Y+002143
X+028432Y+002143
X+028178Y+002143
X+027924Y+002143
X+027924Y+008153
X+028178Y+008153
X+028432Y+008153
X+028686Y+008153
X+028940Y+008153
X+032750Y+008153
X+033004Y+008153
X+033258Y+008153
X+033512Y+008153
X+033766Y+008153
X+021574Y+008153
X+021320Y+008153
X+021066Y+008153
X+020812Y+008153
X+020558Y+008153
X+016748Y+008153
X+016494Y+008153
X+016240Y+008153
X+015986Y+008153
X+015732Y+008153
X+015732Y+002143
X+015986Y+002143
X+016240Y+002143
X+016494Y+002143
X+020558Y+002143
X+020812Y+002143
X+021066Y+002143
X+021320Y+002143
X+009128Y+002143
X+008874Y+002143
X+008620Y+002143
X+008366Y+002143
X+004302Y+002143
X+004048Y+002143
X+003794Y+002143
X+003540Y+002143
X+003540Y+008153
X+003794Y+008153
X+004048Y+008153
X+004302Y+008153
X+004556Y+008153
X+008366Y+008153
X+008620Y+008153
X+008874Y+008153
X+009128Y+008153
X+009382Y+008153
T04
X+009699Y+003794
X+010199Y+003794
X+010699Y+003794
X+010449Y+005544
X+009949Y+005544
T05
X+005064Y+002995
X+004925Y+003331
X+005064Y+003667
X+005736Y+003667
X+005875Y+003331
X+005736Y+002995
T06
X+035417Y+002502
T07
X+034967Y+002502
T08
X+010939Y+004824G85X+010939Y+004864
X+009459Y+004824G85X+009459Y+004864
T09
X+021849Y+003566
X+024749Y+001381
X+027649Y+003566
X+027649Y+008467
X+024749Y+008874
X+021849Y+008467
X+012557Y+008874
X+012557Y+001381
X+001381Y+001381
X+001381Y+008874
X+035925Y+008874
X+035925Y+001381
T00
M30
