G04 DipTrace 2.4.0.2*
%INsensorclock.GBO*%
%MOMM*%
%ADD10C,0.25*%
%ADD28O,2.539X2.541*%
%ADD90C,0.196*%
%ADD91C,0.157*%
%FSLAX53Y53*%
G04*
G71*
G90*
G75*
G01*
%LNBotSilk*%
%LPD*%
X356580Y86480D2*
D10*
X308580D1*
Y16480D1*
X356580D1*
Y86480D1*
D28*
X352771Y20291D3*
X308320Y86480D2*
D10*
X260320D1*
Y16480D1*
X308320D1*
Y86480D1*
D28*
X304511Y20291D3*
X234660Y86480D2*
D10*
X186660D1*
Y16480D1*
X234660D1*
Y86480D1*
D28*
X230851Y20291D3*
X186400Y86480D2*
D10*
X138400D1*
Y16480D1*
X186400D1*
Y86480D1*
D28*
X182591Y20291D3*
X112740Y86480D2*
D10*
X64740D1*
Y16480D1*
X112740D1*
Y86480D1*
D28*
X108931Y20291D3*
X64480Y86480D2*
D10*
X16480D1*
Y16480D1*
X64480D1*
Y86480D1*
D28*
X60671Y20291D3*
X333975Y15240D2*
D90*
Y13964D1*
X333550D1*
X333367Y14026D1*
X333245Y14146D1*
X333185Y14268D1*
X333124Y14450D1*
Y14754D1*
X333185Y14937D1*
X333245Y15057D1*
X333367Y15180D1*
X333550Y15240D1*
X333975D1*
X331882Y15057D2*
X332002Y15180D1*
X332185Y15240D1*
X332428D1*
X332610Y15180D1*
X332732Y15057D1*
Y14937D1*
X332671Y14815D1*
X332610Y14754D1*
X332489Y14694D1*
X332124Y14572D1*
X332002Y14511D1*
X331942Y14450D1*
X331882Y14329D1*
Y14146D1*
X332002Y14026D1*
X332185Y13964D1*
X332428D1*
X332610Y14026D1*
X332732Y14146D1*
X331489Y14996D2*
X331367Y15057D1*
X331185Y15238D1*
Y13964D1*
X338053Y88717D2*
X338174Y88840D1*
X338356Y88900D1*
X338599D1*
X338782Y88840D1*
X338904Y88717D1*
Y88597D1*
X338842Y88475D1*
X338782Y88414D1*
X338661Y88354D1*
X338296Y88232D1*
X338174Y88171D1*
X338114Y88110D1*
X338053Y87989D1*
Y87806D1*
X338174Y87686D1*
X338356Y87624D1*
X338599D1*
X338782Y87686D1*
X338904Y87806D1*
X336688Y87624D2*
X337175Y88900D1*
X337661Y87624D1*
X337479Y88049D2*
X336871D1*
X336234Y88595D2*
Y88656D1*
X336174Y88778D1*
X336114Y88838D1*
X335991Y88898D1*
X335749D1*
X335628Y88838D1*
X335567Y88778D1*
X335506Y88656D1*
Y88535D1*
X335567Y88413D1*
X335688Y88232D1*
X336296Y87624D1*
X335445D1*
X334931Y88898D2*
X334264D1*
X334628Y88413D1*
X334445D1*
X334325Y88352D1*
X334264Y88292D1*
X334202Y88110D1*
Y87989D1*
X334264Y87806D1*
X334385Y87684D1*
X334567Y87624D1*
X334750D1*
X334931Y87684D1*
X334991Y87746D1*
X335053Y87867D1*
X333810Y88261D2*
X333108D1*
X332716Y88656D2*
X332594Y88717D1*
X332412Y88898D1*
Y87624D1*
X332019Y88656D2*
X331897Y88717D1*
X331715Y88898D1*
Y87624D1*
X330472Y88717D2*
X330593Y88840D1*
X330775Y88900D1*
X331018D1*
X331200Y88840D1*
X331323Y88717D1*
Y88597D1*
X331261Y88475D1*
X331200Y88414D1*
X331080Y88354D1*
X330715Y88232D1*
X330593Y88171D1*
X330532Y88110D1*
X330472Y87989D1*
Y87806D1*
X330593Y87686D1*
X330775Y87624D1*
X331018D1*
X331200Y87686D1*
X331323Y87806D1*
X330080Y88292D2*
X329534D1*
X329351Y88354D1*
X329289Y88414D1*
X329229Y88535D1*
Y88657D1*
X329289Y88778D1*
X329351Y88840D1*
X329534Y88900D1*
X330080D1*
Y87624D1*
X329654Y88292D2*
X329229Y87624D1*
X328837Y88900D2*
X328532Y87624D1*
X328229Y88900D1*
X327926Y87624D1*
X327621Y88900D1*
X326256Y87624D2*
X326743Y88900D1*
X327229Y87624D1*
X327046Y88049D2*
X326439D1*
X285988Y15240D2*
Y13964D1*
X285563D1*
X285380Y14026D1*
X285258Y14146D1*
X285198Y14268D1*
X285138Y14450D1*
Y14754D1*
X285198Y14937D1*
X285258Y15057D1*
X285380Y15180D1*
X285563Y15240D1*
X285988D1*
X283895Y15057D2*
X284015Y15180D1*
X284198Y15240D1*
X284441D1*
X284623Y15180D1*
X284745Y15057D1*
Y14937D1*
X284684Y14815D1*
X284623Y14754D1*
X284502Y14694D1*
X284137Y14572D1*
X284015Y14511D1*
X283955Y14450D1*
X283895Y14329D1*
Y14146D1*
X284015Y14026D1*
X284198Y13964D1*
X284441D1*
X284623Y14026D1*
X284745Y14146D1*
X283441Y14935D2*
Y14996D1*
X283380Y15118D1*
X283320Y15178D1*
X283198Y15238D1*
X282955D1*
X282834Y15178D1*
X282774Y15118D1*
X282712Y14996D1*
Y14875D1*
X282774Y14753D1*
X282895Y14572D1*
X283502Y13964D1*
X282652D1*
X290428Y88717D2*
X290549Y88840D1*
X290731Y88900D1*
X290974D1*
X291157Y88840D1*
X291279Y88717D1*
Y88597D1*
X291217Y88475D1*
X291157Y88414D1*
X291036Y88354D1*
X290671Y88232D1*
X290549Y88171D1*
X290489Y88110D1*
X290428Y87989D1*
Y87806D1*
X290549Y87686D1*
X290731Y87624D1*
X290974D1*
X291157Y87686D1*
X291279Y87806D1*
X289063Y87624D2*
X289550Y88900D1*
X290036Y87624D1*
X289854Y88049D2*
X289246D1*
X288609Y88595D2*
Y88656D1*
X288549Y88778D1*
X288489Y88838D1*
X288366Y88898D1*
X288124D1*
X288003Y88838D1*
X287942Y88778D1*
X287881Y88656D1*
Y88535D1*
X287942Y88413D1*
X288063Y88232D1*
X288671Y87624D1*
X287820D1*
X287306Y88898D2*
X286639D1*
X287003Y88413D1*
X286820D1*
X286700Y88352D1*
X286639Y88292D1*
X286577Y88110D1*
Y87989D1*
X286639Y87806D1*
X286760Y87684D1*
X286942Y87624D1*
X287125D1*
X287306Y87684D1*
X287366Y87746D1*
X287428Y87867D1*
X286185Y88261D2*
X285483D1*
X285091Y88656D2*
X284969Y88717D1*
X284787Y88898D1*
Y87624D1*
X284394Y88656D2*
X284272Y88717D1*
X284090Y88898D1*
Y87624D1*
X282847Y88717D2*
X282968Y88840D1*
X283150Y88900D1*
X283393D1*
X283575Y88840D1*
X283698Y88717D1*
Y88597D1*
X283636Y88475D1*
X283575Y88414D1*
X283455Y88354D1*
X283090Y88232D1*
X282968Y88171D1*
X282907Y88110D1*
X282847Y87989D1*
Y87806D1*
X282968Y87686D1*
X283150Y87624D1*
X283393D1*
X283575Y87686D1*
X283698Y87806D1*
X282455Y88292D2*
X281909D1*
X281726Y88354D1*
X281664Y88414D1*
X281604Y88535D1*
Y88657D1*
X281664Y88778D1*
X281726Y88840D1*
X281909Y88900D1*
X282455D1*
Y87624D1*
X282029Y88292D2*
X281604Y87624D1*
X281212Y88900D2*
X280907Y87624D1*
X280604Y88900D1*
X280301Y87624D1*
X279996Y88900D1*
X278631Y87624D2*
X279118Y88900D1*
X279604Y87624D1*
X279421Y88049D2*
X278814D1*
X212328Y15240D2*
Y13964D1*
X211903D1*
X211720Y14026D1*
X211598Y14146D1*
X211538Y14268D1*
X211478Y14450D1*
Y14754D1*
X211538Y14937D1*
X211598Y15057D1*
X211720Y15180D1*
X211903Y15240D1*
X212328D1*
X210235Y15057D2*
X210355Y15180D1*
X210538Y15240D1*
X210781D1*
X210963Y15180D1*
X211085Y15057D1*
Y14937D1*
X211024Y14815D1*
X210963Y14754D1*
X210842Y14694D1*
X210477Y14572D1*
X210355Y14511D1*
X210295Y14450D1*
X210235Y14329D1*
Y14146D1*
X210355Y14026D1*
X210538Y13964D1*
X210781D1*
X210963Y14026D1*
X211085Y14146D1*
X209720Y15238D2*
X209054D1*
X209417Y14753D1*
X209235D1*
X209114Y14692D1*
X209054Y14632D1*
X208992Y14450D1*
Y14329D1*
X209054Y14146D1*
X209174Y14024D1*
X209357Y13964D1*
X209539D1*
X209720Y14024D1*
X209781Y14086D1*
X209842Y14207D1*
X216768Y88717D2*
X216889Y88840D1*
X217071Y88900D1*
X217314D1*
X217497Y88840D1*
X217619Y88717D1*
Y88597D1*
X217557Y88475D1*
X217497Y88414D1*
X217376Y88354D1*
X217011Y88232D1*
X216889Y88171D1*
X216829Y88110D1*
X216768Y87989D1*
Y87806D1*
X216889Y87686D1*
X217071Y87624D1*
X217314D1*
X217497Y87686D1*
X217619Y87806D1*
X215403Y87624D2*
X215890Y88900D1*
X216376Y87624D1*
X216194Y88049D2*
X215586D1*
X214949Y88595D2*
Y88656D1*
X214889Y88778D1*
X214829Y88838D1*
X214706Y88898D1*
X214464D1*
X214343Y88838D1*
X214282Y88778D1*
X214221Y88656D1*
Y88535D1*
X214282Y88413D1*
X214403Y88232D1*
X215011Y87624D1*
X214160D1*
X213646Y88898D2*
X212979D1*
X213343Y88413D1*
X213160D1*
X213040Y88352D1*
X212979Y88292D1*
X212917Y88110D1*
Y87989D1*
X212979Y87806D1*
X213100Y87684D1*
X213282Y87624D1*
X213465D1*
X213646Y87684D1*
X213706Y87746D1*
X213768Y87867D1*
X212525Y88261D2*
X211823D1*
X211431Y88656D2*
X211309Y88717D1*
X211127Y88898D1*
Y87624D1*
X210734Y88656D2*
X210612Y88717D1*
X210430Y88898D1*
Y87624D1*
X209187Y88717D2*
X209308Y88840D1*
X209490Y88900D1*
X209733D1*
X209915Y88840D1*
X210038Y88717D1*
Y88597D1*
X209976Y88475D1*
X209915Y88414D1*
X209795Y88354D1*
X209430Y88232D1*
X209308Y88171D1*
X209247Y88110D1*
X209187Y87989D1*
Y87806D1*
X209308Y87686D1*
X209490Y87624D1*
X209733D1*
X209915Y87686D1*
X210038Y87806D1*
X208795Y88292D2*
X208249D1*
X208066Y88354D1*
X208004Y88414D1*
X207944Y88535D1*
Y88657D1*
X208004Y88778D1*
X208066Y88840D1*
X208249Y88900D1*
X208795D1*
Y87624D1*
X208369Y88292D2*
X207944Y87624D1*
X207552Y88900D2*
X207247Y87624D1*
X206944Y88900D1*
X206641Y87624D1*
X206336Y88900D1*
X204971Y87624D2*
X205458Y88900D1*
X205944Y87624D1*
X205761Y88049D2*
X205154D1*
X164098Y15240D2*
Y13964D1*
X163673D1*
X163491Y14026D1*
X163368Y14146D1*
X163308Y14268D1*
X163248Y14450D1*
Y14754D1*
X163308Y14937D1*
X163368Y15057D1*
X163491Y15180D1*
X163673Y15240D1*
X164098D1*
X162005Y15057D2*
X162126Y15180D1*
X162308Y15240D1*
X162551D1*
X162733Y15180D1*
X162856Y15057D1*
Y14937D1*
X162794Y14815D1*
X162733Y14754D1*
X162613Y14694D1*
X162248Y14572D1*
X162126Y14511D1*
X162065Y14450D1*
X162005Y14329D1*
Y14146D1*
X162126Y14026D1*
X162308Y13964D1*
X162551D1*
X162733Y14026D1*
X162856Y14146D1*
X161005Y13964D2*
Y15238D1*
X161613Y14389D1*
X160702D1*
X168508Y88717D2*
X168629Y88840D1*
X168811Y88900D1*
X169054D1*
X169237Y88840D1*
X169359Y88717D1*
Y88597D1*
X169297Y88475D1*
X169237Y88414D1*
X169116Y88354D1*
X168751Y88232D1*
X168629Y88171D1*
X168569Y88110D1*
X168508Y87989D1*
Y87806D1*
X168629Y87686D1*
X168811Y87624D1*
X169054D1*
X169237Y87686D1*
X169359Y87806D1*
X167143Y87624D2*
X167630Y88900D1*
X168116Y87624D1*
X167934Y88049D2*
X167326D1*
X166689Y88595D2*
Y88656D1*
X166629Y88778D1*
X166569Y88838D1*
X166446Y88898D1*
X166204D1*
X166083Y88838D1*
X166022Y88778D1*
X165961Y88656D1*
Y88535D1*
X166022Y88413D1*
X166143Y88232D1*
X166751Y87624D1*
X165900D1*
X165386Y88898D2*
X164719D1*
X165083Y88413D1*
X164900D1*
X164780Y88352D1*
X164719Y88292D1*
X164657Y88110D1*
Y87989D1*
X164719Y87806D1*
X164840Y87684D1*
X165022Y87624D1*
X165205D1*
X165386Y87684D1*
X165446Y87746D1*
X165508Y87867D1*
X164265Y88261D2*
X163563D1*
X163171Y88656D2*
X163049Y88717D1*
X162867Y88898D1*
Y87624D1*
X162474Y88656D2*
X162352Y88717D1*
X162170Y88898D1*
Y87624D1*
X160927Y88717D2*
X161048Y88840D1*
X161230Y88900D1*
X161473D1*
X161655Y88840D1*
X161778Y88717D1*
Y88597D1*
X161716Y88475D1*
X161655Y88414D1*
X161535Y88354D1*
X161170Y88232D1*
X161048Y88171D1*
X160987Y88110D1*
X160927Y87989D1*
Y87806D1*
X161048Y87686D1*
X161230Y87624D1*
X161473D1*
X161655Y87686D1*
X161778Y87806D1*
X160535Y88292D2*
X159989D1*
X159806Y88354D1*
X159744Y88414D1*
X159684Y88535D1*
Y88657D1*
X159744Y88778D1*
X159806Y88840D1*
X159989Y88900D1*
X160535D1*
Y87624D1*
X160109Y88292D2*
X159684Y87624D1*
X159292Y88900D2*
X158987Y87624D1*
X158684Y88900D1*
X158381Y87624D1*
X158076Y88900D1*
X156711Y87624D2*
X157198Y88900D1*
X157684Y87624D1*
X157501Y88049D2*
X156894D1*
X90408Y15240D2*
Y13964D1*
X89983D1*
X89800Y14026D1*
X89678Y14146D1*
X89618Y14268D1*
X89558Y14450D1*
Y14754D1*
X89618Y14937D1*
X89678Y15057D1*
X89800Y15180D1*
X89983Y15240D1*
X90408D1*
X88315Y15057D2*
X88435Y15180D1*
X88618Y15240D1*
X88861D1*
X89043Y15180D1*
X89165Y15057D1*
Y14937D1*
X89104Y14815D1*
X89043Y14754D1*
X88922Y14694D1*
X88557Y14572D1*
X88435Y14511D1*
X88375Y14450D1*
X88315Y14329D1*
Y14146D1*
X88435Y14026D1*
X88618Y13964D1*
X88861D1*
X89043Y14026D1*
X89165Y14146D1*
X87194Y15238D2*
X87800D1*
X87861Y14692D1*
X87800Y14753D1*
X87618Y14815D1*
X87437D1*
X87254Y14753D1*
X87132Y14632D1*
X87072Y14450D1*
Y14329D1*
X87132Y14146D1*
X87254Y14024D1*
X87437Y13964D1*
X87618D1*
X87800Y14024D1*
X87861Y14086D1*
X87922Y14207D1*
X94848Y88717D2*
X94969Y88840D1*
X95151Y88900D1*
X95394D1*
X95577Y88840D1*
X95699Y88717D1*
Y88597D1*
X95637Y88475D1*
X95577Y88414D1*
X95456Y88354D1*
X95091Y88232D1*
X94969Y88171D1*
X94909Y88110D1*
X94848Y87989D1*
Y87806D1*
X94969Y87686D1*
X95151Y87624D1*
X95394D1*
X95577Y87686D1*
X95699Y87806D1*
X93483Y87624D2*
X93970Y88900D1*
X94456Y87624D1*
X94274Y88049D2*
X93666D1*
X93029Y88595D2*
Y88656D1*
X92969Y88778D1*
X92909Y88838D1*
X92786Y88898D1*
X92544D1*
X92423Y88838D1*
X92362Y88778D1*
X92301Y88656D1*
Y88535D1*
X92362Y88413D1*
X92483Y88232D1*
X93091Y87624D1*
X92240D1*
X91726Y88898D2*
X91059D1*
X91423Y88413D1*
X91240D1*
X91120Y88352D1*
X91059Y88292D1*
X90997Y88110D1*
Y87989D1*
X91059Y87806D1*
X91180Y87684D1*
X91362Y87624D1*
X91545D1*
X91726Y87684D1*
X91786Y87746D1*
X91848Y87867D1*
X90605Y88261D2*
X89903D1*
X89511Y88656D2*
X89389Y88717D1*
X89207Y88898D1*
Y87624D1*
X88814Y88656D2*
X88692Y88717D1*
X88510Y88898D1*
Y87624D1*
X87267Y88717D2*
X87388Y88840D1*
X87570Y88900D1*
X87813D1*
X87995Y88840D1*
X88118Y88717D1*
Y88597D1*
X88056Y88475D1*
X87995Y88414D1*
X87875Y88354D1*
X87510Y88232D1*
X87388Y88171D1*
X87327Y88110D1*
X87267Y87989D1*
Y87806D1*
X87388Y87686D1*
X87570Y87624D1*
X87813D1*
X87995Y87686D1*
X88118Y87806D1*
X86875Y88292D2*
X86329D1*
X86146Y88354D1*
X86084Y88414D1*
X86024Y88535D1*
Y88657D1*
X86084Y88778D1*
X86146Y88840D1*
X86329Y88900D1*
X86875D1*
Y87624D1*
X86449Y88292D2*
X86024Y87624D1*
X85632Y88900D2*
X85327Y87624D1*
X85024Y88900D1*
X84721Y87624D1*
X84416Y88900D1*
X83051Y87624D2*
X83538Y88900D1*
X84024Y87624D1*
X83841Y88049D2*
X83234D1*
X42117Y15240D2*
Y13964D1*
X41692D1*
X41510Y14026D1*
X41387Y14146D1*
X41327Y14268D1*
X41267Y14450D1*
Y14754D1*
X41327Y14937D1*
X41387Y15057D1*
X41510Y15180D1*
X41692Y15240D1*
X42117D1*
X40024Y15057D2*
X40144Y15180D1*
X40327Y15240D1*
X40570D1*
X40752Y15180D1*
X40874Y15057D1*
Y14937D1*
X40813Y14815D1*
X40752Y14754D1*
X40632Y14694D1*
X40267Y14572D1*
X40144Y14511D1*
X40084Y14450D1*
X40024Y14329D1*
Y14146D1*
X40144Y14026D1*
X40327Y13964D1*
X40570D1*
X40752Y14026D1*
X40874Y14146D1*
X38903Y15057D2*
X38963Y15178D1*
X39146Y15238D1*
X39267D1*
X39449Y15178D1*
X39571Y14996D1*
X39632Y14692D1*
Y14389D1*
X39571Y14146D1*
X39449Y14024D1*
X39267Y13964D1*
X39206D1*
X39025Y14024D1*
X38903Y14146D1*
X38843Y14329D1*
Y14389D1*
X38903Y14572D1*
X39025Y14692D1*
X39206Y14753D1*
X39267D1*
X39449Y14692D1*
X39571Y14572D1*
X39632Y14389D1*
X46588Y88717D2*
X46709Y88840D1*
X46891Y88900D1*
X47134D1*
X47317Y88840D1*
X47439Y88717D1*
Y88597D1*
X47377Y88475D1*
X47317Y88414D1*
X47196Y88354D1*
X46831Y88232D1*
X46709Y88171D1*
X46649Y88110D1*
X46588Y87989D1*
Y87806D1*
X46709Y87686D1*
X46891Y87624D1*
X47134D1*
X47317Y87686D1*
X47439Y87806D1*
X45223Y87624D2*
X45710Y88900D1*
X46196Y87624D1*
X46014Y88049D2*
X45406D1*
X44769Y88595D2*
Y88656D1*
X44709Y88778D1*
X44649Y88838D1*
X44526Y88898D1*
X44284D1*
X44163Y88838D1*
X44102Y88778D1*
X44041Y88656D1*
Y88535D1*
X44102Y88413D1*
X44223Y88232D1*
X44831Y87624D1*
X43980D1*
X43466Y88898D2*
X42799D1*
X43163Y88413D1*
X42980D1*
X42860Y88352D1*
X42799Y88292D1*
X42737Y88110D1*
Y87989D1*
X42799Y87806D1*
X42920Y87684D1*
X43102Y87624D1*
X43285D1*
X43466Y87684D1*
X43526Y87746D1*
X43588Y87867D1*
X42345Y88261D2*
X41643D1*
X41251Y88656D2*
X41129Y88717D1*
X40947Y88898D1*
Y87624D1*
X40554Y88656D2*
X40432Y88717D1*
X40250Y88898D1*
Y87624D1*
X39007Y88717D2*
X39128Y88840D1*
X39310Y88900D1*
X39553D1*
X39735Y88840D1*
X39858Y88717D1*
Y88597D1*
X39796Y88475D1*
X39735Y88414D1*
X39615Y88354D1*
X39250Y88232D1*
X39128Y88171D1*
X39067Y88110D1*
X39007Y87989D1*
Y87806D1*
X39128Y87686D1*
X39310Y87624D1*
X39553D1*
X39735Y87686D1*
X39858Y87806D1*
X38615Y88292D2*
X38069D1*
X37886Y88354D1*
X37824Y88414D1*
X37764Y88535D1*
Y88657D1*
X37824Y88778D1*
X37886Y88840D1*
X38069Y88900D1*
X38615D1*
Y87624D1*
X38189Y88292D2*
X37764Y87624D1*
X37372Y88900D2*
X37067Y87624D1*
X36764Y88900D1*
X36461Y87624D1*
X36156Y88900D1*
X34791Y87624D2*
X35278Y88900D1*
X35764Y87624D1*
X35581Y88049D2*
X34974D1*
X247567Y31067D2*
Y29974D1*
X248113Y30520D2*
X247020D1*
X245899Y31158D2*
X246505D1*
X246566Y30612D1*
X246505Y30672D1*
X246323Y30734D1*
X246142D1*
X245959Y30672D1*
X245837Y30551D1*
X245777Y30369D1*
Y30248D1*
X245837Y30066D1*
X245959Y29944D1*
X246142Y29883D1*
X246323D1*
X246505Y29944D1*
X246566Y30005D1*
X246627Y30126D1*
X245385Y31159D2*
X244899Y29883D1*
X244413Y31159D1*
X252356Y59747D2*
D91*
Y58872D1*
X252793Y59309D2*
X251918D1*
X251507Y59819D2*
X250973D1*
X251264Y59431D1*
X251118D1*
X251021Y59382D1*
X250973Y59334D1*
X250924Y59188D1*
Y59092D1*
X250973Y58946D1*
X251070Y58848D1*
X251216Y58800D1*
X251362D1*
X251507Y58848D1*
X251555Y58897D1*
X251604Y58994D1*
X250610Y59820D2*
X250221Y58800D1*
X249833Y59820D1*
X249421Y59819D2*
X248888D1*
X249179Y59431D1*
X249033D1*
X248936Y59382D1*
X248888Y59334D1*
X248838Y59188D1*
Y59092D1*
X248888Y58946D1*
X248984Y58848D1*
X249130Y58800D1*
X249276D1*
X249421Y58848D1*
X249470Y58897D1*
X249519Y58994D1*
X299699Y22177D2*
D90*
Y21084D1*
X300245Y21630D2*
X299151D1*
X298759Y22025D2*
X298637Y22087D1*
X298455Y22268D1*
Y20993D1*
X298001Y21965D2*
Y22025D1*
X297940Y22147D1*
X297880Y22207D1*
X297758Y22268D1*
X297515D1*
X297394Y22207D1*
X297334Y22147D1*
X297272Y22025D1*
Y21904D1*
X297334Y21782D1*
X297455Y21601D1*
X298062Y20993D1*
X297212D1*
X296820Y22269D2*
X296334Y20993D1*
X295848Y22269D1*
M02*
