G04 DipTrace 2.4.0.2*
%INsensorclock.GBS*%
%MOMM*%
%ADD36C,1.8*%
%ADD45C,2.0*%
%ADD46C,2.75*%
%ADD47C,1.6*%
%ADD48C,1.8*%
%ADD53C,2.2*%
%ADD64O,2.8X3.2*%
%ADD89C,1.7*%
%ADD91R,1.7X1.7*%
%FSLAX53Y53*%
G04*
G71*
G90*
G75*
G01*
%LNBotMask*%
%LPD*%
D91*
X274160Y30320D3*
D89*
X276700D3*
X279240D3*
X291940D3*
X294480D3*
D46*
X218490Y35665D3*
X276490D3*
X218490Y84665D3*
X276490D3*
D91*
X337660Y21430D3*
D36*
X335120D3*
X332580D3*
X330040D3*
X327500D3*
X337660Y81530D3*
X335120D3*
X332580D3*
X330040D3*
X327500D3*
D91*
X289400Y21430D3*
D36*
X286860D3*
X284320D3*
X281780D3*
X279240D3*
X289400Y81530D3*
X286860D3*
X284320D3*
X281780D3*
X279240D3*
D91*
X215740Y21430D3*
D36*
X213200D3*
X210660D3*
X208120D3*
X205580D3*
X215740Y81530D3*
X213200D3*
X210660D3*
X208120D3*
X205580D3*
D91*
X167480Y21430D3*
D36*
X164940D3*
X162400D3*
X159860D3*
X157320D3*
X167480Y81530D3*
X164940D3*
X162400D3*
X159860D3*
X157320D3*
D91*
X93820Y21430D3*
D36*
X91280D3*
X88740D3*
X86200D3*
X83660D3*
X93820Y81530D3*
X91280D3*
X88740D3*
X86200D3*
X83660D3*
D91*
X45560Y21430D3*
D36*
X43020D3*
X40480D3*
X37940D3*
X35400D3*
X45560Y81530D3*
X43020D3*
X40480D3*
X37940D3*
X35400D3*
D47*
X354170Y25025D3*
D48*
X349670D3*
D91*
X200500Y29050D3*
D89*
X197960D3*
X200500Y31590D3*
X197960D3*
X200500Y34130D3*
X197960D3*
X200500Y36670D3*
X197960D3*
X200500Y39210D3*
X197960D3*
X200500Y41750D3*
X197960D3*
X200500Y44290D3*
X197960D3*
X200500Y46830D3*
X197960D3*
X200500Y49370D3*
X197960D3*
X200500Y51910D3*
X197960D3*
D91*
X20160Y69690D3*
D89*
Y67150D3*
Y64610D3*
Y62070D3*
Y59530D3*
D91*
Y49370D3*
D89*
Y46830D3*
Y44290D3*
Y41750D3*
D91*
X51910Y46195D3*
D89*
X49370D3*
X46830D3*
D45*
X96995Y37940D3*
X101995D3*
X106995D3*
X99495Y55440D3*
X104495D3*
D64*
X109395Y48440D3*
X94595D3*
D46*
X13810Y88740D3*
X125570D3*
X247490D3*
X359250D3*
X13810Y13810D3*
X125570D3*
X247490D3*
X359250D3*
D53*
X50640Y29952D3*
X49249Y33311D3*
X50640Y36670D3*
X57358D3*
X58749Y33311D3*
X57358Y29952D3*
M02*
